%TF.GenerationSoftware,KiCad,Pcbnew,9.0.5*%
%TF.CreationDate,2025-10-17T15:18:07-07:00*%
%TF.ProjectId,schematic,73636865-6d61-4746-9963-2e6b69636164,rev?*%
%TF.SameCoordinates,Original*%
%TF.FileFunction,Copper,L1,Top*%
%TF.FilePolarity,Positive*%
%FSLAX46Y46*%
G04 Gerber Fmt 4.6, Leading zero omitted, Abs format (unit mm)*
G04 Created by KiCad (PCBNEW 9.0.5) date 2025-10-17 15:18:07*
%MOMM*%
%LPD*%
G01*
G04 APERTURE LIST*
G04 Aperture macros list*
%AMRoundRect*
0 Rectangle with rounded corners*
0 $1 Rounding radius*
0 $2 $3 $4 $5 $6 $7 $8 $9 X,Y pos of 4 corners*
0 Add a 4 corners polygon primitive as box body*
4,1,4,$2,$3,$4,$5,$6,$7,$8,$9,$2,$3,0*
0 Add four circle primitives for the rounded corners*
1,1,$1+$1,$2,$3*
1,1,$1+$1,$4,$5*
1,1,$1+$1,$6,$7*
1,1,$1+$1,$8,$9*
0 Add four rect primitives between the rounded corners*
20,1,$1+$1,$2,$3,$4,$5,0*
20,1,$1+$1,$4,$5,$6,$7,0*
20,1,$1+$1,$6,$7,$8,$9,0*
20,1,$1+$1,$8,$9,$2,$3,0*%
G04 Aperture macros list end*
%TA.AperFunction,ComponentPad*%
%ADD10O,2.000000X1.440000*%
%TD*%
%TA.AperFunction,ComponentPad*%
%ADD11R,2.000000X1.440000*%
%TD*%
%TA.AperFunction,ComponentPad*%
%ADD12RoundRect,0.250000X0.512000X0.512000X-0.512000X0.512000X-0.512000X-0.512000X0.512000X-0.512000X0*%
%TD*%
%TA.AperFunction,ComponentPad*%
%ADD13C,1.524000*%
%TD*%
%TA.AperFunction,ComponentPad*%
%ADD14C,3.500000*%
%TD*%
%TA.AperFunction,ComponentPad*%
%ADD15C,1.600000*%
%TD*%
%TA.AperFunction,ComponentPad*%
%ADD16R,1.700000X1.700000*%
%TD*%
%TA.AperFunction,ComponentPad*%
%ADD17C,1.700000*%
%TD*%
%TA.AperFunction,ComponentPad*%
%ADD18C,2.000000*%
%TD*%
%TA.AperFunction,ComponentPad*%
%ADD19C,1.500000*%
%TD*%
%TA.AperFunction,ComponentPad*%
%ADD20RoundRect,0.250000X-0.350000X-0.350000X0.350000X-0.350000X0.350000X0.350000X-0.350000X0.350000X0*%
%TD*%
%TA.AperFunction,ComponentPad*%
%ADD21C,1.200000*%
%TD*%
%TA.AperFunction,Conductor*%
%ADD22C,0.200000*%
%TD*%
G04 APERTURE END LIST*
D10*
%TO.P,U1,40,VCC*%
%TO.N,+5V*%
X85500000Y-63220000D03*
%TO.P,U1,39,P0.0*%
%TO.N,Net-(J2-Pin_1)*%
X85500000Y-65760000D03*
%TO.P,U1,38,P0.1*%
%TO.N,Net-(J2-Pin_2)*%
X85500000Y-68300000D03*
%TO.P,U1,37,P0.2*%
%TO.N,Net-(J2-Pin_3)*%
X85500000Y-70840000D03*
%TO.P,U1,36,P0.3*%
%TO.N,Net-(J2-Pin_4)*%
X85500000Y-73380000D03*
%TO.P,U1,35,P0.4*%
%TO.N,Net-(J2-Pin_5)*%
X85500000Y-75920000D03*
%TO.P,U1,34,P0.5*%
%TO.N,Net-(J2-Pin_6)*%
X85500000Y-78460000D03*
%TO.P,U1,33,P0.6*%
%TO.N,Net-(J2-Pin_7)*%
X85500000Y-81000000D03*
%TO.P,U1,32,P0.7*%
%TO.N,Net-(J2-Pin_8)*%
X85500000Y-83540000D03*
%TO.P,U1,31,~{EA}/VPP*%
%TO.N,+5V*%
X85500000Y-86080000D03*
%TO.P,U1,30,ALE/~{PROG}*%
%TO.N,Net-(J5-Pin_1)*%
X85500000Y-88620000D03*
%TO.P,U1,29,~{PSEN}*%
%TO.N,Net-(J6-Pin_1)*%
X85500000Y-91160000D03*
%TO.P,U1,28,P2.7*%
%TO.N,Net-(J3-Pin_1)*%
X85500000Y-93700000D03*
%TO.P,U1,27,P2.6*%
%TO.N,Net-(J3-Pin_2)*%
X85500000Y-96240000D03*
%TO.P,U1,26,P2.5*%
%TO.N,Net-(J3-Pin_3)*%
X85500000Y-98780000D03*
%TO.P,U1,25,P2.4*%
%TO.N,Net-(J3-Pin_4)*%
X85500000Y-101320000D03*
%TO.P,U1,24,P2.3*%
%TO.N,Net-(J3-Pin_5)*%
X85500000Y-103860000D03*
%TO.P,U1,23,P2.2*%
%TO.N,Net-(J3-Pin_6)*%
X85500000Y-106400000D03*
%TO.P,U1,22,P2.1*%
%TO.N,Net-(J3-Pin_7)*%
X85500000Y-108940000D03*
%TO.P,U1,21,P2.0*%
%TO.N,Net-(J3-Pin_8)*%
X85500000Y-111480000D03*
%TO.P,U1,20,GND*%
%TO.N,GND*%
X70260000Y-111480000D03*
%TO.P,U1,19,XTAL1*%
%TO.N,Net-(U1-XTAL1)*%
X70260000Y-108940000D03*
%TO.P,U1,18,XTAL2*%
%TO.N,Net-(U1-XTAL2)*%
X70260000Y-106400000D03*
%TO.P,U1,17,P3.7*%
%TO.N,Net-(J4-Pin_8)*%
X70260000Y-103860000D03*
%TO.P,U1,16,P3.6*%
%TO.N,Net-(J4-Pin_7)*%
X70260000Y-101320000D03*
%TO.P,U1,15,P3.5*%
%TO.N,Net-(J4-Pin_6)*%
X70260000Y-98780000D03*
%TO.P,U1,14,P3.4*%
%TO.N,Net-(J4-Pin_5)*%
X70260000Y-96240000D03*
%TO.P,U1,13,P3.3*%
%TO.N,Net-(J4-Pin_4)*%
X70260000Y-93700000D03*
%TO.P,U1,12,P3.2*%
%TO.N,Net-(J4-Pin_3)*%
X70260000Y-91160000D03*
%TO.P,U1,11,P3.1*%
%TO.N,Net-(J4-Pin_2)*%
X70260000Y-88620000D03*
%TO.P,U1,10,P3.0*%
%TO.N,Net-(J4-Pin_1)*%
X70260000Y-86080000D03*
%TO.P,U1,9,RST*%
%TO.N,Net-(U1-RST)*%
X70260000Y-83540000D03*
%TO.P,U1,8,P1.7*%
%TO.N,Net-(J1-Pin_8)*%
X70260000Y-81000000D03*
%TO.P,U1,7,P1.6*%
%TO.N,Net-(J1-Pin_7)*%
X70260000Y-78460000D03*
%TO.P,U1,6,P1.5*%
%TO.N,Net-(J1-Pin_6)*%
X70260000Y-75920000D03*
%TO.P,U1,5,P1.4*%
%TO.N,Net-(J1-Pin_5)*%
X70260000Y-73380000D03*
%TO.P,U1,4,P1.3*%
%TO.N,Net-(J1-Pin_4)*%
X70260000Y-70840000D03*
%TO.P,U1,3,P1.2*%
%TO.N,Net-(J1-Pin_3)*%
X70260000Y-68300000D03*
%TO.P,U1,2,P1.1*%
%TO.N,Net-(J1-Pin_2)*%
X70260000Y-65760000D03*
D11*
%TO.P,U1,1,P1.0*%
%TO.N,Net-(J1-Pin_1)*%
X70260000Y-63220000D03*
%TD*%
D12*
%TO.P,J7,1,VBUS*%
%TO.N,+5V*%
X100464775Y-46447653D03*
D13*
%TO.P,J7,2,D-*%
%TO.N,unconnected-(J7-D--Pad2)*%
X97964775Y-46447653D03*
%TO.P,J7,3,D+*%
%TO.N,unconnected-(J7-D+-Pad3)*%
X95964775Y-46447653D03*
%TO.P,J7,4,ID*%
%TO.N,unconnected-(J7-ID-Pad4)*%
X93464775Y-46447653D03*
D14*
%TO.P,J7,5,GND*%
%TO.N,GND*%
X103534775Y-43737653D03*
X90394775Y-43737653D03*
%TD*%
D15*
%TO.P,C2,1*%
%TO.N,Net-(U1-XTAL2)*%
X73000000Y-130500000D03*
%TO.P,C2,2*%
%TO.N,GND*%
X73000000Y-133000000D03*
%TD*%
D16*
%TO.P,J6,1,Pin_1*%
%TO.N,Net-(J6-Pin_1)*%
X102500000Y-90720000D03*
%TD*%
%TO.P,J3,1,Pin_1*%
%TO.N,Net-(J3-Pin_1)*%
X98500000Y-93720000D03*
D17*
%TO.P,J3,2,Pin_2*%
%TO.N,Net-(J3-Pin_2)*%
X98500000Y-96260000D03*
%TO.P,J3,3,Pin_3*%
%TO.N,Net-(J3-Pin_3)*%
X98500000Y-98800000D03*
%TO.P,J3,4,Pin_4*%
%TO.N,Net-(J3-Pin_4)*%
X98500000Y-101340000D03*
%TO.P,J3,5,Pin_5*%
%TO.N,Net-(J3-Pin_5)*%
X98500000Y-103880000D03*
%TO.P,J3,6,Pin_6*%
%TO.N,Net-(J3-Pin_6)*%
X98500000Y-106420000D03*
%TO.P,J3,7,Pin_7*%
%TO.N,Net-(J3-Pin_7)*%
X98500000Y-108960000D03*
%TO.P,J3,8,Pin_8*%
%TO.N,Net-(J3-Pin_8)*%
X98500000Y-111500000D03*
%TD*%
D16*
%TO.P,J2,1,Pin_1*%
%TO.N,Net-(J2-Pin_1)*%
X98500000Y-65680000D03*
D17*
%TO.P,J2,2,Pin_2*%
%TO.N,Net-(J2-Pin_2)*%
X98500000Y-68220000D03*
%TO.P,J2,3,Pin_3*%
%TO.N,Net-(J2-Pin_3)*%
X98500000Y-70760000D03*
%TO.P,J2,4,Pin_4*%
%TO.N,Net-(J2-Pin_4)*%
X98500000Y-73300000D03*
%TO.P,J2,5,Pin_5*%
%TO.N,Net-(J2-Pin_5)*%
X98500000Y-75840000D03*
%TO.P,J2,6,Pin_6*%
%TO.N,Net-(J2-Pin_6)*%
X98500000Y-78380000D03*
%TO.P,J2,7,Pin_7*%
%TO.N,Net-(J2-Pin_7)*%
X98500000Y-80920000D03*
%TO.P,J2,8,Pin_8*%
%TO.N,Net-(J2-Pin_8)*%
X98500000Y-83460000D03*
%TD*%
D16*
%TO.P,J4,1,Pin_1*%
%TO.N,Net-(J4-Pin_1)*%
X56500000Y-86220000D03*
D17*
%TO.P,J4,2,Pin_2*%
%TO.N,Net-(J4-Pin_2)*%
X56500000Y-88760000D03*
%TO.P,J4,3,Pin_3*%
%TO.N,Net-(J4-Pin_3)*%
X56500000Y-91300000D03*
%TO.P,J4,4,Pin_4*%
%TO.N,Net-(J4-Pin_4)*%
X56500000Y-93840000D03*
%TO.P,J4,5,Pin_5*%
%TO.N,Net-(J4-Pin_5)*%
X56500000Y-96380000D03*
%TO.P,J4,6,Pin_6*%
%TO.N,Net-(J4-Pin_6)*%
X56500000Y-98920000D03*
%TO.P,J4,7,Pin_7*%
%TO.N,Net-(J4-Pin_7)*%
X56500000Y-101460000D03*
%TO.P,J4,8,Pin_8*%
%TO.N,Net-(J4-Pin_8)*%
X56500000Y-104000000D03*
%TD*%
D15*
%TO.P,C4,1*%
%TO.N,+5V*%
X94000000Y-59000000D03*
%TO.P,C4,2*%
%TO.N,GND*%
X94000000Y-64000000D03*
%TD*%
D16*
%TO.P,J5,1,Pin_1*%
%TO.N,Net-(J5-Pin_1)*%
X102500000Y-84720000D03*
%TD*%
D18*
%TO.P,SW1,1,1*%
%TO.N,+5V*%
X75000000Y-43500000D03*
X81500000Y-43500000D03*
%TO.P,SW1,2,2*%
%TO.N,Net-(U1-RST)*%
X75000000Y-48000000D03*
X81500000Y-48000000D03*
%TD*%
D15*
%TO.P,C1,1*%
%TO.N,GND*%
X72990863Y-123094076D03*
%TO.P,C1,2*%
%TO.N,Net-(U1-XTAL1)*%
X72990863Y-125594076D03*
%TD*%
D16*
%TO.P,J1,1,Pin_1*%
%TO.N,Net-(J1-Pin_1)*%
X56500000Y-63220000D03*
D17*
%TO.P,J1,2,Pin_2*%
%TO.N,Net-(J1-Pin_2)*%
X56500000Y-65760000D03*
%TO.P,J1,3,Pin_3*%
%TO.N,Net-(J1-Pin_3)*%
X56500000Y-68300000D03*
%TO.P,J1,4,Pin_4*%
%TO.N,Net-(J1-Pin_4)*%
X56500000Y-70840000D03*
%TO.P,J1,5,Pin_5*%
%TO.N,Net-(J1-Pin_5)*%
X56500000Y-73380000D03*
%TO.P,J1,6,Pin_6*%
%TO.N,Net-(J1-Pin_6)*%
X56500000Y-75920000D03*
%TO.P,J1,7,Pin_7*%
%TO.N,Net-(J1-Pin_7)*%
X56500000Y-78460000D03*
%TO.P,J1,8,Pin_8*%
%TO.N,Net-(J1-Pin_8)*%
X56500000Y-81000000D03*
%TD*%
D15*
%TO.P,R1,1*%
%TO.N,GND*%
X84350000Y-37500000D03*
%TO.P,R1,2*%
%TO.N,Net-(U1-RST)*%
X71650000Y-37500000D03*
%TD*%
D19*
%TO.P,Y1,1,1*%
%TO.N,Net-(U1-XTAL1)*%
X68500000Y-125600000D03*
%TO.P,Y1,2,2*%
%TO.N,Net-(U1-XTAL2)*%
X68500000Y-130500000D03*
%TD*%
D20*
%TO.P,C3,1*%
%TO.N,Net-(U1-RST)*%
X92000000Y-53500000D03*
D21*
%TO.P,C3,2*%
%TO.N,+5V*%
X94000000Y-53500000D03*
%TD*%
D22*
%TO.N,+5V*%
X82000000Y-82580000D02*
X82000000Y-66500000D01*
X85500000Y-86080000D02*
X82000000Y-82580000D01*
X82000000Y-66500000D02*
X85280000Y-63220000D01*
X85280000Y-63220000D02*
X85500000Y-63220000D01*
%TO.N,Net-(U1-RST)*%
X73460000Y-83540000D02*
X75000000Y-82000000D01*
X73500000Y-48000000D02*
X71650000Y-46150000D01*
X71650000Y-37500000D02*
X71650000Y-46150000D01*
X92000000Y-53500000D02*
X87000000Y-53500000D01*
X75000000Y-48000000D02*
X73500000Y-48000000D01*
X75000000Y-48000000D02*
X81500000Y-48000000D01*
X87000000Y-53500000D02*
X81500000Y-48000000D01*
X70260000Y-83540000D02*
X73460000Y-83540000D01*
X75000000Y-82000000D02*
X75000000Y-48000000D01*
%TO.N,Net-(J4-Pin_2)*%
X70120000Y-88760000D02*
X70260000Y-88620000D01*
X56500000Y-88760000D02*
X70120000Y-88760000D01*
X69740000Y-88620000D02*
X70260000Y-88620000D01*
%TO.N,Net-(J3-Pin_4)*%
X85500000Y-101320000D02*
X85520000Y-101340000D01*
X85520000Y-101340000D02*
X98500000Y-101340000D01*
%TO.N,Net-(J3-Pin_2)*%
X85500000Y-96240000D02*
X85520000Y-96260000D01*
X85520000Y-96260000D02*
X98500000Y-96260000D01*
%TO.N,Net-(J1-Pin_5)*%
X70260000Y-73380000D02*
X56500000Y-73380000D01*
%TO.N,Net-(J2-Pin_4)*%
X85500000Y-73380000D02*
X85580000Y-73300000D01*
X85580000Y-73300000D02*
X98500000Y-73300000D01*
%TO.N,Net-(J1-Pin_6)*%
X56500000Y-75920000D02*
X70260000Y-75920000D01*
%TO.N,Net-(J4-Pin_1)*%
X69740000Y-86080000D02*
X70260000Y-86080000D01*
X56500000Y-86220000D02*
X70120000Y-86220000D01*
X70120000Y-86220000D02*
X70260000Y-86080000D01*
%TO.N,Net-(U1-XTAL1)*%
X68500000Y-125600000D02*
X72984939Y-125600000D01*
X72984939Y-125600000D02*
X72990863Y-125594076D01*
X68500000Y-110700000D02*
X70260000Y-108940000D01*
X68500000Y-125600000D02*
X68500000Y-110700000D01*
X70260000Y-108940000D02*
X70260000Y-109460000D01*
%TO.N,Net-(U1-XTAL2)*%
X68500000Y-130500000D02*
X67449000Y-129449000D01*
X68500000Y-130500000D02*
X73000000Y-130500000D01*
X67449000Y-129449000D02*
X67449000Y-109211000D01*
X67449000Y-109211000D02*
X70260000Y-106400000D01*
%TO.N,Net-(J2-Pin_7)*%
X85500000Y-81000000D02*
X98420000Y-81000000D01*
X98420000Y-81000000D02*
X98500000Y-80920000D01*
%TO.N,Net-(J3-Pin_5)*%
X98480000Y-103860000D02*
X98500000Y-103880000D01*
X85500000Y-103860000D02*
X98480000Y-103860000D01*
%TO.N,Net-(J1-Pin_2)*%
X56500000Y-65760000D02*
X70260000Y-65760000D01*
%TO.N,Net-(J2-Pin_6)*%
X85580000Y-78380000D02*
X98500000Y-78380000D01*
X85500000Y-78460000D02*
X85580000Y-78380000D01*
%TO.N,Net-(J1-Pin_7)*%
X70260000Y-78460000D02*
X56500000Y-78460000D01*
%TO.N,Net-(J1-Pin_4)*%
X56500000Y-70840000D02*
X70260000Y-70840000D01*
%TO.N,Net-(J5-Pin_1)*%
X85500000Y-88620000D02*
X98600000Y-88620000D01*
X98600000Y-88620000D02*
X102500000Y-84720000D01*
%TO.N,Net-(J1-Pin_3)*%
X70260000Y-68300000D02*
X56500000Y-68300000D01*
%TO.N,+5V*%
X86500000Y-48500000D02*
X99000000Y-48500000D01*
X100464775Y-46447653D02*
X100464775Y-47035225D01*
X85500000Y-63220000D02*
X85500000Y-59000000D01*
X99000000Y-48500000D02*
X94000000Y-53500000D01*
X81500000Y-43500000D02*
X86500000Y-48500000D01*
X85500000Y-59000000D02*
X94000000Y-59000000D01*
X100464775Y-47035225D02*
X99000000Y-48500000D01*
X81500000Y-43500000D02*
X75000000Y-43500000D01*
X94000000Y-59000000D02*
X94000000Y-53500000D01*
%TO.N,Net-(J2-Pin_1)*%
X98420000Y-65760000D02*
X98500000Y-65680000D01*
X85500000Y-65760000D02*
X98420000Y-65760000D01*
%TO.N,Net-(J4-Pin_3)*%
X56640000Y-91160000D02*
X56500000Y-91300000D01*
X70260000Y-91160000D02*
X56640000Y-91160000D01*
X70120000Y-91300000D02*
X70260000Y-91160000D01*
%TO.N,Net-(J3-Pin_7)*%
X85500000Y-108940000D02*
X98480000Y-108940000D01*
X98480000Y-108940000D02*
X98500000Y-108960000D01*
%TO.N,Net-(J2-Pin_3)*%
X85500000Y-70840000D02*
X98420000Y-70840000D01*
X98420000Y-70840000D02*
X98500000Y-70760000D01*
%TO.N,Net-(J2-Pin_2)*%
X85500000Y-68300000D02*
X85580000Y-68220000D01*
X85580000Y-68220000D02*
X98500000Y-68220000D01*
%TO.N,Net-(J4-Pin_7)*%
X69740000Y-101320000D02*
X70260000Y-101320000D01*
X56500000Y-101460000D02*
X70120000Y-101460000D01*
X70120000Y-101460000D02*
X70260000Y-101320000D01*
%TO.N,Net-(J2-Pin_8)*%
X85580000Y-83460000D02*
X98500000Y-83460000D01*
X85500000Y-83540000D02*
X85580000Y-83460000D01*
%TO.N,Net-(J6-Pin_1)*%
X85500000Y-91160000D02*
X102060000Y-91160000D01*
X102060000Y-91160000D02*
X102500000Y-90720000D01*
%TO.N,Net-(J3-Pin_3)*%
X85500000Y-98780000D02*
X98480000Y-98780000D01*
X98480000Y-98780000D02*
X98500000Y-98800000D01*
%TO.N,Net-(J3-Pin_8)*%
X85520000Y-111500000D02*
X98500000Y-111500000D01*
X85500000Y-111480000D02*
X85520000Y-111500000D01*
%TO.N,Net-(J4-Pin_6)*%
X70120000Y-98920000D02*
X70260000Y-98780000D01*
X56500000Y-98920000D02*
X70120000Y-98920000D01*
X69740000Y-98780000D02*
X70260000Y-98780000D01*
%TO.N,Net-(J4-Pin_5)*%
X70120000Y-96380000D02*
X70260000Y-96240000D01*
X70260000Y-96240000D02*
X56640000Y-96240000D01*
X56640000Y-96240000D02*
X56500000Y-96380000D01*
%TO.N,Net-(J1-Pin_8)*%
X56500000Y-81000000D02*
X70260000Y-81000000D01*
%TO.N,Net-(J3-Pin_6)*%
X85500000Y-106400000D02*
X85520000Y-106420000D01*
X85520000Y-106420000D02*
X98500000Y-106420000D01*
%TO.N,Net-(J1-Pin_1)*%
X70260000Y-63220000D02*
X56500000Y-63220000D01*
%TO.N,Net-(J2-Pin_5)*%
X85500000Y-75920000D02*
X98420000Y-75920000D01*
X98420000Y-75920000D02*
X98500000Y-75840000D01*
%TO.N,Net-(J3-Pin_1)*%
X98480000Y-93700000D02*
X98500000Y-93720000D01*
X85500000Y-93700000D02*
X98480000Y-93700000D01*
%TO.N,Net-(J4-Pin_8)*%
X70260000Y-103860000D02*
X56640000Y-103860000D01*
X56640000Y-103860000D02*
X56500000Y-104000000D01*
X70120000Y-104000000D02*
X70260000Y-103860000D01*
%TO.N,Net-(J4-Pin_4)*%
X70120000Y-93840000D02*
X70260000Y-93700000D01*
X69740000Y-93700000D02*
X70260000Y-93700000D01*
X56500000Y-93840000D02*
X70120000Y-93840000D01*
%TO.N,unconnected-(J7-ID-Pad4)*%
X93500000Y-46493022D02*
X93476743Y-46469765D01*
%TD*%
M02*
