%TF.GenerationSoftware,KiCad,Pcbnew,9.0.1*%
%TF.CreationDate,2025-10-13T20:06:21-07:00*%
%TF.ProjectId,schematic,73636865-6d61-4746-9963-2e6b69636164,rev?*%
%TF.SameCoordinates,Original*%
%TF.FileFunction,Copper,L1,Top*%
%TF.FilePolarity,Positive*%
%FSLAX46Y46*%
G04 Gerber Fmt 4.6, Leading zero omitted, Abs format (unit mm)*
G04 Created by KiCad (PCBNEW 9.0.1) date 2025-10-13 20:06:21*
%MOMM*%
%LPD*%
G01*
G04 APERTURE LIST*
G04 Aperture macros list*
%AMRoundRect*
0 Rectangle with rounded corners*
0 $1 Rounding radius*
0 $2 $3 $4 $5 $6 $7 $8 $9 X,Y pos of 4 corners*
0 Add a 4 corners polygon primitive as box body*
4,1,4,$2,$3,$4,$5,$6,$7,$8,$9,$2,$3,0*
0 Add four circle primitives for the rounded corners*
1,1,$1+$1,$2,$3*
1,1,$1+$1,$4,$5*
1,1,$1+$1,$6,$7*
1,1,$1+$1,$8,$9*
0 Add four rect primitives between the rounded corners*
20,1,$1+$1,$2,$3,$4,$5,0*
20,1,$1+$1,$4,$5,$6,$7,0*
20,1,$1+$1,$6,$7,$8,$9,0*
20,1,$1+$1,$8,$9,$2,$3,0*%
G04 Aperture macros list end*
%TA.AperFunction,Conductor*%
%ADD10C,0.200000*%
%TD*%
%TA.AperFunction,ComponentPad*%
%ADD11RoundRect,0.250000X-0.512000X-0.512000X0.512000X-0.512000X0.512000X0.512000X-0.512000X0.512000X0*%
%TD*%
%TA.AperFunction,ComponentPad*%
%ADD12C,1.524000*%
%TD*%
%TA.AperFunction,ComponentPad*%
%ADD13C,3.500000*%
%TD*%
%TA.AperFunction,ComponentPad*%
%ADD14C,1.600000*%
%TD*%
%TA.AperFunction,ComponentPad*%
%ADD15R,1.700000X1.700000*%
%TD*%
%TA.AperFunction,ComponentPad*%
%ADD16C,1.700000*%
%TD*%
%TA.AperFunction,ComponentPad*%
%ADD17C,2.000000*%
%TD*%
%TA.AperFunction,ComponentPad*%
%ADD18O,1.600000X1.600000*%
%TD*%
%TA.AperFunction,ComponentPad*%
%ADD19C,1.500000*%
%TD*%
%TA.AperFunction,ComponentPad*%
%ADD20R,1.200000X1.200000*%
%TD*%
%TA.AperFunction,ComponentPad*%
%ADD21C,1.200000*%
%TD*%
%TA.AperFunction,ComponentPad*%
%ADD22R,2.000000X1.440000*%
%TD*%
%TA.AperFunction,ComponentPad*%
%ADD23O,2.000000X1.440000*%
%TD*%
%TA.AperFunction,ViaPad*%
%ADD24C,0.600000*%
%TD*%
G04 APERTURE END LIST*
%TO.N,+5V*%
D10*
X51500000Y-17500000D02*
X112000000Y-17500000D01*
X112000000Y-134500000D01*
X51500000Y-134500000D01*
X51500000Y-17500000D01*
%TD*%
D11*
%TO.P,J7,1,VBUS*%
%TO.N,+5V*%
X94000000Y-120567500D03*
D12*
%TO.P,J7,2,D-*%
%TO.N,unconnected-(J7-D--Pad2)*%
X96500000Y-120567500D03*
%TO.P,J7,3,D+*%
%TO.N,unconnected-(J7-D+-Pad3)*%
X98500000Y-120567500D03*
%TO.P,J7,4,GND*%
%TO.N,GND*%
X101000000Y-120567500D03*
D13*
%TO.P,J7,5,Shield*%
X90930000Y-123277500D03*
X104070000Y-123277500D03*
%TD*%
D14*
%TO.P,C2,1*%
%TO.N,Net-(U1-XTAL2)*%
X63050000Y-104500000D03*
%TO.P,C2,2*%
%TO.N,GND*%
X65550000Y-104500000D03*
%TD*%
D15*
%TO.P,J6,1,Pin_1*%
%TO.N,Net-(J6-Pin_1)*%
X98200000Y-69800000D03*
%TD*%
%TO.P,J3,1,Pin_1*%
%TO.N,Net-(J3-Pin_1)*%
X98200000Y-77800000D03*
D16*
%TO.P,J3,2,Pin_2*%
%TO.N,Net-(J3-Pin_2)*%
X98200000Y-80340000D03*
%TO.P,J3,3,Pin_3*%
%TO.N,Net-(J3-Pin_3)*%
X98200000Y-82880000D03*
%TO.P,J3,4,Pin_4*%
%TO.N,Net-(J3-Pin_4)*%
X98200000Y-85420000D03*
%TO.P,J3,5,Pin_5*%
%TO.N,Net-(J3-Pin_5)*%
X98200000Y-87960000D03*
%TO.P,J3,6,Pin_6*%
%TO.N,Net-(J3-Pin_6)*%
X98200000Y-90500000D03*
%TO.P,J3,7,Pin_7*%
%TO.N,Net-(J3-Pin_7)*%
X98200000Y-93040000D03*
%TO.P,J3,8,Pin_8*%
%TO.N,Net-(J3-Pin_8)*%
X98200000Y-95580000D03*
%TD*%
D15*
%TO.P,J2,1,Pin_1*%
%TO.N,Net-(J2-Pin_1)*%
X98200000Y-36420000D03*
D16*
%TO.P,J2,2,Pin_2*%
%TO.N,Net-(J2-Pin_2)*%
X98200000Y-38960000D03*
%TO.P,J2,3,Pin_3*%
%TO.N,Net-(J2-Pin_3)*%
X98200000Y-41500000D03*
%TO.P,J2,4,Pin_4*%
%TO.N,Net-(J2-Pin_4)*%
X98200000Y-44040000D03*
%TO.P,J2,5,Pin_5*%
%TO.N,Net-(J2-Pin_5)*%
X98200000Y-46580000D03*
%TO.P,J2,6,Pin_6*%
%TO.N,Net-(J2-Pin_6)*%
X98200000Y-49120000D03*
%TO.P,J2,7,Pin_7*%
%TO.N,Net-(J2-Pin_7)*%
X98200000Y-51660000D03*
%TO.P,J2,8,Pin_8*%
%TO.N,Net-(J2-Pin_8)*%
X98200000Y-54200000D03*
%TD*%
D15*
%TO.P,J4,1,Pin_1*%
%TO.N,Net-(J4-Pin_1)*%
X61800000Y-77800000D03*
D16*
%TO.P,J4,2,Pin_2*%
%TO.N,Net-(J4-Pin_2)*%
X61800000Y-80340000D03*
%TO.P,J4,3,Pin_3*%
%TO.N,Net-(J4-Pin_3)*%
X61800000Y-82880000D03*
%TO.P,J4,4,Pin_4*%
%TO.N,Net-(J4-Pin_4)*%
X61800000Y-85420000D03*
%TO.P,J4,5,Pin_5*%
%TO.N,Net-(J4-Pin_5)*%
X61800000Y-87960000D03*
%TO.P,J4,6,Pin_6*%
%TO.N,Net-(J4-Pin_6)*%
X61800000Y-90500000D03*
%TO.P,J4,7,Pin_7*%
%TO.N,Net-(J4-Pin_7)*%
X61800000Y-93040000D03*
%TO.P,J4,8,Pin_8*%
%TO.N,Net-(J4-Pin_8)*%
X61800000Y-95580000D03*
%TD*%
D14*
%TO.P,C4,1*%
%TO.N,+5V*%
X90000000Y-30000000D03*
%TO.P,C4,2*%
%TO.N,GND*%
X95000000Y-30000000D03*
%TD*%
D15*
%TO.P,J5,1,Pin_1*%
%TO.N,Net-(J5-Pin_1)*%
X98200000Y-61800000D03*
%TD*%
D17*
%TO.P,SW1,1,1*%
%TO.N,+5V*%
X76750000Y-104750000D03*
X83250000Y-104750000D03*
%TO.P,SW1,2,2*%
%TO.N,Net-(U1-RST)*%
X76750000Y-109250000D03*
X83250000Y-109250000D03*
%TD*%
D14*
%TO.P,C1,1*%
%TO.N,GND*%
X56500000Y-104500000D03*
%TO.P,C1,2*%
%TO.N,Net-(U1-XTAL1)*%
X59000000Y-104500000D03*
%TD*%
D15*
%TO.P,J1,1,Pin_1*%
%TO.N,Net-(J1-Pin_1)*%
X61800000Y-36420000D03*
D16*
%TO.P,J1,2,Pin_2*%
%TO.N,Net-(J1-Pin_2)*%
X61800000Y-38960000D03*
%TO.P,J1,3,Pin_3*%
%TO.N,Net-(J1-Pin_3)*%
X61800000Y-41500000D03*
%TO.P,J1,4,Pin_4*%
%TO.N,Net-(J1-Pin_4)*%
X61800000Y-44040000D03*
%TO.P,J1,5,Pin_5*%
%TO.N,Net-(J1-Pin_5)*%
X61800000Y-46580000D03*
%TO.P,J1,6,Pin_6*%
%TO.N,Net-(J1-Pin_6)*%
X61800000Y-49120000D03*
%TO.P,J1,7,Pin_7*%
%TO.N,Net-(J1-Pin_7)*%
X61800000Y-51660000D03*
%TO.P,J1,8,Pin_8*%
%TO.N,Net-(J1-Pin_8)*%
X61800000Y-54200000D03*
%TD*%
D14*
%TO.P,R1,1*%
%TO.N,GND*%
X76000000Y-127350000D03*
D18*
%TO.P,R1,2*%
%TO.N,Net-(U1-RST)*%
X76000000Y-114650000D03*
%TD*%
D19*
%TO.P,Y1,1,1*%
%TO.N,Net-(U1-XTAL1)*%
X58000000Y-109000000D03*
%TO.P,Y1,2,2*%
%TO.N,Net-(U1-XTAL2)*%
X62900000Y-109000000D03*
%TD*%
D20*
%TO.P,C3,1*%
%TO.N,Net-(U1-RST)*%
X90000000Y-112000000D03*
D21*
%TO.P,C3,2*%
%TO.N,+5V*%
X92000000Y-112000000D03*
%TD*%
D22*
%TO.P,U1,1,P1.0*%
%TO.N,Net-(J1-Pin_1)*%
X72260000Y-45000000D03*
D23*
%TO.P,U1,2,P1.1*%
%TO.N,Net-(J1-Pin_2)*%
X72260000Y-47540000D03*
%TO.P,U1,3,P1.2*%
%TO.N,Net-(J1-Pin_3)*%
X72260000Y-50080000D03*
%TO.P,U1,4,P1.3*%
%TO.N,Net-(J1-Pin_4)*%
X72260000Y-52620000D03*
%TO.P,U1,5,P1.4*%
%TO.N,Net-(J1-Pin_5)*%
X72260000Y-55160000D03*
%TO.P,U1,6,P1.5*%
%TO.N,Net-(J1-Pin_6)*%
X72260000Y-57700000D03*
%TO.P,U1,7,P1.6*%
%TO.N,Net-(J1-Pin_7)*%
X72260000Y-60240000D03*
%TO.P,U1,8,P1.7*%
%TO.N,Net-(J1-Pin_8)*%
X72260000Y-62780000D03*
%TO.P,U1,9,RST*%
%TO.N,Net-(U1-RST)*%
X72260000Y-65320000D03*
%TO.P,U1,10,P3.0*%
%TO.N,Net-(J4-Pin_1)*%
X72260000Y-67860000D03*
%TO.P,U1,11,P3.1*%
%TO.N,Net-(J4-Pin_2)*%
X72260000Y-70400000D03*
%TO.P,U1,12,P3.2*%
%TO.N,Net-(J4-Pin_3)*%
X72260000Y-72940000D03*
%TO.P,U1,13,P3.3*%
%TO.N,Net-(J4-Pin_4)*%
X72260000Y-75480000D03*
%TO.P,U1,14,P3.4*%
%TO.N,Net-(J4-Pin_5)*%
X72260000Y-78020000D03*
%TO.P,U1,15,P3.5*%
%TO.N,Net-(J4-Pin_6)*%
X72260000Y-80560000D03*
%TO.P,U1,16,P3.6*%
%TO.N,Net-(J4-Pin_7)*%
X72260000Y-83100000D03*
%TO.P,U1,17,P3.7*%
%TO.N,Net-(J4-Pin_8)*%
X72260000Y-85640000D03*
%TO.P,U1,18,XTAL2*%
%TO.N,Net-(U1-XTAL2)*%
X72260000Y-88180000D03*
%TO.P,U1,19,XTAL1*%
%TO.N,Net-(U1-XTAL1)*%
X72260000Y-90720000D03*
%TO.P,U1,20,GND*%
%TO.N,GND*%
X72260000Y-93260000D03*
%TO.P,U1,21,P2.0*%
%TO.N,Net-(J3-Pin_8)*%
X87500000Y-93260000D03*
%TO.P,U1,22,P2.1*%
%TO.N,Net-(J3-Pin_7)*%
X87500000Y-90720000D03*
%TO.P,U1,23,P2.2*%
%TO.N,Net-(J3-Pin_6)*%
X87500000Y-88180000D03*
%TO.P,U1,24,P2.3*%
%TO.N,Net-(J3-Pin_5)*%
X87500000Y-85640000D03*
%TO.P,U1,25,P2.4*%
%TO.N,Net-(J3-Pin_4)*%
X87500000Y-83100000D03*
%TO.P,U1,26,P2.5*%
%TO.N,Net-(J3-Pin_3)*%
X87500000Y-80560000D03*
%TO.P,U1,27,P2.6*%
%TO.N,Net-(J3-Pin_2)*%
X87500000Y-78020000D03*
%TO.P,U1,28,P2.7*%
%TO.N,Net-(J3-Pin_1)*%
X87500000Y-75480000D03*
%TO.P,U1,29,~{PSEN}*%
%TO.N,Net-(J6-Pin_1)*%
X87500000Y-72940000D03*
%TO.P,U1,30,ALE/~{PROG}*%
%TO.N,Net-(J5-Pin_1)*%
X87500000Y-70400000D03*
%TO.P,U1,31,~{EA}/VPP*%
%TO.N,GND*%
X87500000Y-67860000D03*
%TO.P,U1,32,P0.7*%
%TO.N,Net-(J2-Pin_8)*%
X87500000Y-65320000D03*
%TO.P,U1,33,P0.6*%
%TO.N,Net-(J2-Pin_7)*%
X87500000Y-62780000D03*
%TO.P,U1,34,P0.5*%
%TO.N,Net-(J2-Pin_6)*%
X87500000Y-60240000D03*
%TO.P,U1,35,P0.4*%
%TO.N,Net-(J2-Pin_5)*%
X87500000Y-57700000D03*
%TO.P,U1,36,P0.3*%
%TO.N,Net-(J2-Pin_4)*%
X87500000Y-55160000D03*
%TO.P,U1,37,P0.2*%
%TO.N,Net-(J2-Pin_3)*%
X87500000Y-52620000D03*
%TO.P,U1,38,P0.1*%
%TO.N,Net-(J2-Pin_2)*%
X87500000Y-50080000D03*
%TO.P,U1,39,P0.0*%
%TO.N,Net-(J2-Pin_1)*%
X87500000Y-47540000D03*
%TO.P,U1,40,VCC*%
%TO.N,+5V*%
X87500000Y-45000000D03*
%TD*%
D24*
%TO.N,GND*%
X84500000Y-68000000D03*
%TO.N,+5V*%
X109000000Y-26000000D03*
X109000000Y-113500000D03*
%TD*%
D10*
%TO.N,+5V*%
X94000000Y-120567500D02*
X94000000Y-113000000D01*
X94000000Y-113000000D02*
X95000000Y-112000000D01*
X92000000Y-110000000D02*
X91000000Y-109000000D01*
X87500000Y-109000000D02*
X83250000Y-104750000D01*
X92000000Y-112000000D02*
X92000000Y-110000000D01*
X91000000Y-109000000D02*
X87500000Y-109000000D01*
%TO.N,Net-(U1-RST)*%
X83250000Y-109250000D02*
X86000000Y-112000000D01*
X86000000Y-112000000D02*
X90000000Y-112000000D01*
%TO.N,+5V*%
X92000000Y-112000000D02*
X95000000Y-112000000D01*
X95000000Y-112000000D02*
X107500000Y-112000000D01*
X107500000Y-112000000D02*
X109000000Y-113500000D01*
%TO.N,Net-(U1-XTAL2)*%
X62900000Y-109000000D02*
X62900000Y-104650000D01*
X62900000Y-104650000D02*
X63050000Y-104500000D01*
%TO.N,Net-(U1-XTAL1)*%
X58000000Y-109000000D02*
X59000000Y-108000000D01*
X59000000Y-108000000D02*
X59000000Y-104500000D01*
%TO.N,Net-(U1-RST)*%
X74500000Y-107000000D02*
X76750000Y-109250000D01*
X72260000Y-65320000D02*
X73320000Y-65320000D01*
X76000000Y-110000000D02*
X76750000Y-109250000D01*
X83250000Y-109250000D02*
X76750000Y-109250000D01*
X73320000Y-65320000D02*
X74500000Y-66500000D01*
X74500000Y-66500000D02*
X74500000Y-107000000D01*
X76000000Y-114650000D02*
X76000000Y-110000000D01*
%TO.N,Net-(J4-Pin_2)*%
X61800000Y-80340000D02*
X71740000Y-70400000D01*
X71740000Y-70400000D02*
X72260000Y-70400000D01*
%TO.N,Net-(J3-Pin_4)*%
X90100000Y-83100000D02*
X87500000Y-83100000D01*
X98200000Y-85420000D02*
X92420000Y-85420000D01*
X92420000Y-85420000D02*
X90100000Y-83100000D01*
%TO.N,Net-(J3-Pin_2)*%
X92340000Y-80340000D02*
X90020000Y-78020000D01*
X90020000Y-78020000D02*
X87500000Y-78020000D01*
X98200000Y-80340000D02*
X92340000Y-80340000D01*
%TO.N,Net-(J1-Pin_5)*%
X72260000Y-55160000D02*
X69160000Y-55160000D01*
X69160000Y-55160000D02*
X68500000Y-54500000D01*
X68500000Y-54500000D02*
X68500000Y-53280000D01*
X68500000Y-53280000D02*
X61800000Y-46580000D01*
%TO.N,Net-(J2-Pin_4)*%
X87500000Y-55160000D02*
X91736000Y-55160000D01*
X91736000Y-55160000D02*
X92396000Y-54500000D01*
X92396000Y-54500000D02*
X92396000Y-49844000D01*
X92396000Y-49844000D02*
X98200000Y-44040000D01*
%TO.N,Net-(J1-Pin_6)*%
X72260000Y-57700000D02*
X68700000Y-57700000D01*
X68500000Y-55820000D02*
X61800000Y-49120000D01*
X68700000Y-57700000D02*
X68500000Y-57500000D01*
X68500000Y-57500000D02*
X68500000Y-55820000D01*
%TO.N,Net-(J4-Pin_1)*%
X71740000Y-67860000D02*
X72260000Y-67860000D01*
X61800000Y-77800000D02*
X71740000Y-67860000D01*
%TO.N,Net-(U1-XTAL1)*%
X72260000Y-91240000D02*
X59000000Y-104500000D01*
X72260000Y-90720000D02*
X72260000Y-91240000D01*
%TO.N,Net-(U1-XTAL2)*%
X74000000Y-89000000D02*
X73080000Y-89000000D01*
X63050000Y-104500000D02*
X74000000Y-93550000D01*
X74000000Y-93550000D02*
X74000000Y-89000000D01*
X73080000Y-89000000D02*
X72260000Y-88180000D01*
%TO.N,Net-(J2-Pin_7)*%
X93599000Y-62500000D02*
X93599000Y-56261000D01*
X93319000Y-62780000D02*
X93599000Y-62500000D01*
X87500000Y-62780000D02*
X93319000Y-62780000D01*
X93599000Y-56261000D02*
X98200000Y-51660000D01*
%TO.N,Net-(J3-Pin_5)*%
X98200000Y-87960000D02*
X91960000Y-87960000D01*
X89640000Y-85640000D02*
X87500000Y-85640000D01*
X91960000Y-87960000D02*
X89640000Y-85640000D01*
%TO.N,Net-(J1-Pin_2)*%
X70040000Y-47540000D02*
X68500000Y-46000000D01*
X68500000Y-46000000D02*
X68500000Y-45660000D01*
X68500000Y-45660000D02*
X61800000Y-38960000D01*
X72260000Y-47540000D02*
X70040000Y-47540000D01*
%TO.N,Net-(J2-Pin_6)*%
X93198000Y-60000000D02*
X93198000Y-54122000D01*
X87500000Y-60240000D02*
X92958000Y-60240000D01*
X92958000Y-60240000D02*
X93198000Y-60000000D01*
X93198000Y-54122000D02*
X98200000Y-49120000D01*
%TO.N,Net-(J1-Pin_7)*%
X72260000Y-60240000D02*
X68740000Y-60240000D01*
X68500000Y-58360000D02*
X61800000Y-51660000D01*
X68740000Y-60240000D02*
X68500000Y-60000000D01*
X68500000Y-60000000D02*
X68500000Y-58360000D01*
%TO.N,GND*%
X87500000Y-67860000D02*
X84640000Y-67860000D01*
X84640000Y-67860000D02*
X84500000Y-68000000D01*
%TO.N,Net-(J1-Pin_4)*%
X68500000Y-51500000D02*
X68500000Y-50740000D01*
X69620000Y-52620000D02*
X68500000Y-51500000D01*
X68500000Y-50740000D02*
X61800000Y-44040000D01*
X72260000Y-52620000D02*
X69620000Y-52620000D01*
%TO.N,Net-(J5-Pin_1)*%
X94500000Y-64500000D02*
X97200000Y-61800000D01*
X87500000Y-70400000D02*
X91100000Y-70400000D01*
X91100000Y-70400000D02*
X94500000Y-67000000D01*
X97200000Y-61800000D02*
X98200000Y-61800000D01*
X94500000Y-67000000D02*
X94500000Y-64500000D01*
%TO.N,Net-(J1-Pin_3)*%
X68500000Y-49500000D02*
X68500000Y-48200000D01*
X68500000Y-48200000D02*
X61800000Y-41500000D01*
X72260000Y-50080000D02*
X69080000Y-50080000D01*
X69080000Y-50080000D02*
X68500000Y-49500000D01*
%TO.N,+5V*%
X76750000Y-104750000D02*
X83250000Y-104750000D01*
X87500000Y-32500000D02*
X90000000Y-30000000D01*
X87500000Y-45000000D02*
X87500000Y-32500000D01*
X94000000Y-26000000D02*
X90000000Y-30000000D01*
X109000000Y-26000000D02*
X94000000Y-26000000D01*
%TO.N,Net-(J2-Pin_1)*%
X90153000Y-47540000D02*
X91193000Y-46500000D01*
X91193000Y-46500000D02*
X91193000Y-43427000D01*
X91193000Y-43427000D02*
X98200000Y-36420000D01*
X87500000Y-47540000D02*
X90153000Y-47540000D01*
%TO.N,Net-(J4-Pin_3)*%
X61800000Y-82880000D02*
X71740000Y-72940000D01*
X71740000Y-72940000D02*
X72260000Y-72940000D01*
%TO.N,Net-(J3-Pin_7)*%
X89220000Y-90720000D02*
X87500000Y-90720000D01*
X98200000Y-93040000D02*
X91540000Y-93040000D01*
X91540000Y-93040000D02*
X89220000Y-90720000D01*
%TO.N,Net-(J2-Pin_3)*%
X87500000Y-52620000D02*
X91375000Y-52620000D01*
X91995000Y-47705000D02*
X98200000Y-41500000D01*
X91995000Y-52000000D02*
X91995000Y-47705000D01*
X91375000Y-52620000D02*
X91995000Y-52000000D01*
%TO.N,Net-(J2-Pin_2)*%
X91594000Y-45566000D02*
X98200000Y-38960000D01*
X90514000Y-50080000D02*
X91594000Y-49000000D01*
X91594000Y-49000000D02*
X91594000Y-45566000D01*
X87500000Y-50080000D02*
X90514000Y-50080000D01*
%TO.N,Net-(J4-Pin_7)*%
X61800000Y-93040000D02*
X71740000Y-83100000D01*
X71740000Y-83100000D02*
X72260000Y-83100000D01*
%TO.N,Net-(J2-Pin_8)*%
X94000000Y-65000000D02*
X94000000Y-58400000D01*
X93680000Y-65320000D02*
X94000000Y-65000000D01*
X94000000Y-58400000D02*
X98200000Y-54200000D01*
X87500000Y-65320000D02*
X93680000Y-65320000D01*
%TO.N,Net-(J6-Pin_1)*%
X98200000Y-69800000D02*
X94700000Y-69800000D01*
X91560000Y-72940000D02*
X87500000Y-72940000D01*
X94700000Y-69800000D02*
X91560000Y-72940000D01*
%TO.N,Net-(J3-Pin_3)*%
X91880000Y-82880000D02*
X89560000Y-80560000D01*
X98200000Y-82880000D02*
X91880000Y-82880000D01*
X89560000Y-80560000D02*
X87500000Y-80560000D01*
%TO.N,Net-(J3-Pin_8)*%
X89260000Y-93260000D02*
X87500000Y-93260000D01*
X91580000Y-95580000D02*
X89260000Y-93260000D01*
X98200000Y-95580000D02*
X91580000Y-95580000D01*
%TO.N,Net-(J4-Pin_6)*%
X61800000Y-90500000D02*
X71740000Y-80560000D01*
X71740000Y-80560000D02*
X72260000Y-80560000D01*
%TO.N,Net-(J4-Pin_5)*%
X71740000Y-78020000D02*
X72260000Y-78020000D01*
X61800000Y-87960000D02*
X71740000Y-78020000D01*
%TO.N,Net-(J1-Pin_8)*%
X68500000Y-62000000D02*
X68500000Y-60900000D01*
X68500000Y-60900000D02*
X61800000Y-54200000D01*
X72260000Y-62780000D02*
X69280000Y-62780000D01*
X69280000Y-62780000D02*
X68500000Y-62000000D01*
%TO.N,Net-(J3-Pin_6)*%
X91500000Y-90500000D02*
X89180000Y-88180000D01*
X98200000Y-90500000D02*
X91500000Y-90500000D01*
X89180000Y-88180000D02*
X87500000Y-88180000D01*
%TO.N,Net-(J1-Pin_1)*%
X72260000Y-45000000D02*
X70000000Y-45000000D01*
X70000000Y-45000000D02*
X61800000Y-36800000D01*
X61800000Y-36800000D02*
X61800000Y-36420000D01*
%TO.N,Net-(J2-Pin_5)*%
X92797000Y-57500000D02*
X92797000Y-51983000D01*
X92797000Y-51983000D02*
X98200000Y-46580000D01*
X92597000Y-57700000D02*
X92797000Y-57500000D01*
X87500000Y-57700000D02*
X92597000Y-57700000D01*
%TO.N,Net-(J3-Pin_1)*%
X98200000Y-77800000D02*
X92300000Y-77800000D01*
X89980000Y-75480000D02*
X87500000Y-75480000D01*
X92300000Y-77800000D02*
X89980000Y-75480000D01*
%TO.N,Net-(J4-Pin_8)*%
X61800000Y-95580000D02*
X71740000Y-85640000D01*
X71740000Y-85640000D02*
X72260000Y-85640000D01*
%TO.N,Net-(J4-Pin_4)*%
X61800000Y-85420000D02*
X71740000Y-75480000D01*
X71740000Y-75480000D02*
X72260000Y-75480000D01*
%TD*%
M02*
