M48
; DRILL file {KiCad 9.0.5} date 2025-10-17T15:18:03-0700
; FORMAT={-:-/ absolute / metric / decimal}
; #@! TF.CreationDate,2025-10-17T15:18:03-07:00
; #@! TF.GenerationSoftware,Kicad,Pcbnew,9.0.5
; #@! TF.FileFunction,Plated,1,2,PTH
FMAT,2
METRIC
; #@! TA.AperFunction,Plated,PTH,ComponentDrill
T1C0.600
; #@! TA.AperFunction,Plated,PTH,ComponentDrill
T2C0.800
; #@! TA.AperFunction,Plated,PTH,ComponentDrill
T3C0.920
; #@! TA.AperFunction,Plated,PTH,ComponentDrill
T4C1.000
; #@! TA.AperFunction,Plated,PTH,ComponentDrill
T5C1.100
; #@! TA.AperFunction,Plated,PTH,ComponentDrill
T6C2.300
%
G90
G05
T1
X92.0Y-53.5
X94.0Y-53.5
T2
X68.5Y-125.6
X68.5Y-130.5
X71.65Y-37.5
X72.991Y-123.094
X72.991Y-125.594
X73.0Y-130.5
X73.0Y-133.0
X84.35Y-37.5
X94.0Y-59.0
X94.0Y-64.0
T3
X93.465Y-46.448
X95.965Y-46.448
X97.965Y-46.448
X100.465Y-46.448
T4
X56.5Y-63.22
X56.5Y-65.76
X56.5Y-68.3
X56.5Y-70.84
X56.5Y-73.38
X56.5Y-75.92
X56.5Y-78.46
X56.5Y-81.0
X56.5Y-86.22
X56.5Y-88.76
X56.5Y-91.3
X56.5Y-93.84
X56.5Y-96.38
X56.5Y-98.92
X56.5Y-101.46
X56.5Y-104.0
X70.26Y-63.22
X70.26Y-65.76
X70.26Y-68.3
X70.26Y-70.84
X70.26Y-73.38
X70.26Y-75.92
X70.26Y-78.46
X70.26Y-81.0
X70.26Y-83.54
X70.26Y-86.08
X70.26Y-88.62
X70.26Y-91.16
X70.26Y-93.7
X70.26Y-96.24
X70.26Y-98.78
X70.26Y-101.32
X70.26Y-103.86
X70.26Y-106.4
X70.26Y-108.94
X70.26Y-111.48
X85.5Y-63.22
X85.5Y-65.76
X85.5Y-68.3
X85.5Y-70.84
X85.5Y-73.38
X85.5Y-75.92
X85.5Y-78.46
X85.5Y-81.0
X85.5Y-83.54
X85.5Y-86.08
X85.5Y-88.62
X85.5Y-91.16
X85.5Y-93.7
X85.5Y-96.24
X85.5Y-98.78
X85.5Y-101.32
X85.5Y-103.86
X85.5Y-106.4
X85.5Y-108.94
X85.5Y-111.48
X98.5Y-65.68
X98.5Y-68.22
X98.5Y-70.76
X98.5Y-73.3
X98.5Y-75.84
X98.5Y-78.38
X98.5Y-80.92
X98.5Y-83.46
X98.5Y-93.72
X98.5Y-96.26
X98.5Y-98.8
X98.5Y-101.34
X98.5Y-103.88
X98.5Y-106.42
X98.5Y-108.96
X98.5Y-111.5
X102.5Y-84.72
X102.5Y-90.72
T5
X75.0Y-43.5
X75.0Y-48.0
X81.5Y-43.5
X81.5Y-48.0
T6
X90.395Y-43.738
X103.535Y-43.738
M30
