%TF.GenerationSoftware,KiCad,Pcbnew,9.0.1*%
%TF.CreationDate,2025-10-13T20:06:21-07:00*%
%TF.ProjectId,schematic,73636865-6d61-4746-9963-2e6b69636164,rev?*%
%TF.SameCoordinates,Original*%
%TF.FileFunction,Legend,Top*%
%TF.FilePolarity,Positive*%
%FSLAX46Y46*%
G04 Gerber Fmt 4.6, Leading zero omitted, Abs format (unit mm)*
G04 Created by KiCad (PCBNEW 9.0.1) date 2025-10-13 20:06:21*
%MOMM*%
%LPD*%
G01*
G04 APERTURE LIST*
%ADD10C,0.150000*%
%ADD11C,0.120000*%
G04 APERTURE END LIST*
D10*
X96234647Y-19364216D02*
X96710837Y-19364216D01*
X96139409Y-19649931D02*
X96472742Y-18649931D01*
X96472742Y-18649931D02*
X96806075Y-19649931D01*
X96996552Y-18649931D02*
X97567980Y-18649931D01*
X97282266Y-19649931D02*
X97282266Y-18649931D01*
X98044171Y-19078502D02*
X97948933Y-19030883D01*
X97948933Y-19030883D02*
X97901314Y-18983264D01*
X97901314Y-18983264D02*
X97853695Y-18888026D01*
X97853695Y-18888026D02*
X97853695Y-18840407D01*
X97853695Y-18840407D02*
X97901314Y-18745169D01*
X97901314Y-18745169D02*
X97948933Y-18697550D01*
X97948933Y-18697550D02*
X98044171Y-18649931D01*
X98044171Y-18649931D02*
X98234647Y-18649931D01*
X98234647Y-18649931D02*
X98329885Y-18697550D01*
X98329885Y-18697550D02*
X98377504Y-18745169D01*
X98377504Y-18745169D02*
X98425123Y-18840407D01*
X98425123Y-18840407D02*
X98425123Y-18888026D01*
X98425123Y-18888026D02*
X98377504Y-18983264D01*
X98377504Y-18983264D02*
X98329885Y-19030883D01*
X98329885Y-19030883D02*
X98234647Y-19078502D01*
X98234647Y-19078502D02*
X98044171Y-19078502D01*
X98044171Y-19078502D02*
X97948933Y-19126121D01*
X97948933Y-19126121D02*
X97901314Y-19173740D01*
X97901314Y-19173740D02*
X97853695Y-19268978D01*
X97853695Y-19268978D02*
X97853695Y-19459454D01*
X97853695Y-19459454D02*
X97901314Y-19554692D01*
X97901314Y-19554692D02*
X97948933Y-19602312D01*
X97948933Y-19602312D02*
X98044171Y-19649931D01*
X98044171Y-19649931D02*
X98234647Y-19649931D01*
X98234647Y-19649931D02*
X98329885Y-19602312D01*
X98329885Y-19602312D02*
X98377504Y-19554692D01*
X98377504Y-19554692D02*
X98425123Y-19459454D01*
X98425123Y-19459454D02*
X98425123Y-19268978D01*
X98425123Y-19268978D02*
X98377504Y-19173740D01*
X98377504Y-19173740D02*
X98329885Y-19126121D01*
X98329885Y-19126121D02*
X98234647Y-19078502D01*
X98901314Y-19649931D02*
X99091790Y-19649931D01*
X99091790Y-19649931D02*
X99187028Y-19602312D01*
X99187028Y-19602312D02*
X99234647Y-19554692D01*
X99234647Y-19554692D02*
X99329885Y-19411835D01*
X99329885Y-19411835D02*
X99377504Y-19221359D01*
X99377504Y-19221359D02*
X99377504Y-18840407D01*
X99377504Y-18840407D02*
X99329885Y-18745169D01*
X99329885Y-18745169D02*
X99282266Y-18697550D01*
X99282266Y-18697550D02*
X99187028Y-18649931D01*
X99187028Y-18649931D02*
X98996552Y-18649931D01*
X98996552Y-18649931D02*
X98901314Y-18697550D01*
X98901314Y-18697550D02*
X98853695Y-18745169D01*
X98853695Y-18745169D02*
X98806076Y-18840407D01*
X98806076Y-18840407D02*
X98806076Y-19078502D01*
X98806076Y-19078502D02*
X98853695Y-19173740D01*
X98853695Y-19173740D02*
X98901314Y-19221359D01*
X98901314Y-19221359D02*
X98996552Y-19268978D01*
X98996552Y-19268978D02*
X99187028Y-19268978D01*
X99187028Y-19268978D02*
X99282266Y-19221359D01*
X99282266Y-19221359D02*
X99329885Y-19173740D01*
X99329885Y-19173740D02*
X99377504Y-19078502D01*
X99758457Y-19602312D02*
X99901314Y-19649931D01*
X99901314Y-19649931D02*
X100139409Y-19649931D01*
X100139409Y-19649931D02*
X100234647Y-19602312D01*
X100234647Y-19602312D02*
X100282266Y-19554692D01*
X100282266Y-19554692D02*
X100329885Y-19459454D01*
X100329885Y-19459454D02*
X100329885Y-19364216D01*
X100329885Y-19364216D02*
X100282266Y-19268978D01*
X100282266Y-19268978D02*
X100234647Y-19221359D01*
X100234647Y-19221359D02*
X100139409Y-19173740D01*
X100139409Y-19173740D02*
X99948933Y-19126121D01*
X99948933Y-19126121D02*
X99853695Y-19078502D01*
X99853695Y-19078502D02*
X99806076Y-19030883D01*
X99806076Y-19030883D02*
X99758457Y-18935645D01*
X99758457Y-18935645D02*
X99758457Y-18840407D01*
X99758457Y-18840407D02*
X99806076Y-18745169D01*
X99806076Y-18745169D02*
X99853695Y-18697550D01*
X99853695Y-18697550D02*
X99948933Y-18649931D01*
X99948933Y-18649931D02*
X100187028Y-18649931D01*
X100187028Y-18649931D02*
X100329885Y-18697550D01*
X101234647Y-18649931D02*
X100758457Y-18649931D01*
X100758457Y-18649931D02*
X100710838Y-19126121D01*
X100710838Y-19126121D02*
X100758457Y-19078502D01*
X100758457Y-19078502D02*
X100853695Y-19030883D01*
X100853695Y-19030883D02*
X101091790Y-19030883D01*
X101091790Y-19030883D02*
X101187028Y-19078502D01*
X101187028Y-19078502D02*
X101234647Y-19126121D01*
X101234647Y-19126121D02*
X101282266Y-19221359D01*
X101282266Y-19221359D02*
X101282266Y-19459454D01*
X101282266Y-19459454D02*
X101234647Y-19554692D01*
X101234647Y-19554692D02*
X101187028Y-19602312D01*
X101187028Y-19602312D02*
X101091790Y-19649931D01*
X101091790Y-19649931D02*
X100853695Y-19649931D01*
X100853695Y-19649931D02*
X100758457Y-19602312D01*
X100758457Y-19602312D02*
X100710838Y-19554692D01*
X101663219Y-18745169D02*
X101710838Y-18697550D01*
X101710838Y-18697550D02*
X101806076Y-18649931D01*
X101806076Y-18649931D02*
X102044171Y-18649931D01*
X102044171Y-18649931D02*
X102139409Y-18697550D01*
X102139409Y-18697550D02*
X102187028Y-18745169D01*
X102187028Y-18745169D02*
X102234647Y-18840407D01*
X102234647Y-18840407D02*
X102234647Y-18935645D01*
X102234647Y-18935645D02*
X102187028Y-19078502D01*
X102187028Y-19078502D02*
X101615600Y-19649931D01*
X101615600Y-19649931D02*
X102234647Y-19649931D01*
X103425124Y-19649931D02*
X103425124Y-18649931D01*
X103425124Y-18649931D02*
X103663219Y-18649931D01*
X103663219Y-18649931D02*
X103806076Y-18697550D01*
X103806076Y-18697550D02*
X103901314Y-18792788D01*
X103901314Y-18792788D02*
X103948933Y-18888026D01*
X103948933Y-18888026D02*
X103996552Y-19078502D01*
X103996552Y-19078502D02*
X103996552Y-19221359D01*
X103996552Y-19221359D02*
X103948933Y-19411835D01*
X103948933Y-19411835D02*
X103901314Y-19507073D01*
X103901314Y-19507073D02*
X103806076Y-19602312D01*
X103806076Y-19602312D02*
X103663219Y-19649931D01*
X103663219Y-19649931D02*
X103425124Y-19649931D01*
X104806076Y-19602312D02*
X104710838Y-19649931D01*
X104710838Y-19649931D02*
X104520362Y-19649931D01*
X104520362Y-19649931D02*
X104425124Y-19602312D01*
X104425124Y-19602312D02*
X104377505Y-19507073D01*
X104377505Y-19507073D02*
X104377505Y-19126121D01*
X104377505Y-19126121D02*
X104425124Y-19030883D01*
X104425124Y-19030883D02*
X104520362Y-18983264D01*
X104520362Y-18983264D02*
X104710838Y-18983264D01*
X104710838Y-18983264D02*
X104806076Y-19030883D01*
X104806076Y-19030883D02*
X104853695Y-19126121D01*
X104853695Y-19126121D02*
X104853695Y-19221359D01*
X104853695Y-19221359D02*
X104377505Y-19316597D01*
X105187029Y-18983264D02*
X105425124Y-19649931D01*
X105425124Y-19649931D02*
X105663219Y-18983264D01*
X107139410Y-19126121D02*
X107282267Y-19173740D01*
X107282267Y-19173740D02*
X107329886Y-19221359D01*
X107329886Y-19221359D02*
X107377505Y-19316597D01*
X107377505Y-19316597D02*
X107377505Y-19459454D01*
X107377505Y-19459454D02*
X107329886Y-19554692D01*
X107329886Y-19554692D02*
X107282267Y-19602312D01*
X107282267Y-19602312D02*
X107187029Y-19649931D01*
X107187029Y-19649931D02*
X106806077Y-19649931D01*
X106806077Y-19649931D02*
X106806077Y-18649931D01*
X106806077Y-18649931D02*
X107139410Y-18649931D01*
X107139410Y-18649931D02*
X107234648Y-18697550D01*
X107234648Y-18697550D02*
X107282267Y-18745169D01*
X107282267Y-18745169D02*
X107329886Y-18840407D01*
X107329886Y-18840407D02*
X107329886Y-18935645D01*
X107329886Y-18935645D02*
X107282267Y-19030883D01*
X107282267Y-19030883D02*
X107234648Y-19078502D01*
X107234648Y-19078502D02*
X107139410Y-19126121D01*
X107139410Y-19126121D02*
X106806077Y-19126121D01*
X107948934Y-19649931D02*
X107853696Y-19602312D01*
X107853696Y-19602312D02*
X107806077Y-19554692D01*
X107806077Y-19554692D02*
X107758458Y-19459454D01*
X107758458Y-19459454D02*
X107758458Y-19173740D01*
X107758458Y-19173740D02*
X107806077Y-19078502D01*
X107806077Y-19078502D02*
X107853696Y-19030883D01*
X107853696Y-19030883D02*
X107948934Y-18983264D01*
X107948934Y-18983264D02*
X108091791Y-18983264D01*
X108091791Y-18983264D02*
X108187029Y-19030883D01*
X108187029Y-19030883D02*
X108234648Y-19078502D01*
X108234648Y-19078502D02*
X108282267Y-19173740D01*
X108282267Y-19173740D02*
X108282267Y-19459454D01*
X108282267Y-19459454D02*
X108234648Y-19554692D01*
X108234648Y-19554692D02*
X108187029Y-19602312D01*
X108187029Y-19602312D02*
X108091791Y-19649931D01*
X108091791Y-19649931D02*
X107948934Y-19649931D01*
X109139410Y-19649931D02*
X109139410Y-19126121D01*
X109139410Y-19126121D02*
X109091791Y-19030883D01*
X109091791Y-19030883D02*
X108996553Y-18983264D01*
X108996553Y-18983264D02*
X108806077Y-18983264D01*
X108806077Y-18983264D02*
X108710839Y-19030883D01*
X109139410Y-19602312D02*
X109044172Y-19649931D01*
X109044172Y-19649931D02*
X108806077Y-19649931D01*
X108806077Y-19649931D02*
X108710839Y-19602312D01*
X108710839Y-19602312D02*
X108663220Y-19507073D01*
X108663220Y-19507073D02*
X108663220Y-19411835D01*
X108663220Y-19411835D02*
X108710839Y-19316597D01*
X108710839Y-19316597D02*
X108806077Y-19268978D01*
X108806077Y-19268978D02*
X109044172Y-19268978D01*
X109044172Y-19268978D02*
X109139410Y-19221359D01*
X109615601Y-19649931D02*
X109615601Y-18983264D01*
X109615601Y-19173740D02*
X109663220Y-19078502D01*
X109663220Y-19078502D02*
X109710839Y-19030883D01*
X109710839Y-19030883D02*
X109806077Y-18983264D01*
X109806077Y-18983264D02*
X109901315Y-18983264D01*
X110663220Y-19649931D02*
X110663220Y-18649931D01*
X110663220Y-19602312D02*
X110567982Y-19649931D01*
X110567982Y-19649931D02*
X110377506Y-19649931D01*
X110377506Y-19649931D02*
X110282268Y-19602312D01*
X110282268Y-19602312D02*
X110234649Y-19554692D01*
X110234649Y-19554692D02*
X110187030Y-19459454D01*
X110187030Y-19459454D02*
X110187030Y-19173740D01*
X110187030Y-19173740D02*
X110234649Y-19078502D01*
X110234649Y-19078502D02*
X110282268Y-19030883D01*
X110282268Y-19030883D02*
X110377506Y-18983264D01*
X110377506Y-18983264D02*
X110567982Y-18983264D01*
X110567982Y-18983264D02*
X110663220Y-19030883D01*
X106472745Y-20593208D02*
X106710840Y-21259875D01*
X106710840Y-21259875D02*
X106948935Y-20593208D01*
X107853697Y-21259875D02*
X107282269Y-21259875D01*
X107567983Y-21259875D02*
X107567983Y-20259875D01*
X107567983Y-20259875D02*
X107472745Y-20402732D01*
X107472745Y-20402732D02*
X107377507Y-20497970D01*
X107377507Y-20497970D02*
X107282269Y-20545589D01*
X108282269Y-21164636D02*
X108329888Y-21212256D01*
X108329888Y-21212256D02*
X108282269Y-21259875D01*
X108282269Y-21259875D02*
X108234650Y-21212256D01*
X108234650Y-21212256D02*
X108282269Y-21164636D01*
X108282269Y-21164636D02*
X108282269Y-21259875D01*
X108948935Y-20259875D02*
X109044173Y-20259875D01*
X109044173Y-20259875D02*
X109139411Y-20307494D01*
X109139411Y-20307494D02*
X109187030Y-20355113D01*
X109187030Y-20355113D02*
X109234649Y-20450351D01*
X109234649Y-20450351D02*
X109282268Y-20640827D01*
X109282268Y-20640827D02*
X109282268Y-20878922D01*
X109282268Y-20878922D02*
X109234649Y-21069398D01*
X109234649Y-21069398D02*
X109187030Y-21164636D01*
X109187030Y-21164636D02*
X109139411Y-21212256D01*
X109139411Y-21212256D02*
X109044173Y-21259875D01*
X109044173Y-21259875D02*
X108948935Y-21259875D01*
X108948935Y-21259875D02*
X108853697Y-21212256D01*
X108853697Y-21212256D02*
X108806078Y-21164636D01*
X108806078Y-21164636D02*
X108758459Y-21069398D01*
X108758459Y-21069398D02*
X108710840Y-20878922D01*
X108710840Y-20878922D02*
X108710840Y-20640827D01*
X108710840Y-20640827D02*
X108758459Y-20450351D01*
X108758459Y-20450351D02*
X108806078Y-20355113D01*
X108806078Y-20355113D02*
X108853697Y-20307494D01*
X108853697Y-20307494D02*
X108948935Y-20259875D01*
X109710840Y-21164636D02*
X109758459Y-21212256D01*
X109758459Y-21212256D02*
X109710840Y-21259875D01*
X109710840Y-21259875D02*
X109663221Y-21212256D01*
X109663221Y-21212256D02*
X109710840Y-21164636D01*
X109710840Y-21164636D02*
X109710840Y-21259875D01*
X110377506Y-20259875D02*
X110472744Y-20259875D01*
X110472744Y-20259875D02*
X110567982Y-20307494D01*
X110567982Y-20307494D02*
X110615601Y-20355113D01*
X110615601Y-20355113D02*
X110663220Y-20450351D01*
X110663220Y-20450351D02*
X110710839Y-20640827D01*
X110710839Y-20640827D02*
X110710839Y-20878922D01*
X110710839Y-20878922D02*
X110663220Y-21069398D01*
X110663220Y-21069398D02*
X110615601Y-21164636D01*
X110615601Y-21164636D02*
X110567982Y-21212256D01*
X110567982Y-21212256D02*
X110472744Y-21259875D01*
X110472744Y-21259875D02*
X110377506Y-21259875D01*
X110377506Y-21259875D02*
X110282268Y-21212256D01*
X110282268Y-21212256D02*
X110234649Y-21164636D01*
X110234649Y-21164636D02*
X110187030Y-21069398D01*
X110187030Y-21069398D02*
X110139411Y-20878922D01*
X110139411Y-20878922D02*
X110139411Y-20640827D01*
X110139411Y-20640827D02*
X110187030Y-20450351D01*
X110187030Y-20450351D02*
X110234649Y-20355113D01*
X110234649Y-20355113D02*
X110282268Y-20307494D01*
X110282268Y-20307494D02*
X110377506Y-20259875D01*
X102853695Y-22869819D02*
X102520362Y-22393628D01*
X102282267Y-22869819D02*
X102282267Y-21869819D01*
X102282267Y-21869819D02*
X102663219Y-21869819D01*
X102663219Y-21869819D02*
X102758457Y-21917438D01*
X102758457Y-21917438D02*
X102806076Y-21965057D01*
X102806076Y-21965057D02*
X102853695Y-22060295D01*
X102853695Y-22060295D02*
X102853695Y-22203152D01*
X102853695Y-22203152D02*
X102806076Y-22298390D01*
X102806076Y-22298390D02*
X102758457Y-22346009D01*
X102758457Y-22346009D02*
X102663219Y-22393628D01*
X102663219Y-22393628D02*
X102282267Y-22393628D01*
X103425124Y-22869819D02*
X103329886Y-22822200D01*
X103329886Y-22822200D02*
X103282267Y-22774580D01*
X103282267Y-22774580D02*
X103234648Y-22679342D01*
X103234648Y-22679342D02*
X103234648Y-22393628D01*
X103234648Y-22393628D02*
X103282267Y-22298390D01*
X103282267Y-22298390D02*
X103329886Y-22250771D01*
X103329886Y-22250771D02*
X103425124Y-22203152D01*
X103425124Y-22203152D02*
X103567981Y-22203152D01*
X103567981Y-22203152D02*
X103663219Y-22250771D01*
X103663219Y-22250771D02*
X103710838Y-22298390D01*
X103710838Y-22298390D02*
X103758457Y-22393628D01*
X103758457Y-22393628D02*
X103758457Y-22679342D01*
X103758457Y-22679342D02*
X103710838Y-22774580D01*
X103710838Y-22774580D02*
X103663219Y-22822200D01*
X103663219Y-22822200D02*
X103567981Y-22869819D01*
X103567981Y-22869819D02*
X103425124Y-22869819D01*
X104187029Y-22869819D02*
X104187029Y-21869819D01*
X104187029Y-22250771D02*
X104282267Y-22203152D01*
X104282267Y-22203152D02*
X104472743Y-22203152D01*
X104472743Y-22203152D02*
X104567981Y-22250771D01*
X104567981Y-22250771D02*
X104615600Y-22298390D01*
X104615600Y-22298390D02*
X104663219Y-22393628D01*
X104663219Y-22393628D02*
X104663219Y-22679342D01*
X104663219Y-22679342D02*
X104615600Y-22774580D01*
X104615600Y-22774580D02*
X104567981Y-22822200D01*
X104567981Y-22822200D02*
X104472743Y-22869819D01*
X104472743Y-22869819D02*
X104282267Y-22869819D01*
X104282267Y-22869819D02*
X104187029Y-22822200D01*
X105472743Y-22822200D02*
X105377505Y-22869819D01*
X105377505Y-22869819D02*
X105187029Y-22869819D01*
X105187029Y-22869819D02*
X105091791Y-22822200D01*
X105091791Y-22822200D02*
X105044172Y-22726961D01*
X105044172Y-22726961D02*
X105044172Y-22346009D01*
X105044172Y-22346009D02*
X105091791Y-22250771D01*
X105091791Y-22250771D02*
X105187029Y-22203152D01*
X105187029Y-22203152D02*
X105377505Y-22203152D01*
X105377505Y-22203152D02*
X105472743Y-22250771D01*
X105472743Y-22250771D02*
X105520362Y-22346009D01*
X105520362Y-22346009D02*
X105520362Y-22441247D01*
X105520362Y-22441247D02*
X105044172Y-22536485D01*
X105948934Y-22869819D02*
X105948934Y-22203152D01*
X105948934Y-22393628D02*
X105996553Y-22298390D01*
X105996553Y-22298390D02*
X106044172Y-22250771D01*
X106044172Y-22250771D02*
X106139410Y-22203152D01*
X106139410Y-22203152D02*
X106234648Y-22203152D01*
X106425125Y-22203152D02*
X106806077Y-22203152D01*
X106567982Y-21869819D02*
X106567982Y-22726961D01*
X106567982Y-22726961D02*
X106615601Y-22822200D01*
X106615601Y-22822200D02*
X106710839Y-22869819D01*
X106710839Y-22869819D02*
X106806077Y-22869819D01*
X108472744Y-22869819D02*
X108139411Y-22393628D01*
X107901316Y-22869819D02*
X107901316Y-21869819D01*
X107901316Y-21869819D02*
X108282268Y-21869819D01*
X108282268Y-21869819D02*
X108377506Y-21917438D01*
X108377506Y-21917438D02*
X108425125Y-21965057D01*
X108425125Y-21965057D02*
X108472744Y-22060295D01*
X108472744Y-22060295D02*
X108472744Y-22203152D01*
X108472744Y-22203152D02*
X108425125Y-22298390D01*
X108425125Y-22298390D02*
X108377506Y-22346009D01*
X108377506Y-22346009D02*
X108282268Y-22393628D01*
X108282268Y-22393628D02*
X107901316Y-22393628D01*
X108901316Y-22869819D02*
X108901316Y-22203152D01*
X108901316Y-21869819D02*
X108853697Y-21917438D01*
X108853697Y-21917438D02*
X108901316Y-21965057D01*
X108901316Y-21965057D02*
X108948935Y-21917438D01*
X108948935Y-21917438D02*
X108901316Y-21869819D01*
X108901316Y-21869819D02*
X108901316Y-21965057D01*
X109806077Y-22822200D02*
X109710839Y-22869819D01*
X109710839Y-22869819D02*
X109520363Y-22869819D01*
X109520363Y-22869819D02*
X109425125Y-22822200D01*
X109425125Y-22822200D02*
X109377506Y-22774580D01*
X109377506Y-22774580D02*
X109329887Y-22679342D01*
X109329887Y-22679342D02*
X109329887Y-22393628D01*
X109329887Y-22393628D02*
X109377506Y-22298390D01*
X109377506Y-22298390D02*
X109425125Y-22250771D01*
X109425125Y-22250771D02*
X109520363Y-22203152D01*
X109520363Y-22203152D02*
X109710839Y-22203152D01*
X109710839Y-22203152D02*
X109806077Y-22250771D01*
X110377506Y-22869819D02*
X110282268Y-22822200D01*
X110282268Y-22822200D02*
X110234649Y-22774580D01*
X110234649Y-22774580D02*
X110187030Y-22679342D01*
X110187030Y-22679342D02*
X110187030Y-22393628D01*
X110187030Y-22393628D02*
X110234649Y-22298390D01*
X110234649Y-22298390D02*
X110282268Y-22250771D01*
X110282268Y-22250771D02*
X110377506Y-22203152D01*
X110377506Y-22203152D02*
X110520363Y-22203152D01*
X110520363Y-22203152D02*
X110615601Y-22250771D01*
X110615601Y-22250771D02*
X110663220Y-22298390D01*
X110663220Y-22298390D02*
X110710839Y-22393628D01*
X110710839Y-22393628D02*
X110710839Y-22679342D01*
X110710839Y-22679342D02*
X110663220Y-22774580D01*
X110663220Y-22774580D02*
X110615601Y-22822200D01*
X110615601Y-22822200D02*
X110520363Y-22869819D01*
X110520363Y-22869819D02*
X110377506Y-22869819D01*
X95428571Y-131454819D02*
X95428571Y-132264342D01*
X95428571Y-132264342D02*
X95476190Y-132359580D01*
X95476190Y-132359580D02*
X95523809Y-132407200D01*
X95523809Y-132407200D02*
X95619047Y-132454819D01*
X95619047Y-132454819D02*
X95809523Y-132454819D01*
X95809523Y-132454819D02*
X95904761Y-132407200D01*
X95904761Y-132407200D02*
X95952380Y-132359580D01*
X95952380Y-132359580D02*
X95999999Y-132264342D01*
X95999999Y-132264342D02*
X95999999Y-131454819D01*
X96428571Y-132407200D02*
X96571428Y-132454819D01*
X96571428Y-132454819D02*
X96809523Y-132454819D01*
X96809523Y-132454819D02*
X96904761Y-132407200D01*
X96904761Y-132407200D02*
X96952380Y-132359580D01*
X96952380Y-132359580D02*
X96999999Y-132264342D01*
X96999999Y-132264342D02*
X96999999Y-132169104D01*
X96999999Y-132169104D02*
X96952380Y-132073866D01*
X96952380Y-132073866D02*
X96904761Y-132026247D01*
X96904761Y-132026247D02*
X96809523Y-131978628D01*
X96809523Y-131978628D02*
X96619047Y-131931009D01*
X96619047Y-131931009D02*
X96523809Y-131883390D01*
X96523809Y-131883390D02*
X96476190Y-131835771D01*
X96476190Y-131835771D02*
X96428571Y-131740533D01*
X96428571Y-131740533D02*
X96428571Y-131645295D01*
X96428571Y-131645295D02*
X96476190Y-131550057D01*
X96476190Y-131550057D02*
X96523809Y-131502438D01*
X96523809Y-131502438D02*
X96619047Y-131454819D01*
X96619047Y-131454819D02*
X96857142Y-131454819D01*
X96857142Y-131454819D02*
X96999999Y-131502438D01*
X97761904Y-131931009D02*
X97904761Y-131978628D01*
X97904761Y-131978628D02*
X97952380Y-132026247D01*
X97952380Y-132026247D02*
X97999999Y-132121485D01*
X97999999Y-132121485D02*
X97999999Y-132264342D01*
X97999999Y-132264342D02*
X97952380Y-132359580D01*
X97952380Y-132359580D02*
X97904761Y-132407200D01*
X97904761Y-132407200D02*
X97809523Y-132454819D01*
X97809523Y-132454819D02*
X97428571Y-132454819D01*
X97428571Y-132454819D02*
X97428571Y-131454819D01*
X97428571Y-131454819D02*
X97761904Y-131454819D01*
X97761904Y-131454819D02*
X97857142Y-131502438D01*
X97857142Y-131502438D02*
X97904761Y-131550057D01*
X97904761Y-131550057D02*
X97952380Y-131645295D01*
X97952380Y-131645295D02*
X97952380Y-131740533D01*
X97952380Y-131740533D02*
X97904761Y-131835771D01*
X97904761Y-131835771D02*
X97857142Y-131883390D01*
X97857142Y-131883390D02*
X97761904Y-131931009D01*
X97761904Y-131931009D02*
X97428571Y-131931009D01*
X98190476Y-132550057D02*
X98952380Y-132550057D01*
X99142857Y-132169104D02*
X99619047Y-132169104D01*
X99047619Y-132454819D02*
X99380952Y-131454819D01*
X99380952Y-131454819D02*
X99714285Y-132454819D01*
X64133333Y-102809580D02*
X64085714Y-102857200D01*
X64085714Y-102857200D02*
X63942857Y-102904819D01*
X63942857Y-102904819D02*
X63847619Y-102904819D01*
X63847619Y-102904819D02*
X63704762Y-102857200D01*
X63704762Y-102857200D02*
X63609524Y-102761961D01*
X63609524Y-102761961D02*
X63561905Y-102666723D01*
X63561905Y-102666723D02*
X63514286Y-102476247D01*
X63514286Y-102476247D02*
X63514286Y-102333390D01*
X63514286Y-102333390D02*
X63561905Y-102142914D01*
X63561905Y-102142914D02*
X63609524Y-102047676D01*
X63609524Y-102047676D02*
X63704762Y-101952438D01*
X63704762Y-101952438D02*
X63847619Y-101904819D01*
X63847619Y-101904819D02*
X63942857Y-101904819D01*
X63942857Y-101904819D02*
X64085714Y-101952438D01*
X64085714Y-101952438D02*
X64133333Y-102000057D01*
X64514286Y-102000057D02*
X64561905Y-101952438D01*
X64561905Y-101952438D02*
X64657143Y-101904819D01*
X64657143Y-101904819D02*
X64895238Y-101904819D01*
X64895238Y-101904819D02*
X64990476Y-101952438D01*
X64990476Y-101952438D02*
X65038095Y-102000057D01*
X65038095Y-102000057D02*
X65085714Y-102095295D01*
X65085714Y-102095295D02*
X65085714Y-102190533D01*
X65085714Y-102190533D02*
X65038095Y-102333390D01*
X65038095Y-102333390D02*
X64466667Y-102904819D01*
X64466667Y-102904819D02*
X65085714Y-102904819D01*
X96485714Y-73254819D02*
X96485714Y-72254819D01*
X96485714Y-72254819D02*
X96866666Y-72254819D01*
X96866666Y-72254819D02*
X96961904Y-72302438D01*
X96961904Y-72302438D02*
X97009523Y-72350057D01*
X97009523Y-72350057D02*
X97057142Y-72445295D01*
X97057142Y-72445295D02*
X97057142Y-72588152D01*
X97057142Y-72588152D02*
X97009523Y-72683390D01*
X97009523Y-72683390D02*
X96961904Y-72731009D01*
X96961904Y-72731009D02*
X96866666Y-72778628D01*
X96866666Y-72778628D02*
X96485714Y-72778628D01*
X97438095Y-73207200D02*
X97580952Y-73254819D01*
X97580952Y-73254819D02*
X97819047Y-73254819D01*
X97819047Y-73254819D02*
X97914285Y-73207200D01*
X97914285Y-73207200D02*
X97961904Y-73159580D01*
X97961904Y-73159580D02*
X98009523Y-73064342D01*
X98009523Y-73064342D02*
X98009523Y-72969104D01*
X98009523Y-72969104D02*
X97961904Y-72873866D01*
X97961904Y-72873866D02*
X97914285Y-72826247D01*
X97914285Y-72826247D02*
X97819047Y-72778628D01*
X97819047Y-72778628D02*
X97628571Y-72731009D01*
X97628571Y-72731009D02*
X97533333Y-72683390D01*
X97533333Y-72683390D02*
X97485714Y-72635771D01*
X97485714Y-72635771D02*
X97438095Y-72540533D01*
X97438095Y-72540533D02*
X97438095Y-72445295D01*
X97438095Y-72445295D02*
X97485714Y-72350057D01*
X97485714Y-72350057D02*
X97533333Y-72302438D01*
X97533333Y-72302438D02*
X97628571Y-72254819D01*
X97628571Y-72254819D02*
X97866666Y-72254819D01*
X97866666Y-72254819D02*
X98009523Y-72302438D01*
X98438095Y-72731009D02*
X98771428Y-72731009D01*
X98914285Y-73254819D02*
X98438095Y-73254819D01*
X98438095Y-73254819D02*
X98438095Y-72254819D01*
X98438095Y-72254819D02*
X98914285Y-72254819D01*
X99342857Y-73254819D02*
X99342857Y-72254819D01*
X99342857Y-72254819D02*
X99914285Y-73254819D01*
X99914285Y-73254819D02*
X99914285Y-72254819D01*
X96347619Y-71977200D02*
X100052381Y-71977200D01*
X97461905Y-98414819D02*
X97461905Y-97414819D01*
X97461905Y-97414819D02*
X97842857Y-97414819D01*
X97842857Y-97414819D02*
X97938095Y-97462438D01*
X97938095Y-97462438D02*
X97985714Y-97510057D01*
X97985714Y-97510057D02*
X98033333Y-97605295D01*
X98033333Y-97605295D02*
X98033333Y-97748152D01*
X98033333Y-97748152D02*
X97985714Y-97843390D01*
X97985714Y-97843390D02*
X97938095Y-97891009D01*
X97938095Y-97891009D02*
X97842857Y-97938628D01*
X97842857Y-97938628D02*
X97461905Y-97938628D01*
X98414286Y-97510057D02*
X98461905Y-97462438D01*
X98461905Y-97462438D02*
X98557143Y-97414819D01*
X98557143Y-97414819D02*
X98795238Y-97414819D01*
X98795238Y-97414819D02*
X98890476Y-97462438D01*
X98890476Y-97462438D02*
X98938095Y-97510057D01*
X98938095Y-97510057D02*
X98985714Y-97605295D01*
X98985714Y-97605295D02*
X98985714Y-97700533D01*
X98985714Y-97700533D02*
X98938095Y-97843390D01*
X98938095Y-97843390D02*
X98366667Y-98414819D01*
X98366667Y-98414819D02*
X98985714Y-98414819D01*
X97461905Y-57034819D02*
X97461905Y-56034819D01*
X97461905Y-56034819D02*
X97842857Y-56034819D01*
X97842857Y-56034819D02*
X97938095Y-56082438D01*
X97938095Y-56082438D02*
X97985714Y-56130057D01*
X97985714Y-56130057D02*
X98033333Y-56225295D01*
X98033333Y-56225295D02*
X98033333Y-56368152D01*
X98033333Y-56368152D02*
X97985714Y-56463390D01*
X97985714Y-56463390D02*
X97938095Y-56511009D01*
X97938095Y-56511009D02*
X97842857Y-56558628D01*
X97842857Y-56558628D02*
X97461905Y-56558628D01*
X98652381Y-56034819D02*
X98747619Y-56034819D01*
X98747619Y-56034819D02*
X98842857Y-56082438D01*
X98842857Y-56082438D02*
X98890476Y-56130057D01*
X98890476Y-56130057D02*
X98938095Y-56225295D01*
X98938095Y-56225295D02*
X98985714Y-56415771D01*
X98985714Y-56415771D02*
X98985714Y-56653866D01*
X98985714Y-56653866D02*
X98938095Y-56844342D01*
X98938095Y-56844342D02*
X98890476Y-56939580D01*
X98890476Y-56939580D02*
X98842857Y-56987200D01*
X98842857Y-56987200D02*
X98747619Y-57034819D01*
X98747619Y-57034819D02*
X98652381Y-57034819D01*
X98652381Y-57034819D02*
X98557143Y-56987200D01*
X98557143Y-56987200D02*
X98509524Y-56939580D01*
X98509524Y-56939580D02*
X98461905Y-56844342D01*
X98461905Y-56844342D02*
X98414286Y-56653866D01*
X98414286Y-56653866D02*
X98414286Y-56415771D01*
X98414286Y-56415771D02*
X98461905Y-56225295D01*
X98461905Y-56225295D02*
X98509524Y-56130057D01*
X98509524Y-56130057D02*
X98557143Y-56082438D01*
X98557143Y-56082438D02*
X98652381Y-56034819D01*
X61061905Y-98414819D02*
X61061905Y-97414819D01*
X61061905Y-97414819D02*
X61442857Y-97414819D01*
X61442857Y-97414819D02*
X61538095Y-97462438D01*
X61538095Y-97462438D02*
X61585714Y-97510057D01*
X61585714Y-97510057D02*
X61633333Y-97605295D01*
X61633333Y-97605295D02*
X61633333Y-97748152D01*
X61633333Y-97748152D02*
X61585714Y-97843390D01*
X61585714Y-97843390D02*
X61538095Y-97891009D01*
X61538095Y-97891009D02*
X61442857Y-97938628D01*
X61442857Y-97938628D02*
X61061905Y-97938628D01*
X61966667Y-97414819D02*
X62585714Y-97414819D01*
X62585714Y-97414819D02*
X62252381Y-97795771D01*
X62252381Y-97795771D02*
X62395238Y-97795771D01*
X62395238Y-97795771D02*
X62490476Y-97843390D01*
X62490476Y-97843390D02*
X62538095Y-97891009D01*
X62538095Y-97891009D02*
X62585714Y-97986247D01*
X62585714Y-97986247D02*
X62585714Y-98224342D01*
X62585714Y-98224342D02*
X62538095Y-98319580D01*
X62538095Y-98319580D02*
X62490476Y-98367200D01*
X62490476Y-98367200D02*
X62395238Y-98414819D01*
X62395238Y-98414819D02*
X62109524Y-98414819D01*
X62109524Y-98414819D02*
X62014286Y-98367200D01*
X62014286Y-98367200D02*
X61966667Y-98319580D01*
X90785714Y-31954819D02*
X90880952Y-31954819D01*
X90880952Y-31954819D02*
X90976190Y-32002438D01*
X90976190Y-32002438D02*
X91023809Y-32050057D01*
X91023809Y-32050057D02*
X91071428Y-32145295D01*
X91071428Y-32145295D02*
X91119047Y-32335771D01*
X91119047Y-32335771D02*
X91119047Y-32573866D01*
X91119047Y-32573866D02*
X91071428Y-32764342D01*
X91071428Y-32764342D02*
X91023809Y-32859580D01*
X91023809Y-32859580D02*
X90976190Y-32907200D01*
X90976190Y-32907200D02*
X90880952Y-32954819D01*
X90880952Y-32954819D02*
X90785714Y-32954819D01*
X90785714Y-32954819D02*
X90690476Y-32907200D01*
X90690476Y-32907200D02*
X90642857Y-32859580D01*
X90642857Y-32859580D02*
X90595238Y-32764342D01*
X90595238Y-32764342D02*
X90547619Y-32573866D01*
X90547619Y-32573866D02*
X90547619Y-32335771D01*
X90547619Y-32335771D02*
X90595238Y-32145295D01*
X90595238Y-32145295D02*
X90642857Y-32050057D01*
X90642857Y-32050057D02*
X90690476Y-32002438D01*
X90690476Y-32002438D02*
X90785714Y-31954819D01*
X91547619Y-32859580D02*
X91595238Y-32907200D01*
X91595238Y-32907200D02*
X91547619Y-32954819D01*
X91547619Y-32954819D02*
X91500000Y-32907200D01*
X91500000Y-32907200D02*
X91547619Y-32859580D01*
X91547619Y-32859580D02*
X91547619Y-32954819D01*
X92547618Y-32954819D02*
X91976190Y-32954819D01*
X92261904Y-32954819D02*
X92261904Y-31954819D01*
X92261904Y-31954819D02*
X92166666Y-32097676D01*
X92166666Y-32097676D02*
X92071428Y-32192914D01*
X92071428Y-32192914D02*
X91976190Y-32240533D01*
X92976190Y-32288152D02*
X92976190Y-33288152D01*
X93452380Y-32811961D02*
X93499999Y-32907200D01*
X93499999Y-32907200D02*
X93595237Y-32954819D01*
X92976190Y-32811961D02*
X93023809Y-32907200D01*
X93023809Y-32907200D02*
X93119047Y-32954819D01*
X93119047Y-32954819D02*
X93309523Y-32954819D01*
X93309523Y-32954819D02*
X93404761Y-32907200D01*
X93404761Y-32907200D02*
X93452380Y-32811961D01*
X93452380Y-32811961D02*
X93452380Y-32288152D01*
X94357142Y-32431009D02*
X94023809Y-32431009D01*
X94023809Y-32954819D02*
X94023809Y-31954819D01*
X94023809Y-31954819D02*
X94499999Y-31954819D01*
X97104762Y-64349104D02*
X97580952Y-64349104D01*
X97009524Y-64634819D02*
X97342857Y-63634819D01*
X97342857Y-63634819D02*
X97676190Y-64634819D01*
X98485714Y-64634819D02*
X98009524Y-64634819D01*
X98009524Y-64634819D02*
X98009524Y-63634819D01*
X98819048Y-64111009D02*
X99152381Y-64111009D01*
X99295238Y-64634819D02*
X98819048Y-64634819D01*
X98819048Y-64634819D02*
X98819048Y-63634819D01*
X98819048Y-63634819D02*
X99295238Y-63634819D01*
X79261904Y-111904819D02*
X78928571Y-111428628D01*
X78690476Y-111904819D02*
X78690476Y-110904819D01*
X78690476Y-110904819D02*
X79071428Y-110904819D01*
X79071428Y-110904819D02*
X79166666Y-110952438D01*
X79166666Y-110952438D02*
X79214285Y-111000057D01*
X79214285Y-111000057D02*
X79261904Y-111095295D01*
X79261904Y-111095295D02*
X79261904Y-111238152D01*
X79261904Y-111238152D02*
X79214285Y-111333390D01*
X79214285Y-111333390D02*
X79166666Y-111381009D01*
X79166666Y-111381009D02*
X79071428Y-111428628D01*
X79071428Y-111428628D02*
X78690476Y-111428628D01*
X80071428Y-111857200D02*
X79976190Y-111904819D01*
X79976190Y-111904819D02*
X79785714Y-111904819D01*
X79785714Y-111904819D02*
X79690476Y-111857200D01*
X79690476Y-111857200D02*
X79642857Y-111761961D01*
X79642857Y-111761961D02*
X79642857Y-111381009D01*
X79642857Y-111381009D02*
X79690476Y-111285771D01*
X79690476Y-111285771D02*
X79785714Y-111238152D01*
X79785714Y-111238152D02*
X79976190Y-111238152D01*
X79976190Y-111238152D02*
X80071428Y-111285771D01*
X80071428Y-111285771D02*
X80119047Y-111381009D01*
X80119047Y-111381009D02*
X80119047Y-111476247D01*
X80119047Y-111476247D02*
X79642857Y-111571485D01*
X80500000Y-111857200D02*
X80595238Y-111904819D01*
X80595238Y-111904819D02*
X80785714Y-111904819D01*
X80785714Y-111904819D02*
X80880952Y-111857200D01*
X80880952Y-111857200D02*
X80928571Y-111761961D01*
X80928571Y-111761961D02*
X80928571Y-111714342D01*
X80928571Y-111714342D02*
X80880952Y-111619104D01*
X80880952Y-111619104D02*
X80785714Y-111571485D01*
X80785714Y-111571485D02*
X80642857Y-111571485D01*
X80642857Y-111571485D02*
X80547619Y-111523866D01*
X80547619Y-111523866D02*
X80500000Y-111428628D01*
X80500000Y-111428628D02*
X80500000Y-111381009D01*
X80500000Y-111381009D02*
X80547619Y-111285771D01*
X80547619Y-111285771D02*
X80642857Y-111238152D01*
X80642857Y-111238152D02*
X80785714Y-111238152D01*
X80785714Y-111238152D02*
X80880952Y-111285771D01*
X81738095Y-111857200D02*
X81642857Y-111904819D01*
X81642857Y-111904819D02*
X81452381Y-111904819D01*
X81452381Y-111904819D02*
X81357143Y-111857200D01*
X81357143Y-111857200D02*
X81309524Y-111761961D01*
X81309524Y-111761961D02*
X81309524Y-111381009D01*
X81309524Y-111381009D02*
X81357143Y-111285771D01*
X81357143Y-111285771D02*
X81452381Y-111238152D01*
X81452381Y-111238152D02*
X81642857Y-111238152D01*
X81642857Y-111238152D02*
X81738095Y-111285771D01*
X81738095Y-111285771D02*
X81785714Y-111381009D01*
X81785714Y-111381009D02*
X81785714Y-111476247D01*
X81785714Y-111476247D02*
X81309524Y-111571485D01*
X82071429Y-111238152D02*
X82452381Y-111238152D01*
X82214286Y-110904819D02*
X82214286Y-111761961D01*
X82214286Y-111761961D02*
X82261905Y-111857200D01*
X82261905Y-111857200D02*
X82357143Y-111904819D01*
X82357143Y-111904819D02*
X82452381Y-111904819D01*
X57583333Y-102809580D02*
X57535714Y-102857200D01*
X57535714Y-102857200D02*
X57392857Y-102904819D01*
X57392857Y-102904819D02*
X57297619Y-102904819D01*
X57297619Y-102904819D02*
X57154762Y-102857200D01*
X57154762Y-102857200D02*
X57059524Y-102761961D01*
X57059524Y-102761961D02*
X57011905Y-102666723D01*
X57011905Y-102666723D02*
X56964286Y-102476247D01*
X56964286Y-102476247D02*
X56964286Y-102333390D01*
X56964286Y-102333390D02*
X57011905Y-102142914D01*
X57011905Y-102142914D02*
X57059524Y-102047676D01*
X57059524Y-102047676D02*
X57154762Y-101952438D01*
X57154762Y-101952438D02*
X57297619Y-101904819D01*
X57297619Y-101904819D02*
X57392857Y-101904819D01*
X57392857Y-101904819D02*
X57535714Y-101952438D01*
X57535714Y-101952438D02*
X57583333Y-102000057D01*
X58535714Y-102904819D02*
X57964286Y-102904819D01*
X58250000Y-102904819D02*
X58250000Y-101904819D01*
X58250000Y-101904819D02*
X58154762Y-102047676D01*
X58154762Y-102047676D02*
X58059524Y-102142914D01*
X58059524Y-102142914D02*
X57964286Y-102190533D01*
X61061905Y-57034819D02*
X61061905Y-56034819D01*
X61061905Y-56034819D02*
X61442857Y-56034819D01*
X61442857Y-56034819D02*
X61538095Y-56082438D01*
X61538095Y-56082438D02*
X61585714Y-56130057D01*
X61585714Y-56130057D02*
X61633333Y-56225295D01*
X61633333Y-56225295D02*
X61633333Y-56368152D01*
X61633333Y-56368152D02*
X61585714Y-56463390D01*
X61585714Y-56463390D02*
X61538095Y-56511009D01*
X61538095Y-56511009D02*
X61442857Y-56558628D01*
X61442857Y-56558628D02*
X61061905Y-56558628D01*
X62585714Y-57034819D02*
X62014286Y-57034819D01*
X62300000Y-57034819D02*
X62300000Y-56034819D01*
X62300000Y-56034819D02*
X62204762Y-56177676D01*
X62204762Y-56177676D02*
X62109524Y-56272914D01*
X62109524Y-56272914D02*
X62014286Y-56320533D01*
X79174819Y-122166666D02*
X79174819Y-122738094D01*
X79174819Y-122452380D02*
X78174819Y-122452380D01*
X78174819Y-122452380D02*
X78317676Y-122547618D01*
X78317676Y-122547618D02*
X78412914Y-122642856D01*
X78412914Y-122642856D02*
X78460533Y-122738094D01*
X78174819Y-121547618D02*
X78174819Y-121452380D01*
X78174819Y-121452380D02*
X78222438Y-121357142D01*
X78222438Y-121357142D02*
X78270057Y-121309523D01*
X78270057Y-121309523D02*
X78365295Y-121261904D01*
X78365295Y-121261904D02*
X78555771Y-121214285D01*
X78555771Y-121214285D02*
X78793866Y-121214285D01*
X78793866Y-121214285D02*
X78984342Y-121261904D01*
X78984342Y-121261904D02*
X79079580Y-121309523D01*
X79079580Y-121309523D02*
X79127200Y-121357142D01*
X79127200Y-121357142D02*
X79174819Y-121452380D01*
X79174819Y-121452380D02*
X79174819Y-121547618D01*
X79174819Y-121547618D02*
X79127200Y-121642856D01*
X79127200Y-121642856D02*
X79079580Y-121690475D01*
X79079580Y-121690475D02*
X78984342Y-121738094D01*
X78984342Y-121738094D02*
X78793866Y-121785713D01*
X78793866Y-121785713D02*
X78555771Y-121785713D01*
X78555771Y-121785713D02*
X78365295Y-121738094D01*
X78365295Y-121738094D02*
X78270057Y-121690475D01*
X78270057Y-121690475D02*
X78222438Y-121642856D01*
X78222438Y-121642856D02*
X78174819Y-121547618D01*
X79174819Y-120785713D02*
X78174819Y-120785713D01*
X78793866Y-120690475D02*
X79174819Y-120404761D01*
X78508152Y-120404761D02*
X78889104Y-120785713D01*
X79174819Y-120023808D02*
X79174819Y-119785713D01*
X79174819Y-119785713D02*
X78984342Y-119785713D01*
X78984342Y-119785713D02*
X78936723Y-119880951D01*
X78936723Y-119880951D02*
X78841485Y-119976189D01*
X78841485Y-119976189D02*
X78698628Y-120023808D01*
X78698628Y-120023808D02*
X78460533Y-120023808D01*
X78460533Y-120023808D02*
X78317676Y-119976189D01*
X78317676Y-119976189D02*
X78222438Y-119880951D01*
X78222438Y-119880951D02*
X78174819Y-119738094D01*
X78174819Y-119738094D02*
X78174819Y-119547618D01*
X78174819Y-119547618D02*
X78222438Y-119404761D01*
X78222438Y-119404761D02*
X78317676Y-119309523D01*
X78317676Y-119309523D02*
X78460533Y-119261904D01*
X78460533Y-119261904D02*
X78698628Y-119261904D01*
X78698628Y-119261904D02*
X78841485Y-119309523D01*
X78841485Y-119309523D02*
X78936723Y-119404761D01*
X78936723Y-119404761D02*
X78984342Y-119499999D01*
X78984342Y-119499999D02*
X79174819Y-119499999D01*
X79174819Y-119499999D02*
X79174819Y-119261904D01*
X55759523Y-127104819D02*
X55188095Y-127104819D01*
X55473809Y-127104819D02*
X55473809Y-126104819D01*
X55473809Y-126104819D02*
X55378571Y-126247676D01*
X55378571Y-126247676D02*
X55283333Y-126342914D01*
X55283333Y-126342914D02*
X55188095Y-126390533D01*
X56711904Y-127104819D02*
X56140476Y-127104819D01*
X56426190Y-127104819D02*
X56426190Y-126104819D01*
X56426190Y-126104819D02*
X56330952Y-126247676D01*
X56330952Y-126247676D02*
X56235714Y-126342914D01*
X56235714Y-126342914D02*
X56140476Y-126390533D01*
X57140476Y-127009580D02*
X57188095Y-127057200D01*
X57188095Y-127057200D02*
X57140476Y-127104819D01*
X57140476Y-127104819D02*
X57092857Y-127057200D01*
X57092857Y-127057200D02*
X57140476Y-127009580D01*
X57140476Y-127009580D02*
X57140476Y-127104819D01*
X57807142Y-126104819D02*
X57902380Y-126104819D01*
X57902380Y-126104819D02*
X57997618Y-126152438D01*
X57997618Y-126152438D02*
X58045237Y-126200057D01*
X58045237Y-126200057D02*
X58092856Y-126295295D01*
X58092856Y-126295295D02*
X58140475Y-126485771D01*
X58140475Y-126485771D02*
X58140475Y-126723866D01*
X58140475Y-126723866D02*
X58092856Y-126914342D01*
X58092856Y-126914342D02*
X58045237Y-127009580D01*
X58045237Y-127009580D02*
X57997618Y-127057200D01*
X57997618Y-127057200D02*
X57902380Y-127104819D01*
X57902380Y-127104819D02*
X57807142Y-127104819D01*
X57807142Y-127104819D02*
X57711904Y-127057200D01*
X57711904Y-127057200D02*
X57664285Y-127009580D01*
X57664285Y-127009580D02*
X57616666Y-126914342D01*
X57616666Y-126914342D02*
X57569047Y-126723866D01*
X57569047Y-126723866D02*
X57569047Y-126485771D01*
X57569047Y-126485771D02*
X57616666Y-126295295D01*
X57616666Y-126295295D02*
X57664285Y-126200057D01*
X57664285Y-126200057D02*
X57711904Y-126152438D01*
X57711904Y-126152438D02*
X57807142Y-126104819D01*
X59045237Y-126104819D02*
X58569047Y-126104819D01*
X58569047Y-126104819D02*
X58521428Y-126581009D01*
X58521428Y-126581009D02*
X58569047Y-126533390D01*
X58569047Y-126533390D02*
X58664285Y-126485771D01*
X58664285Y-126485771D02*
X58902380Y-126485771D01*
X58902380Y-126485771D02*
X58997618Y-126533390D01*
X58997618Y-126533390D02*
X59045237Y-126581009D01*
X59045237Y-126581009D02*
X59092856Y-126676247D01*
X59092856Y-126676247D02*
X59092856Y-126914342D01*
X59092856Y-126914342D02*
X59045237Y-127009580D01*
X59045237Y-127009580D02*
X58997618Y-127057200D01*
X58997618Y-127057200D02*
X58902380Y-127104819D01*
X58902380Y-127104819D02*
X58664285Y-127104819D01*
X58664285Y-127104819D02*
X58569047Y-127057200D01*
X58569047Y-127057200D02*
X58521428Y-127009580D01*
X59569047Y-127104819D02*
X59759523Y-127104819D01*
X59759523Y-127104819D02*
X59854761Y-127057200D01*
X59854761Y-127057200D02*
X59902380Y-127009580D01*
X59902380Y-127009580D02*
X59997618Y-126866723D01*
X59997618Y-126866723D02*
X60045237Y-126676247D01*
X60045237Y-126676247D02*
X60045237Y-126295295D01*
X60045237Y-126295295D02*
X59997618Y-126200057D01*
X59997618Y-126200057D02*
X59949999Y-126152438D01*
X59949999Y-126152438D02*
X59854761Y-126104819D01*
X59854761Y-126104819D02*
X59664285Y-126104819D01*
X59664285Y-126104819D02*
X59569047Y-126152438D01*
X59569047Y-126152438D02*
X59521428Y-126200057D01*
X59521428Y-126200057D02*
X59473809Y-126295295D01*
X59473809Y-126295295D02*
X59473809Y-126533390D01*
X59473809Y-126533390D02*
X59521428Y-126628628D01*
X59521428Y-126628628D02*
X59569047Y-126676247D01*
X59569047Y-126676247D02*
X59664285Y-126723866D01*
X59664285Y-126723866D02*
X59854761Y-126723866D01*
X59854761Y-126723866D02*
X59949999Y-126676247D01*
X59949999Y-126676247D02*
X59997618Y-126628628D01*
X59997618Y-126628628D02*
X60045237Y-126533390D01*
X60426190Y-126200057D02*
X60473809Y-126152438D01*
X60473809Y-126152438D02*
X60569047Y-126104819D01*
X60569047Y-126104819D02*
X60807142Y-126104819D01*
X60807142Y-126104819D02*
X60902380Y-126152438D01*
X60902380Y-126152438D02*
X60949999Y-126200057D01*
X60949999Y-126200057D02*
X60997618Y-126295295D01*
X60997618Y-126295295D02*
X60997618Y-126390533D01*
X60997618Y-126390533D02*
X60949999Y-126533390D01*
X60949999Y-126533390D02*
X60378571Y-127104819D01*
X60378571Y-127104819D02*
X60997618Y-127104819D01*
X61616666Y-126104819D02*
X61711904Y-126104819D01*
X61711904Y-126104819D02*
X61807142Y-126152438D01*
X61807142Y-126152438D02*
X61854761Y-126200057D01*
X61854761Y-126200057D02*
X61902380Y-126295295D01*
X61902380Y-126295295D02*
X61949999Y-126485771D01*
X61949999Y-126485771D02*
X61949999Y-126723866D01*
X61949999Y-126723866D02*
X61902380Y-126914342D01*
X61902380Y-126914342D02*
X61854761Y-127009580D01*
X61854761Y-127009580D02*
X61807142Y-127057200D01*
X61807142Y-127057200D02*
X61711904Y-127104819D01*
X61711904Y-127104819D02*
X61616666Y-127104819D01*
X61616666Y-127104819D02*
X61521428Y-127057200D01*
X61521428Y-127057200D02*
X61473809Y-127009580D01*
X61473809Y-127009580D02*
X61426190Y-126914342D01*
X61426190Y-126914342D02*
X61378571Y-126723866D01*
X61378571Y-126723866D02*
X61378571Y-126485771D01*
X61378571Y-126485771D02*
X61426190Y-126295295D01*
X61426190Y-126295295D02*
X61473809Y-126200057D01*
X61473809Y-126200057D02*
X61521428Y-126152438D01*
X61521428Y-126152438D02*
X61616666Y-126104819D01*
X63140476Y-127104819D02*
X63140476Y-126104819D01*
X63140476Y-126104819D02*
X63473809Y-126819104D01*
X63473809Y-126819104D02*
X63807142Y-126104819D01*
X63807142Y-126104819D02*
X63807142Y-127104819D01*
X64283333Y-127104819D02*
X64283333Y-126104819D01*
X64283333Y-126581009D02*
X64854761Y-126581009D01*
X64854761Y-127104819D02*
X64854761Y-126104819D01*
X65235714Y-126438152D02*
X65759523Y-126438152D01*
X65759523Y-126438152D02*
X65235714Y-127104819D01*
X65235714Y-127104819D02*
X65759523Y-127104819D01*
X89857142Y-115704819D02*
X89285714Y-115704819D01*
X89571428Y-115704819D02*
X89571428Y-114704819D01*
X89571428Y-114704819D02*
X89476190Y-114847676D01*
X89476190Y-114847676D02*
X89380952Y-114942914D01*
X89380952Y-114942914D02*
X89285714Y-114990533D01*
X90476190Y-114704819D02*
X90571428Y-114704819D01*
X90571428Y-114704819D02*
X90666666Y-114752438D01*
X90666666Y-114752438D02*
X90714285Y-114800057D01*
X90714285Y-114800057D02*
X90761904Y-114895295D01*
X90761904Y-114895295D02*
X90809523Y-115085771D01*
X90809523Y-115085771D02*
X90809523Y-115323866D01*
X90809523Y-115323866D02*
X90761904Y-115514342D01*
X90761904Y-115514342D02*
X90714285Y-115609580D01*
X90714285Y-115609580D02*
X90666666Y-115657200D01*
X90666666Y-115657200D02*
X90571428Y-115704819D01*
X90571428Y-115704819D02*
X90476190Y-115704819D01*
X90476190Y-115704819D02*
X90380952Y-115657200D01*
X90380952Y-115657200D02*
X90333333Y-115609580D01*
X90333333Y-115609580D02*
X90285714Y-115514342D01*
X90285714Y-115514342D02*
X90238095Y-115323866D01*
X90238095Y-115323866D02*
X90238095Y-115085771D01*
X90238095Y-115085771D02*
X90285714Y-114895295D01*
X90285714Y-114895295D02*
X90333333Y-114800057D01*
X90333333Y-114800057D02*
X90380952Y-114752438D01*
X90380952Y-114752438D02*
X90476190Y-114704819D01*
X91238095Y-115038152D02*
X91238095Y-116038152D01*
X91714285Y-115561961D02*
X91761904Y-115657200D01*
X91761904Y-115657200D02*
X91857142Y-115704819D01*
X91238095Y-115561961D02*
X91285714Y-115657200D01*
X91285714Y-115657200D02*
X91380952Y-115704819D01*
X91380952Y-115704819D02*
X91571428Y-115704819D01*
X91571428Y-115704819D02*
X91666666Y-115657200D01*
X91666666Y-115657200D02*
X91714285Y-115561961D01*
X91714285Y-115561961D02*
X91714285Y-115038152D01*
X92619047Y-115181009D02*
X92285714Y-115181009D01*
X92285714Y-115704819D02*
X92285714Y-114704819D01*
X92285714Y-114704819D02*
X92761904Y-114704819D01*
X79118095Y-32894819D02*
X79118095Y-33704342D01*
X79118095Y-33704342D02*
X79165714Y-33799580D01*
X79165714Y-33799580D02*
X79213333Y-33847200D01*
X79213333Y-33847200D02*
X79308571Y-33894819D01*
X79308571Y-33894819D02*
X79499047Y-33894819D01*
X79499047Y-33894819D02*
X79594285Y-33847200D01*
X79594285Y-33847200D02*
X79641904Y-33799580D01*
X79641904Y-33799580D02*
X79689523Y-33704342D01*
X79689523Y-33704342D02*
X79689523Y-32894819D01*
X80689523Y-33894819D02*
X80118095Y-33894819D01*
X80403809Y-33894819D02*
X80403809Y-32894819D01*
X80403809Y-32894819D02*
X80308571Y-33037676D01*
X80308571Y-33037676D02*
X80213333Y-33132914D01*
X80213333Y-33132914D02*
X80118095Y-33180533D01*
D11*
%TO.C,J7*%
X90740000Y-119447500D02*
X93700000Y-119447500D01*
X90740000Y-121267500D02*
X90740000Y-119447500D01*
X94300000Y-119447500D02*
X104260000Y-119447500D01*
X104260000Y-121267500D02*
X104260000Y-119447500D01*
X94000000Y-119447500D02*
X93660000Y-118977500D01*
X94340000Y-118977500D01*
X94000000Y-119447500D01*
G36*
X94000000Y-119447500D02*
G01*
X93660000Y-118977500D01*
X94340000Y-118977500D01*
X94000000Y-119447500D01*
G37*
%TO.C,C2*%
X63535000Y-103580000D02*
X65065000Y-103580000D01*
X63535000Y-105420000D02*
X65065000Y-105420000D01*
%TO.C,J6*%
X96820000Y-68420000D02*
X98200000Y-68420000D01*
X96820000Y-69800000D02*
X96820000Y-68420000D01*
X96820000Y-71070000D02*
X96820000Y-71180000D01*
X96820000Y-71070000D02*
X99580000Y-71070000D01*
X96820000Y-71180000D02*
X99580000Y-71180000D01*
X99580000Y-71070000D02*
X99580000Y-71180000D01*
%TO.C,J3*%
X96820000Y-76420000D02*
X98200000Y-76420000D01*
X96820000Y-77800000D02*
X96820000Y-76420000D01*
X96820000Y-79070000D02*
X96820000Y-96960000D01*
X96820000Y-79070000D02*
X99580000Y-79070000D01*
X96820000Y-96960000D02*
X99580000Y-96960000D01*
X99580000Y-79070000D02*
X99580000Y-96960000D01*
%TO.C,J2*%
X96820000Y-35040000D02*
X98200000Y-35040000D01*
X96820000Y-36420000D02*
X96820000Y-35040000D01*
X96820000Y-37690000D02*
X96820000Y-55580000D01*
X96820000Y-37690000D02*
X99580000Y-37690000D01*
X96820000Y-55580000D02*
X99580000Y-55580000D01*
X99580000Y-37690000D02*
X99580000Y-55580000D01*
%TO.C,J4*%
X60420000Y-76420000D02*
X61800000Y-76420000D01*
X60420000Y-77800000D02*
X60420000Y-76420000D01*
X60420000Y-79070000D02*
X60420000Y-96960000D01*
X60420000Y-79070000D02*
X63180000Y-79070000D01*
X60420000Y-96960000D02*
X63180000Y-96960000D01*
X63180000Y-79070000D02*
X63180000Y-96960000D01*
%TO.C,C4*%
X89880000Y-28630000D02*
X89880000Y-28967000D01*
X89880000Y-28630000D02*
X95120000Y-28630000D01*
X89880000Y-31033000D02*
X89880000Y-31370000D01*
X89880000Y-31370000D02*
X95120000Y-31370000D01*
X95120000Y-28630000D02*
X95120000Y-28967000D01*
X95120000Y-31033000D02*
X95120000Y-31370000D01*
%TO.C,J5*%
X96820000Y-60420000D02*
X98200000Y-60420000D01*
X96820000Y-61800000D02*
X96820000Y-60420000D01*
X96820000Y-63070000D02*
X96820000Y-63180000D01*
X96820000Y-63070000D02*
X99580000Y-63070000D01*
X96820000Y-63180000D02*
X99580000Y-63180000D01*
X99580000Y-63070000D02*
X99580000Y-63180000D01*
%TO.C,SW1*%
X76500000Y-106250000D02*
X76500000Y-107750000D01*
X77750000Y-110250000D02*
X82250000Y-110250000D01*
X82250000Y-103750000D02*
X77750000Y-103750000D01*
X83500000Y-107750000D02*
X83500000Y-106250000D01*
%TO.C,C1*%
X56985000Y-103580000D02*
X58515000Y-103580000D01*
X56985000Y-105420000D02*
X58515000Y-105420000D01*
%TO.C,J1*%
X60420000Y-35040000D02*
X61800000Y-35040000D01*
X60420000Y-36420000D02*
X60420000Y-35040000D01*
X60420000Y-37690000D02*
X60420000Y-55580000D01*
X60420000Y-37690000D02*
X63180000Y-37690000D01*
X60420000Y-55580000D02*
X63180000Y-55580000D01*
X63180000Y-37690000D02*
X63180000Y-55580000D01*
%TO.C,R1*%
X74280000Y-116380000D02*
X74280000Y-125620000D01*
X74280000Y-125620000D02*
X77720000Y-125620000D01*
X76000000Y-115690000D02*
X76000000Y-116380000D01*
X76000000Y-126310000D02*
X76000000Y-125620000D01*
X77720000Y-116380000D02*
X74280000Y-116380000D01*
X77720000Y-125620000D02*
X77720000Y-116380000D01*
%TO.C,Y1*%
X54450000Y-110680000D02*
X66450000Y-110680000D01*
X54450000Y-110800000D02*
X54450000Y-110680000D01*
X54800000Y-110800000D02*
X54800000Y-124200000D01*
X54800000Y-124200000D02*
X66100000Y-124200000D01*
X58000000Y-109950000D02*
X58000000Y-109950000D01*
X58000000Y-110800000D02*
X58000000Y-109950000D01*
X62900000Y-109950000D02*
X62900000Y-109950000D01*
X62900000Y-110800000D02*
X62900000Y-109950000D01*
X66100000Y-110800000D02*
X54800000Y-110800000D01*
X66100000Y-124200000D02*
X66100000Y-110800000D01*
X66450000Y-110680000D02*
X66450000Y-110800000D01*
X66450000Y-110800000D02*
X54450000Y-110800000D01*
%TO.C,C3*%
X88730199Y-110805000D02*
X89130199Y-110805000D01*
X88930199Y-110605000D02*
X88930199Y-111005000D01*
X91000000Y-109920000D02*
X91000000Y-114080000D01*
X91040000Y-109920000D02*
X91040000Y-114080000D01*
X91080000Y-109922000D02*
X91080000Y-114078000D01*
X91120000Y-109923000D02*
X91120000Y-114077000D01*
X91160000Y-109926000D02*
X91160000Y-114074000D01*
X91200000Y-109929000D02*
X91200000Y-111160000D01*
X91200000Y-112840000D02*
X91200000Y-114071000D01*
X91240000Y-109934000D02*
X91240000Y-111160000D01*
X91240000Y-112840000D02*
X91240000Y-114066000D01*
X91280000Y-109939000D02*
X91280000Y-111160000D01*
X91280000Y-112840000D02*
X91280000Y-114061000D01*
X91320000Y-109944000D02*
X91320000Y-111160000D01*
X91320000Y-112840000D02*
X91320000Y-114056000D01*
X91360000Y-109951000D02*
X91360000Y-111160000D01*
X91360000Y-112840000D02*
X91360000Y-114049000D01*
X91400000Y-109958000D02*
X91400000Y-111160000D01*
X91400000Y-112840000D02*
X91400000Y-114042000D01*
X91440000Y-109966000D02*
X91440000Y-111160000D01*
X91440000Y-112840000D02*
X91440000Y-114034000D01*
X91480000Y-109975000D02*
X91480000Y-111160000D01*
X91480000Y-112840000D02*
X91480000Y-114025000D01*
X91520000Y-109985000D02*
X91520000Y-111160000D01*
X91520000Y-112840000D02*
X91520000Y-114015000D01*
X91560000Y-109995000D02*
X91560000Y-111160000D01*
X91560000Y-112840000D02*
X91560000Y-114005000D01*
X91600000Y-110007000D02*
X91600000Y-111160000D01*
X91600000Y-112840000D02*
X91600000Y-113993000D01*
X91640000Y-110019000D02*
X91640000Y-111160000D01*
X91640000Y-112840000D02*
X91640000Y-113981000D01*
X91680000Y-110032000D02*
X91680000Y-111160000D01*
X91680000Y-112840000D02*
X91680000Y-113968000D01*
X91720000Y-110046000D02*
X91720000Y-111160000D01*
X91720000Y-112840000D02*
X91720000Y-113954000D01*
X91760000Y-110061000D02*
X91760000Y-111160000D01*
X91760000Y-112840000D02*
X91760000Y-113939000D01*
X91800000Y-110077000D02*
X91800000Y-111160000D01*
X91800000Y-112840000D02*
X91800000Y-113923000D01*
X91840000Y-110094000D02*
X91840000Y-111160000D01*
X91840000Y-112840000D02*
X91840000Y-113906000D01*
X91880000Y-110111000D02*
X91880000Y-111160000D01*
X91880000Y-112840000D02*
X91880000Y-113889000D01*
X91920000Y-110130000D02*
X91920000Y-111160000D01*
X91920000Y-112840000D02*
X91920000Y-113870000D01*
X91960000Y-110150000D02*
X91960000Y-111160000D01*
X91960000Y-112840000D02*
X91960000Y-113850000D01*
X92000000Y-110171000D02*
X92000000Y-111160000D01*
X92000000Y-112840000D02*
X92000000Y-113829000D01*
X92040000Y-110193000D02*
X92040000Y-111160000D01*
X92040000Y-112840000D02*
X92040000Y-113807000D01*
X92080000Y-110216000D02*
X92080000Y-111160000D01*
X92080000Y-112840000D02*
X92080000Y-113784000D01*
X92120000Y-110240000D02*
X92120000Y-111160000D01*
X92120000Y-112840000D02*
X92120000Y-113760000D01*
X92160000Y-110266000D02*
X92160000Y-111160000D01*
X92160000Y-112840000D02*
X92160000Y-113734000D01*
X92200000Y-110292000D02*
X92200000Y-111160000D01*
X92200000Y-112840000D02*
X92200000Y-113708000D01*
X92240000Y-110320000D02*
X92240000Y-111160000D01*
X92240000Y-112840000D02*
X92240000Y-113680000D01*
X92280000Y-110350000D02*
X92280000Y-111160000D01*
X92280000Y-112840000D02*
X92280000Y-113650000D01*
X92320000Y-110381000D02*
X92320000Y-111160000D01*
X92320000Y-112840000D02*
X92320000Y-113619000D01*
X92360000Y-110414000D02*
X92360000Y-111160000D01*
X92360000Y-112840000D02*
X92360000Y-113586000D01*
X92400000Y-110448000D02*
X92400000Y-111160000D01*
X92400000Y-112840000D02*
X92400000Y-113552000D01*
X92440000Y-110484000D02*
X92440000Y-111160000D01*
X92440000Y-112840000D02*
X92440000Y-113516000D01*
X92480000Y-110522000D02*
X92480000Y-111160000D01*
X92480000Y-112840000D02*
X92480000Y-113478000D01*
X92520000Y-110562000D02*
X92520000Y-111160000D01*
X92520000Y-112840000D02*
X92520000Y-113438000D01*
X92560000Y-110604000D02*
X92560000Y-111160000D01*
X92560000Y-112840000D02*
X92560000Y-113396000D01*
X92600000Y-110649000D02*
X92600000Y-111160000D01*
X92600000Y-112840000D02*
X92600000Y-113351000D01*
X92640000Y-110697000D02*
X92640000Y-111160000D01*
X92640000Y-112840000D02*
X92640000Y-113303000D01*
X92680000Y-110747000D02*
X92680000Y-111160000D01*
X92680000Y-112840000D02*
X92680000Y-113253000D01*
X92720000Y-110801000D02*
X92720000Y-111160000D01*
X92720000Y-112840000D02*
X92720000Y-113199000D01*
X92760000Y-110858000D02*
X92760000Y-111160000D01*
X92760000Y-112840000D02*
X92760000Y-113142000D01*
X92800000Y-110920000D02*
X92800000Y-111160000D01*
X92800000Y-112840000D02*
X92800000Y-113080000D01*
X92840000Y-110987000D02*
X92840000Y-113013000D01*
X92880000Y-111060000D02*
X92880000Y-112940000D01*
X92920000Y-111141000D02*
X92920000Y-112859000D01*
X92960000Y-111232000D02*
X92960000Y-112768000D01*
X93000000Y-111337000D02*
X93000000Y-112663000D01*
X93040000Y-111463000D02*
X93040000Y-112537000D01*
X93080000Y-111630000D02*
X93080000Y-112370000D01*
X93120000Y-112000000D02*
G75*
G02*
X88880000Y-112000000I-2120000J0D01*
G01*
X88880000Y-112000000D02*
G75*
G02*
X93120000Y-112000000I2120000J0D01*
G01*
%TO.C,U1*%
X67310000Y-46270000D02*
X67310000Y-43730000D01*
X68330000Y-34340000D02*
X68330000Y-36200000D01*
X68330000Y-41100000D02*
X68330000Y-100140000D01*
X68330000Y-100140000D02*
X91430000Y-100140000D01*
X70610000Y-34340000D02*
X70610000Y-36600000D01*
X91430000Y-34340000D02*
X68330000Y-34340000D01*
X91430000Y-100140000D02*
X91430000Y-34340000D01*
X69960000Y-38650000D02*
G75*
G02*
X68160000Y-38650000I-900000J0D01*
G01*
X68160000Y-38650000D02*
G75*
G02*
X69960000Y-38650000I900000J0D01*
G01*
X71610000Y-38650000D02*
G75*
G02*
X66510000Y-38650000I-2550000J0D01*
G01*
X66510000Y-38650000D02*
G75*
G02*
X71610000Y-38650000I2550000J0D01*
G01*
%TD*%
M02*
