%TF.GenerationSoftware,KiCad,Pcbnew,9.0.1*%
%TF.CreationDate,2025-10-13T20:06:21-07:00*%
%TF.ProjectId,schematic,73636865-6d61-4746-9963-2e6b69636164,rev?*%
%TF.SameCoordinates,Original*%
%TF.FileFunction,Copper,L2,Bot*%
%TF.FilePolarity,Positive*%
%FSLAX46Y46*%
G04 Gerber Fmt 4.6, Leading zero omitted, Abs format (unit mm)*
G04 Created by KiCad (PCBNEW 9.0.1) date 2025-10-13 20:06:21*
%MOMM*%
%LPD*%
G01*
G04 APERTURE LIST*
G04 Aperture macros list*
%AMRoundRect*
0 Rectangle with rounded corners*
0 $1 Rounding radius*
0 $2 $3 $4 $5 $6 $7 $8 $9 X,Y pos of 4 corners*
0 Add a 4 corners polygon primitive as box body*
4,1,4,$2,$3,$4,$5,$6,$7,$8,$9,$2,$3,0*
0 Add four circle primitives for the rounded corners*
1,1,$1+$1,$2,$3*
1,1,$1+$1,$4,$5*
1,1,$1+$1,$6,$7*
1,1,$1+$1,$8,$9*
0 Add four rect primitives between the rounded corners*
20,1,$1+$1,$2,$3,$4,$5,0*
20,1,$1+$1,$4,$5,$6,$7,0*
20,1,$1+$1,$6,$7,$8,$9,0*
20,1,$1+$1,$8,$9,$2,$3,0*%
G04 Aperture macros list end*
%TA.AperFunction,ComponentPad*%
%ADD10RoundRect,0.250000X-0.512000X-0.512000X0.512000X-0.512000X0.512000X0.512000X-0.512000X0.512000X0*%
%TD*%
%TA.AperFunction,ComponentPad*%
%ADD11C,1.524000*%
%TD*%
%TA.AperFunction,ComponentPad*%
%ADD12C,3.500000*%
%TD*%
%TA.AperFunction,ComponentPad*%
%ADD13C,1.600000*%
%TD*%
%TA.AperFunction,ComponentPad*%
%ADD14R,1.700000X1.700000*%
%TD*%
%TA.AperFunction,ComponentPad*%
%ADD15C,1.700000*%
%TD*%
%TA.AperFunction,ComponentPad*%
%ADD16C,2.000000*%
%TD*%
%TA.AperFunction,ComponentPad*%
%ADD17O,1.600000X1.600000*%
%TD*%
%TA.AperFunction,ComponentPad*%
%ADD18C,1.500000*%
%TD*%
%TA.AperFunction,ComponentPad*%
%ADD19R,1.200000X1.200000*%
%TD*%
%TA.AperFunction,ComponentPad*%
%ADD20C,1.200000*%
%TD*%
%TA.AperFunction,ComponentPad*%
%ADD21R,2.000000X1.440000*%
%TD*%
%TA.AperFunction,ComponentPad*%
%ADD22O,2.000000X1.440000*%
%TD*%
%TA.AperFunction,ViaPad*%
%ADD23C,0.600000*%
%TD*%
G04 APERTURE END LIST*
D10*
%TO.P,J7,1,VBUS*%
%TO.N,+5V*%
X94000000Y-120567500D03*
D11*
%TO.P,J7,2,D-*%
%TO.N,unconnected-(J7-D--Pad2)*%
X96500000Y-120567500D03*
%TO.P,J7,3,D+*%
%TO.N,unconnected-(J7-D+-Pad3)*%
X98500000Y-120567500D03*
%TO.P,J7,4,GND*%
%TO.N,GND*%
X101000000Y-120567500D03*
D12*
%TO.P,J7,5,Shield*%
X90930000Y-123277500D03*
X104070000Y-123277500D03*
%TD*%
D13*
%TO.P,C2,1*%
%TO.N,Net-(U1-XTAL2)*%
X63050000Y-104500000D03*
%TO.P,C2,2*%
%TO.N,GND*%
X65550000Y-104500000D03*
%TD*%
D14*
%TO.P,J6,1,Pin_1*%
%TO.N,Net-(J6-Pin_1)*%
X98200000Y-69800000D03*
%TD*%
%TO.P,J3,1,Pin_1*%
%TO.N,Net-(J3-Pin_1)*%
X98200000Y-77800000D03*
D15*
%TO.P,J3,2,Pin_2*%
%TO.N,Net-(J3-Pin_2)*%
X98200000Y-80340000D03*
%TO.P,J3,3,Pin_3*%
%TO.N,Net-(J3-Pin_3)*%
X98200000Y-82880000D03*
%TO.P,J3,4,Pin_4*%
%TO.N,Net-(J3-Pin_4)*%
X98200000Y-85420000D03*
%TO.P,J3,5,Pin_5*%
%TO.N,Net-(J3-Pin_5)*%
X98200000Y-87960000D03*
%TO.P,J3,6,Pin_6*%
%TO.N,Net-(J3-Pin_6)*%
X98200000Y-90500000D03*
%TO.P,J3,7,Pin_7*%
%TO.N,Net-(J3-Pin_7)*%
X98200000Y-93040000D03*
%TO.P,J3,8,Pin_8*%
%TO.N,Net-(J3-Pin_8)*%
X98200000Y-95580000D03*
%TD*%
D14*
%TO.P,J2,1,Pin_1*%
%TO.N,Net-(J2-Pin_1)*%
X98200000Y-36420000D03*
D15*
%TO.P,J2,2,Pin_2*%
%TO.N,Net-(J2-Pin_2)*%
X98200000Y-38960000D03*
%TO.P,J2,3,Pin_3*%
%TO.N,Net-(J2-Pin_3)*%
X98200000Y-41500000D03*
%TO.P,J2,4,Pin_4*%
%TO.N,Net-(J2-Pin_4)*%
X98200000Y-44040000D03*
%TO.P,J2,5,Pin_5*%
%TO.N,Net-(J2-Pin_5)*%
X98200000Y-46580000D03*
%TO.P,J2,6,Pin_6*%
%TO.N,Net-(J2-Pin_6)*%
X98200000Y-49120000D03*
%TO.P,J2,7,Pin_7*%
%TO.N,Net-(J2-Pin_7)*%
X98200000Y-51660000D03*
%TO.P,J2,8,Pin_8*%
%TO.N,Net-(J2-Pin_8)*%
X98200000Y-54200000D03*
%TD*%
D14*
%TO.P,J4,1,Pin_1*%
%TO.N,Net-(J4-Pin_1)*%
X61800000Y-77800000D03*
D15*
%TO.P,J4,2,Pin_2*%
%TO.N,Net-(J4-Pin_2)*%
X61800000Y-80340000D03*
%TO.P,J4,3,Pin_3*%
%TO.N,Net-(J4-Pin_3)*%
X61800000Y-82880000D03*
%TO.P,J4,4,Pin_4*%
%TO.N,Net-(J4-Pin_4)*%
X61800000Y-85420000D03*
%TO.P,J4,5,Pin_5*%
%TO.N,Net-(J4-Pin_5)*%
X61800000Y-87960000D03*
%TO.P,J4,6,Pin_6*%
%TO.N,Net-(J4-Pin_6)*%
X61800000Y-90500000D03*
%TO.P,J4,7,Pin_7*%
%TO.N,Net-(J4-Pin_7)*%
X61800000Y-93040000D03*
%TO.P,J4,8,Pin_8*%
%TO.N,Net-(J4-Pin_8)*%
X61800000Y-95580000D03*
%TD*%
D13*
%TO.P,C4,1*%
%TO.N,+5V*%
X90000000Y-30000000D03*
%TO.P,C4,2*%
%TO.N,GND*%
X95000000Y-30000000D03*
%TD*%
D14*
%TO.P,J5,1,Pin_1*%
%TO.N,Net-(J5-Pin_1)*%
X98200000Y-61800000D03*
%TD*%
D16*
%TO.P,SW1,1,1*%
%TO.N,+5V*%
X76750000Y-104750000D03*
X83250000Y-104750000D03*
%TO.P,SW1,2,2*%
%TO.N,Net-(U1-RST)*%
X76750000Y-109250000D03*
X83250000Y-109250000D03*
%TD*%
D13*
%TO.P,C1,1*%
%TO.N,GND*%
X56500000Y-104500000D03*
%TO.P,C1,2*%
%TO.N,Net-(U1-XTAL1)*%
X59000000Y-104500000D03*
%TD*%
D14*
%TO.P,J1,1,Pin_1*%
%TO.N,Net-(J1-Pin_1)*%
X61800000Y-36420000D03*
D15*
%TO.P,J1,2,Pin_2*%
%TO.N,Net-(J1-Pin_2)*%
X61800000Y-38960000D03*
%TO.P,J1,3,Pin_3*%
%TO.N,Net-(J1-Pin_3)*%
X61800000Y-41500000D03*
%TO.P,J1,4,Pin_4*%
%TO.N,Net-(J1-Pin_4)*%
X61800000Y-44040000D03*
%TO.P,J1,5,Pin_5*%
%TO.N,Net-(J1-Pin_5)*%
X61800000Y-46580000D03*
%TO.P,J1,6,Pin_6*%
%TO.N,Net-(J1-Pin_6)*%
X61800000Y-49120000D03*
%TO.P,J1,7,Pin_7*%
%TO.N,Net-(J1-Pin_7)*%
X61800000Y-51660000D03*
%TO.P,J1,8,Pin_8*%
%TO.N,Net-(J1-Pin_8)*%
X61800000Y-54200000D03*
%TD*%
D13*
%TO.P,R1,1*%
%TO.N,GND*%
X76000000Y-127350000D03*
D17*
%TO.P,R1,2*%
%TO.N,Net-(U1-RST)*%
X76000000Y-114650000D03*
%TD*%
D18*
%TO.P,Y1,1,1*%
%TO.N,Net-(U1-XTAL1)*%
X58000000Y-109000000D03*
%TO.P,Y1,2,2*%
%TO.N,Net-(U1-XTAL2)*%
X62900000Y-109000000D03*
%TD*%
D19*
%TO.P,C3,1*%
%TO.N,Net-(U1-RST)*%
X90000000Y-112000000D03*
D20*
%TO.P,C3,2*%
%TO.N,+5V*%
X92000000Y-112000000D03*
%TD*%
D21*
%TO.P,U1,1,P1.0*%
%TO.N,Net-(J1-Pin_1)*%
X72260000Y-45000000D03*
D22*
%TO.P,U1,2,P1.1*%
%TO.N,Net-(J1-Pin_2)*%
X72260000Y-47540000D03*
%TO.P,U1,3,P1.2*%
%TO.N,Net-(J1-Pin_3)*%
X72260000Y-50080000D03*
%TO.P,U1,4,P1.3*%
%TO.N,Net-(J1-Pin_4)*%
X72260000Y-52620000D03*
%TO.P,U1,5,P1.4*%
%TO.N,Net-(J1-Pin_5)*%
X72260000Y-55160000D03*
%TO.P,U1,6,P1.5*%
%TO.N,Net-(J1-Pin_6)*%
X72260000Y-57700000D03*
%TO.P,U1,7,P1.6*%
%TO.N,Net-(J1-Pin_7)*%
X72260000Y-60240000D03*
%TO.P,U1,8,P1.7*%
%TO.N,Net-(J1-Pin_8)*%
X72260000Y-62780000D03*
%TO.P,U1,9,RST*%
%TO.N,Net-(U1-RST)*%
X72260000Y-65320000D03*
%TO.P,U1,10,P3.0*%
%TO.N,Net-(J4-Pin_1)*%
X72260000Y-67860000D03*
%TO.P,U1,11,P3.1*%
%TO.N,Net-(J4-Pin_2)*%
X72260000Y-70400000D03*
%TO.P,U1,12,P3.2*%
%TO.N,Net-(J4-Pin_3)*%
X72260000Y-72940000D03*
%TO.P,U1,13,P3.3*%
%TO.N,Net-(J4-Pin_4)*%
X72260000Y-75480000D03*
%TO.P,U1,14,P3.4*%
%TO.N,Net-(J4-Pin_5)*%
X72260000Y-78020000D03*
%TO.P,U1,15,P3.5*%
%TO.N,Net-(J4-Pin_6)*%
X72260000Y-80560000D03*
%TO.P,U1,16,P3.6*%
%TO.N,Net-(J4-Pin_7)*%
X72260000Y-83100000D03*
%TO.P,U1,17,P3.7*%
%TO.N,Net-(J4-Pin_8)*%
X72260000Y-85640000D03*
%TO.P,U1,18,XTAL2*%
%TO.N,Net-(U1-XTAL2)*%
X72260000Y-88180000D03*
%TO.P,U1,19,XTAL1*%
%TO.N,Net-(U1-XTAL1)*%
X72260000Y-90720000D03*
%TO.P,U1,20,GND*%
%TO.N,GND*%
X72260000Y-93260000D03*
%TO.P,U1,21,P2.0*%
%TO.N,Net-(J3-Pin_8)*%
X87500000Y-93260000D03*
%TO.P,U1,22,P2.1*%
%TO.N,Net-(J3-Pin_7)*%
X87500000Y-90720000D03*
%TO.P,U1,23,P2.2*%
%TO.N,Net-(J3-Pin_6)*%
X87500000Y-88180000D03*
%TO.P,U1,24,P2.3*%
%TO.N,Net-(J3-Pin_5)*%
X87500000Y-85640000D03*
%TO.P,U1,25,P2.4*%
%TO.N,Net-(J3-Pin_4)*%
X87500000Y-83100000D03*
%TO.P,U1,26,P2.5*%
%TO.N,Net-(J3-Pin_3)*%
X87500000Y-80560000D03*
%TO.P,U1,27,P2.6*%
%TO.N,Net-(J3-Pin_2)*%
X87500000Y-78020000D03*
%TO.P,U1,28,P2.7*%
%TO.N,Net-(J3-Pin_1)*%
X87500000Y-75480000D03*
%TO.P,U1,29,~{PSEN}*%
%TO.N,Net-(J6-Pin_1)*%
X87500000Y-72940000D03*
%TO.P,U1,30,ALE/~{PROG}*%
%TO.N,Net-(J5-Pin_1)*%
X87500000Y-70400000D03*
%TO.P,U1,31,~{EA}/VPP*%
%TO.N,GND*%
X87500000Y-67860000D03*
%TO.P,U1,32,P0.7*%
%TO.N,Net-(J2-Pin_8)*%
X87500000Y-65320000D03*
%TO.P,U1,33,P0.6*%
%TO.N,Net-(J2-Pin_7)*%
X87500000Y-62780000D03*
%TO.P,U1,34,P0.5*%
%TO.N,Net-(J2-Pin_6)*%
X87500000Y-60240000D03*
%TO.P,U1,35,P0.4*%
%TO.N,Net-(J2-Pin_5)*%
X87500000Y-57700000D03*
%TO.P,U1,36,P0.3*%
%TO.N,Net-(J2-Pin_4)*%
X87500000Y-55160000D03*
%TO.P,U1,37,P0.2*%
%TO.N,Net-(J2-Pin_3)*%
X87500000Y-52620000D03*
%TO.P,U1,38,P0.1*%
%TO.N,Net-(J2-Pin_2)*%
X87500000Y-50080000D03*
%TO.P,U1,39,P0.0*%
%TO.N,Net-(J2-Pin_1)*%
X87500000Y-47540000D03*
%TO.P,U1,40,VCC*%
%TO.N,+5V*%
X87500000Y-45000000D03*
%TD*%
D23*
%TO.N,GND*%
X84500000Y-68000000D03*
%TO.N,+5V*%
X109000000Y-26000000D03*
X109000000Y-113500000D03*
%TD*%
%TA.AperFunction,Conductor*%
%TO.N,+5V*%
G36*
X109943039Y-25019685D02*
G01*
X109988794Y-25072489D01*
X110000000Y-25124000D01*
X110000000Y-123376000D01*
X109980315Y-123443039D01*
X109927511Y-123488794D01*
X109876000Y-123500000D01*
X108124000Y-123500000D01*
X108056961Y-123480315D01*
X108011206Y-123427511D01*
X108000000Y-123376000D01*
X108000000Y-25124000D01*
X108019685Y-25056961D01*
X108072489Y-25011206D01*
X108124000Y-25000000D01*
X109876000Y-25000000D01*
X109943039Y-25019685D01*
G37*
%TD.AperFunction*%
%TD*%
%TA.AperFunction,Conductor*%
%TO.N,GND*%
G36*
X111943039Y-17519685D02*
G01*
X111988794Y-17572489D01*
X112000000Y-17624000D01*
X112000000Y-134376000D01*
X111980315Y-134443039D01*
X111927511Y-134488794D01*
X111876000Y-134500000D01*
X51624000Y-134500000D01*
X51556961Y-134480315D01*
X51511206Y-134427511D01*
X51500000Y-134376000D01*
X51500000Y-127247682D01*
X74700000Y-127247682D01*
X74700000Y-127452317D01*
X74732009Y-127654417D01*
X74795244Y-127849031D01*
X74888141Y-128031350D01*
X74888147Y-128031359D01*
X74920523Y-128075921D01*
X74920524Y-128075922D01*
X75600000Y-127396446D01*
X75600000Y-127402661D01*
X75627259Y-127504394D01*
X75679920Y-127595606D01*
X75754394Y-127670080D01*
X75845606Y-127722741D01*
X75947339Y-127750000D01*
X75953553Y-127750000D01*
X75274076Y-128429474D01*
X75318650Y-128461859D01*
X75500968Y-128554755D01*
X75695582Y-128617990D01*
X75897683Y-128650000D01*
X76102317Y-128650000D01*
X76304417Y-128617990D01*
X76499031Y-128554755D01*
X76681349Y-128461859D01*
X76725921Y-128429474D01*
X76046447Y-127750000D01*
X76052661Y-127750000D01*
X76154394Y-127722741D01*
X76245606Y-127670080D01*
X76320080Y-127595606D01*
X76372741Y-127504394D01*
X76400000Y-127402661D01*
X76400000Y-127396447D01*
X77079474Y-128075921D01*
X77111859Y-128031349D01*
X77204755Y-127849031D01*
X77267990Y-127654417D01*
X77300000Y-127452317D01*
X77300000Y-127247682D01*
X77267990Y-127045582D01*
X77204755Y-126850968D01*
X77111859Y-126668650D01*
X77079474Y-126624077D01*
X77079474Y-126624076D01*
X76400000Y-127303551D01*
X76400000Y-127297339D01*
X76372741Y-127195606D01*
X76320080Y-127104394D01*
X76245606Y-127029920D01*
X76154394Y-126977259D01*
X76052661Y-126950000D01*
X76046446Y-126950000D01*
X76725922Y-126270524D01*
X76725921Y-126270523D01*
X76681359Y-126238147D01*
X76681350Y-126238141D01*
X76499031Y-126145244D01*
X76304417Y-126082009D01*
X76102317Y-126050000D01*
X75897683Y-126050000D01*
X75695582Y-126082009D01*
X75500968Y-126145244D01*
X75318644Y-126238143D01*
X75274077Y-126270523D01*
X75274077Y-126270524D01*
X75953554Y-126950000D01*
X75947339Y-126950000D01*
X75845606Y-126977259D01*
X75754394Y-127029920D01*
X75679920Y-127104394D01*
X75627259Y-127195606D01*
X75600000Y-127297339D01*
X75600000Y-127303553D01*
X74920524Y-126624077D01*
X74920523Y-126624077D01*
X74888143Y-126668644D01*
X74795244Y-126850968D01*
X74732009Y-127045582D01*
X74700000Y-127247682D01*
X51500000Y-127247682D01*
X51500000Y-123130033D01*
X88680000Y-123130033D01*
X88680000Y-123424966D01*
X88680001Y-123424983D01*
X88718496Y-123717384D01*
X88718499Y-123717397D01*
X88794835Y-124002290D01*
X88794838Y-124002300D01*
X88907704Y-124274781D01*
X88907709Y-124274792D01*
X89055174Y-124530207D01*
X89055180Y-124530215D01*
X89171777Y-124682167D01*
X89957912Y-123896031D01*
X90052829Y-124026675D01*
X90180825Y-124154671D01*
X90311466Y-124249586D01*
X89525331Y-125035721D01*
X89677284Y-125152319D01*
X89677292Y-125152325D01*
X89932707Y-125299790D01*
X89932718Y-125299795D01*
X90205199Y-125412661D01*
X90205209Y-125412664D01*
X90490102Y-125489000D01*
X90490115Y-125489003D01*
X90782516Y-125527498D01*
X90782534Y-125527500D01*
X91077466Y-125527500D01*
X91077483Y-125527498D01*
X91369884Y-125489003D01*
X91369897Y-125489000D01*
X91654790Y-125412664D01*
X91654800Y-125412661D01*
X91927281Y-125299795D01*
X91927292Y-125299790D01*
X92182707Y-125152325D01*
X92182725Y-125152313D01*
X92334667Y-125035722D01*
X92334667Y-125035720D01*
X91548533Y-124249586D01*
X91679175Y-124154671D01*
X91807171Y-124026675D01*
X91902086Y-123896033D01*
X92688220Y-124682167D01*
X92688222Y-124682167D01*
X92804813Y-124530225D01*
X92804825Y-124530207D01*
X92952290Y-124274792D01*
X92952295Y-124274781D01*
X93065161Y-124002300D01*
X93065164Y-124002290D01*
X93141500Y-123717397D01*
X93141503Y-123717384D01*
X93179998Y-123424983D01*
X93180000Y-123424966D01*
X93180000Y-123130033D01*
X101820000Y-123130033D01*
X101820000Y-123424966D01*
X101820001Y-123424983D01*
X101858496Y-123717384D01*
X101858499Y-123717397D01*
X101934835Y-124002290D01*
X101934838Y-124002300D01*
X102047704Y-124274781D01*
X102047709Y-124274792D01*
X102195174Y-124530207D01*
X102195180Y-124530215D01*
X102311777Y-124682167D01*
X103097912Y-123896032D01*
X103192829Y-124026675D01*
X103320825Y-124154671D01*
X103451466Y-124249586D01*
X102665331Y-125035721D01*
X102817284Y-125152319D01*
X102817292Y-125152325D01*
X103072707Y-125299790D01*
X103072718Y-125299795D01*
X103345199Y-125412661D01*
X103345209Y-125412664D01*
X103630102Y-125489000D01*
X103630115Y-125489003D01*
X103922516Y-125527498D01*
X103922534Y-125527500D01*
X104217466Y-125527500D01*
X104217483Y-125527498D01*
X104509884Y-125489003D01*
X104509897Y-125489000D01*
X104794790Y-125412664D01*
X104794800Y-125412661D01*
X105067281Y-125299795D01*
X105067292Y-125299790D01*
X105322707Y-125152325D01*
X105322725Y-125152313D01*
X105474667Y-125035722D01*
X105474667Y-125035720D01*
X104688533Y-124249586D01*
X104819175Y-124154671D01*
X104947171Y-124026675D01*
X105042086Y-123896033D01*
X105828220Y-124682167D01*
X105828222Y-124682167D01*
X105944813Y-124530225D01*
X105944825Y-124530207D01*
X106092290Y-124274792D01*
X106092295Y-124274781D01*
X106205161Y-124002300D01*
X106205164Y-124002290D01*
X106281500Y-123717397D01*
X106281503Y-123717384D01*
X106319998Y-123424983D01*
X106320000Y-123424966D01*
X106320000Y-123130033D01*
X106319998Y-123130016D01*
X106281503Y-122837615D01*
X106281500Y-122837602D01*
X106205164Y-122552709D01*
X106205161Y-122552699D01*
X106092295Y-122280218D01*
X106092290Y-122280207D01*
X105944825Y-122024792D01*
X105944819Y-122024784D01*
X105828221Y-121872831D01*
X105042086Y-122658966D01*
X104947171Y-122528325D01*
X104819175Y-122400329D01*
X104688532Y-122305412D01*
X105474667Y-121519277D01*
X105322715Y-121402680D01*
X105322707Y-121402674D01*
X105067292Y-121255209D01*
X105067281Y-121255204D01*
X104794800Y-121142338D01*
X104794790Y-121142335D01*
X104509897Y-121065999D01*
X104509884Y-121065996D01*
X104217483Y-121027501D01*
X104217466Y-121027500D01*
X103922534Y-121027500D01*
X103922516Y-121027501D01*
X103630115Y-121065996D01*
X103630102Y-121065999D01*
X103345209Y-121142335D01*
X103345199Y-121142338D01*
X103072718Y-121255204D01*
X103072707Y-121255209D01*
X102817292Y-121402674D01*
X102817276Y-121402685D01*
X102665331Y-121519275D01*
X102665331Y-121519277D01*
X103451466Y-122305412D01*
X103320825Y-122400329D01*
X103192829Y-122528325D01*
X103097912Y-122658966D01*
X102311777Y-121872831D01*
X102311775Y-121872831D01*
X102195185Y-122024776D01*
X102195174Y-122024792D01*
X102047709Y-122280207D01*
X102047704Y-122280218D01*
X101934838Y-122552699D01*
X101934835Y-122552709D01*
X101858499Y-122837602D01*
X101858496Y-122837615D01*
X101820001Y-123130016D01*
X101820000Y-123130033D01*
X93180000Y-123130033D01*
X93179998Y-123130016D01*
X93141503Y-122837615D01*
X93141500Y-122837602D01*
X93065164Y-122552709D01*
X93065161Y-122552699D01*
X92952295Y-122280218D01*
X92952290Y-122280207D01*
X92804825Y-122024792D01*
X92804819Y-122024784D01*
X92688221Y-121872831D01*
X91902086Y-122658966D01*
X91807171Y-122528325D01*
X91679175Y-122400329D01*
X91548532Y-122305412D01*
X92334667Y-121519277D01*
X92182715Y-121402680D01*
X92182707Y-121402674D01*
X91927292Y-121255209D01*
X91927281Y-121255204D01*
X91654800Y-121142338D01*
X91654790Y-121142335D01*
X91369897Y-121065999D01*
X91369884Y-121065996D01*
X91077483Y-121027501D01*
X91077466Y-121027500D01*
X90782534Y-121027500D01*
X90782516Y-121027501D01*
X90490115Y-121065996D01*
X90490102Y-121065999D01*
X90205209Y-121142335D01*
X90205199Y-121142338D01*
X89932718Y-121255204D01*
X89932707Y-121255209D01*
X89677292Y-121402674D01*
X89677276Y-121402685D01*
X89525331Y-121519275D01*
X89525331Y-121519277D01*
X90311466Y-122305412D01*
X90180825Y-122400329D01*
X90052829Y-122528325D01*
X89957912Y-122658966D01*
X89171777Y-121872831D01*
X89171775Y-121872831D01*
X89055185Y-122024776D01*
X89055174Y-122024792D01*
X88907709Y-122280207D01*
X88907704Y-122280218D01*
X88794838Y-122552699D01*
X88794835Y-122552709D01*
X88718499Y-122837602D01*
X88718496Y-122837615D01*
X88680001Y-123130016D01*
X88680000Y-123130033D01*
X51500000Y-123130033D01*
X51500000Y-120005483D01*
X92737500Y-120005483D01*
X92737500Y-121129501D01*
X92737501Y-121129518D01*
X92748000Y-121232296D01*
X92748001Y-121232299D01*
X92803185Y-121398831D01*
X92803187Y-121398836D01*
X92805558Y-121402680D01*
X92895288Y-121548156D01*
X93019344Y-121672212D01*
X93168666Y-121764314D01*
X93335203Y-121819499D01*
X93437991Y-121830000D01*
X94562008Y-121829999D01*
X94664797Y-121819499D01*
X94831334Y-121764314D01*
X94980656Y-121672212D01*
X95104712Y-121548156D01*
X95196814Y-121398834D01*
X95229393Y-121300515D01*
X95269164Y-121243073D01*
X95333680Y-121216250D01*
X95402456Y-121228565D01*
X95447416Y-121266636D01*
X95537019Y-121389964D01*
X95677536Y-121530481D01*
X95838306Y-121647287D01*
X95887220Y-121672210D01*
X96015367Y-121737505D01*
X96015370Y-121737506D01*
X96097872Y-121764312D01*
X96204364Y-121798913D01*
X96400639Y-121830000D01*
X96400640Y-121830000D01*
X96599360Y-121830000D01*
X96599361Y-121830000D01*
X96795636Y-121798913D01*
X96984632Y-121737505D01*
X97161694Y-121647287D01*
X97322464Y-121530481D01*
X97412319Y-121440626D01*
X97473642Y-121407141D01*
X97543334Y-121412125D01*
X97587681Y-121440626D01*
X97677536Y-121530481D01*
X97838306Y-121647287D01*
X97887220Y-121672210D01*
X98015367Y-121737505D01*
X98015370Y-121737506D01*
X98097872Y-121764312D01*
X98204364Y-121798913D01*
X98400639Y-121830000D01*
X98400640Y-121830000D01*
X98599360Y-121830000D01*
X98599361Y-121830000D01*
X98795636Y-121798913D01*
X98984632Y-121737505D01*
X99161694Y-121647287D01*
X99322464Y-121530481D01*
X99462981Y-121389964D01*
X99579787Y-121229194D01*
X99639796Y-121111419D01*
X99687769Y-121060624D01*
X99755590Y-121043829D01*
X99821725Y-121066366D01*
X99860765Y-121111420D01*
X99920641Y-121228932D01*
X99947730Y-121266215D01*
X99947731Y-121266216D01*
X100549697Y-120664249D01*
X100571349Y-120745053D01*
X100631909Y-120849946D01*
X100717554Y-120935591D01*
X100822447Y-120996151D01*
X100903250Y-121017802D01*
X100301283Y-121619768D01*
X100301283Y-121619769D01*
X100338567Y-121646858D01*
X100515562Y-121737042D01*
X100704477Y-121798424D01*
X100900679Y-121829500D01*
X101099321Y-121829500D01*
X101295520Y-121798424D01*
X101295523Y-121798424D01*
X101484437Y-121737042D01*
X101661425Y-121646862D01*
X101698716Y-121619768D01*
X101096750Y-121017802D01*
X101177553Y-120996151D01*
X101282446Y-120935591D01*
X101368091Y-120849946D01*
X101428651Y-120745053D01*
X101450302Y-120664249D01*
X102052268Y-121266215D01*
X102079362Y-121228925D01*
X102169542Y-121051937D01*
X102230924Y-120863023D01*
X102230924Y-120863020D01*
X102262000Y-120666821D01*
X102262000Y-120468178D01*
X102230924Y-120271979D01*
X102230924Y-120271976D01*
X102169542Y-120083062D01*
X102079358Y-119906067D01*
X102052268Y-119868783D01*
X101450302Y-120470749D01*
X101428651Y-120389947D01*
X101368091Y-120285054D01*
X101282446Y-120199409D01*
X101177553Y-120138849D01*
X101096749Y-120117197D01*
X101698716Y-119515231D01*
X101698715Y-119515230D01*
X101661432Y-119488141D01*
X101484437Y-119397957D01*
X101295522Y-119336575D01*
X101099321Y-119305500D01*
X100900679Y-119305500D01*
X100704479Y-119336575D01*
X100704476Y-119336575D01*
X100515562Y-119397957D01*
X100338564Y-119488143D01*
X100301283Y-119515229D01*
X100301282Y-119515230D01*
X100903250Y-120117197D01*
X100822447Y-120138849D01*
X100717554Y-120199409D01*
X100631909Y-120285054D01*
X100571349Y-120389947D01*
X100549697Y-120470750D01*
X99947730Y-119868782D01*
X99947729Y-119868783D01*
X99920641Y-119906066D01*
X99860764Y-120023580D01*
X99812790Y-120074375D01*
X99744968Y-120091170D01*
X99678834Y-120068632D01*
X99639796Y-120023580D01*
X99579787Y-119905806D01*
X99462981Y-119745036D01*
X99322464Y-119604519D01*
X99161694Y-119487713D01*
X98984632Y-119397494D01*
X98984629Y-119397493D01*
X98795637Y-119336087D01*
X98697498Y-119320543D01*
X98599361Y-119305000D01*
X98400639Y-119305000D01*
X98335214Y-119315362D01*
X98204362Y-119336087D01*
X98015370Y-119397493D01*
X98015367Y-119397494D01*
X97838305Y-119487713D01*
X97677533Y-119604521D01*
X97587681Y-119694374D01*
X97526358Y-119727859D01*
X97456666Y-119722875D01*
X97412319Y-119694374D01*
X97322466Y-119604521D01*
X97322464Y-119604519D01*
X97161694Y-119487713D01*
X96984632Y-119397494D01*
X96984629Y-119397493D01*
X96795637Y-119336087D01*
X96697498Y-119320543D01*
X96599361Y-119305000D01*
X96400639Y-119305000D01*
X96335214Y-119315362D01*
X96204362Y-119336087D01*
X96015370Y-119397493D01*
X96015367Y-119397494D01*
X95838305Y-119487713D01*
X95677533Y-119604521D01*
X95537020Y-119745034D01*
X95447416Y-119868363D01*
X95392085Y-119911028D01*
X95322472Y-119917007D01*
X95260677Y-119884401D01*
X95229392Y-119834481D01*
X95199753Y-119745036D01*
X95196814Y-119736166D01*
X95104712Y-119586844D01*
X94980656Y-119462788D01*
X94831334Y-119370686D01*
X94664797Y-119315501D01*
X94664795Y-119315500D01*
X94562010Y-119305000D01*
X93437998Y-119305000D01*
X93437981Y-119305001D01*
X93335203Y-119315500D01*
X93335200Y-119315501D01*
X93168668Y-119370685D01*
X93168663Y-119370687D01*
X93019342Y-119462789D01*
X92895289Y-119586842D01*
X92803187Y-119736163D01*
X92803185Y-119736168D01*
X92783363Y-119795988D01*
X92748001Y-119902703D01*
X92748001Y-119902704D01*
X92748000Y-119902704D01*
X92737500Y-120005483D01*
X51500000Y-120005483D01*
X51500000Y-114547648D01*
X74699500Y-114547648D01*
X74699500Y-114752351D01*
X74731522Y-114954534D01*
X74794781Y-115149223D01*
X74887715Y-115331613D01*
X75008028Y-115497213D01*
X75152786Y-115641971D01*
X75307749Y-115754556D01*
X75318390Y-115762287D01*
X75434607Y-115821503D01*
X75500776Y-115855218D01*
X75500778Y-115855218D01*
X75500781Y-115855220D01*
X75605137Y-115889127D01*
X75695465Y-115918477D01*
X75796557Y-115934488D01*
X75897648Y-115950500D01*
X75897649Y-115950500D01*
X76102351Y-115950500D01*
X76102352Y-115950500D01*
X76304534Y-115918477D01*
X76499219Y-115855220D01*
X76681610Y-115762287D01*
X76774590Y-115694732D01*
X76847213Y-115641971D01*
X76847215Y-115641968D01*
X76847219Y-115641966D01*
X76991966Y-115497219D01*
X76991968Y-115497215D01*
X76991971Y-115497213D01*
X77044732Y-115424590D01*
X77112287Y-115331610D01*
X77205220Y-115149219D01*
X77268477Y-114954534D01*
X77300500Y-114752352D01*
X77300500Y-114547648D01*
X77268477Y-114345466D01*
X77205220Y-114150781D01*
X77205218Y-114150778D01*
X77205218Y-114150776D01*
X77171503Y-114084607D01*
X77112287Y-113968390D01*
X77104556Y-113957749D01*
X76991971Y-113802786D01*
X76847213Y-113658028D01*
X76681613Y-113537715D01*
X76681612Y-113537714D01*
X76681610Y-113537713D01*
X76624653Y-113508691D01*
X76499223Y-113444781D01*
X76304534Y-113381522D01*
X76129995Y-113353878D01*
X76102352Y-113349500D01*
X75897648Y-113349500D01*
X75873329Y-113353351D01*
X75695465Y-113381522D01*
X75500776Y-113444781D01*
X75318386Y-113537715D01*
X75152786Y-113658028D01*
X75008028Y-113802786D01*
X74887715Y-113968386D01*
X74794781Y-114150776D01*
X74731522Y-114345465D01*
X74699500Y-114547648D01*
X51500000Y-114547648D01*
X51500000Y-111352135D01*
X88899500Y-111352135D01*
X88899500Y-112647870D01*
X88899501Y-112647876D01*
X88905908Y-112707483D01*
X88956202Y-112842328D01*
X88956206Y-112842335D01*
X89042452Y-112957544D01*
X89042455Y-112957547D01*
X89157664Y-113043793D01*
X89157671Y-113043797D01*
X89292517Y-113094091D01*
X89292516Y-113094091D01*
X89299444Y-113094835D01*
X89352127Y-113100500D01*
X90647872Y-113100499D01*
X90707483Y-113094091D01*
X90842331Y-113043796D01*
X90957546Y-112957546D01*
X91043796Y-112842331D01*
X91043797Y-112842326D01*
X91048047Y-112834546D01*
X91050337Y-112835796D01*
X91084017Y-112790791D01*
X91149478Y-112766364D01*
X91217753Y-112781206D01*
X91246024Y-112802366D01*
X91283072Y-112839414D01*
X91423212Y-112941232D01*
X91577555Y-113019873D01*
X91742299Y-113073402D01*
X91913389Y-113100500D01*
X91913390Y-113100500D01*
X92086610Y-113100500D01*
X92086611Y-113100500D01*
X92257701Y-113073402D01*
X92422445Y-113019873D01*
X92576788Y-112941232D01*
X92716928Y-112839414D01*
X92839414Y-112716928D01*
X92941232Y-112576788D01*
X93019873Y-112422445D01*
X93073402Y-112257701D01*
X93100500Y-112086611D01*
X93100500Y-111913389D01*
X93073402Y-111742299D01*
X93019873Y-111577555D01*
X92941232Y-111423212D01*
X92839414Y-111283072D01*
X92716928Y-111160586D01*
X92576788Y-111058768D01*
X92422445Y-110980127D01*
X92257701Y-110926598D01*
X92257699Y-110926597D01*
X92257698Y-110926597D01*
X92126271Y-110905781D01*
X92086611Y-110899500D01*
X91913389Y-110899500D01*
X91873728Y-110905781D01*
X91742302Y-110926597D01*
X91577552Y-110980128D01*
X91423211Y-111058768D01*
X91343256Y-111116859D01*
X91283072Y-111160586D01*
X91283070Y-111160588D01*
X91283068Y-111160589D01*
X91246023Y-111197634D01*
X91184700Y-111231119D01*
X91115008Y-111226133D01*
X91059075Y-111184261D01*
X91048632Y-111165134D01*
X91048047Y-111165454D01*
X91043793Y-111157664D01*
X90957547Y-111042455D01*
X90957544Y-111042452D01*
X90842335Y-110956206D01*
X90842328Y-110956202D01*
X90707482Y-110905908D01*
X90707483Y-110905908D01*
X90647883Y-110899501D01*
X90647881Y-110899500D01*
X90647873Y-110899500D01*
X90647864Y-110899500D01*
X89352129Y-110899500D01*
X89352123Y-110899501D01*
X89292516Y-110905908D01*
X89157671Y-110956202D01*
X89157664Y-110956206D01*
X89042455Y-111042452D01*
X89042452Y-111042455D01*
X88956206Y-111157664D01*
X88956202Y-111157671D01*
X88905908Y-111292517D01*
X88899501Y-111352116D01*
X88899500Y-111352135D01*
X51500000Y-111352135D01*
X51500000Y-108901577D01*
X56749500Y-108901577D01*
X56749500Y-109098422D01*
X56780290Y-109292826D01*
X56841117Y-109480029D01*
X56902943Y-109601368D01*
X56930476Y-109655405D01*
X57046172Y-109814646D01*
X57185354Y-109953828D01*
X57344595Y-110069524D01*
X57427455Y-110111743D01*
X57519970Y-110158882D01*
X57519972Y-110158882D01*
X57519975Y-110158884D01*
X57620317Y-110191487D01*
X57707173Y-110219709D01*
X57901578Y-110250500D01*
X57901583Y-110250500D01*
X58098422Y-110250500D01*
X58292826Y-110219709D01*
X58480025Y-110158884D01*
X58655405Y-110069524D01*
X58814646Y-109953828D01*
X58953828Y-109814646D01*
X59069524Y-109655405D01*
X59158884Y-109480025D01*
X59219709Y-109292826D01*
X59249040Y-109107638D01*
X59250500Y-109098422D01*
X59250500Y-108901577D01*
X61649500Y-108901577D01*
X61649500Y-109098422D01*
X61680290Y-109292826D01*
X61741117Y-109480029D01*
X61802943Y-109601368D01*
X61830476Y-109655405D01*
X61946172Y-109814646D01*
X62085354Y-109953828D01*
X62244595Y-110069524D01*
X62327455Y-110111743D01*
X62419970Y-110158882D01*
X62419972Y-110158882D01*
X62419975Y-110158884D01*
X62520317Y-110191487D01*
X62607173Y-110219709D01*
X62801578Y-110250500D01*
X62801583Y-110250500D01*
X62998422Y-110250500D01*
X63192826Y-110219709D01*
X63380025Y-110158884D01*
X63555405Y-110069524D01*
X63714646Y-109953828D01*
X63853828Y-109814646D01*
X63969524Y-109655405D01*
X64058884Y-109480025D01*
X64119709Y-109292826D01*
X64145197Y-109131902D01*
X75249500Y-109131902D01*
X75249500Y-109368097D01*
X75286446Y-109601368D01*
X75359433Y-109825996D01*
X75466657Y-110036433D01*
X75605483Y-110227510D01*
X75772490Y-110394517D01*
X75963567Y-110533343D01*
X76062991Y-110584002D01*
X76174003Y-110640566D01*
X76174005Y-110640566D01*
X76174008Y-110640568D01*
X76294412Y-110679689D01*
X76398631Y-110713553D01*
X76631903Y-110750500D01*
X76631908Y-110750500D01*
X76868097Y-110750500D01*
X77101368Y-110713553D01*
X77325992Y-110640568D01*
X77536433Y-110533343D01*
X77727510Y-110394517D01*
X77894517Y-110227510D01*
X78033343Y-110036433D01*
X78140568Y-109825992D01*
X78213553Y-109601368D01*
X78232772Y-109480025D01*
X78250500Y-109368097D01*
X78250500Y-109131902D01*
X81749500Y-109131902D01*
X81749500Y-109368097D01*
X81786446Y-109601368D01*
X81859433Y-109825996D01*
X81966657Y-110036433D01*
X82105483Y-110227510D01*
X82272490Y-110394517D01*
X82463567Y-110533343D01*
X82562991Y-110584002D01*
X82674003Y-110640566D01*
X82674005Y-110640566D01*
X82674008Y-110640568D01*
X82794412Y-110679689D01*
X82898631Y-110713553D01*
X83131903Y-110750500D01*
X83131908Y-110750500D01*
X83368097Y-110750500D01*
X83601368Y-110713553D01*
X83825992Y-110640568D01*
X84036433Y-110533343D01*
X84227510Y-110394517D01*
X84394517Y-110227510D01*
X84533343Y-110036433D01*
X84640568Y-109825992D01*
X84713553Y-109601368D01*
X84732772Y-109480025D01*
X84750500Y-109368097D01*
X84750500Y-109131902D01*
X84713553Y-108898631D01*
X84640566Y-108674003D01*
X84533342Y-108463566D01*
X84394517Y-108272490D01*
X84227510Y-108105483D01*
X84036433Y-107966657D01*
X83965424Y-107930476D01*
X83825996Y-107859433D01*
X83601368Y-107786446D01*
X83368097Y-107749500D01*
X83368092Y-107749500D01*
X83131908Y-107749500D01*
X83131903Y-107749500D01*
X82898631Y-107786446D01*
X82674003Y-107859433D01*
X82463566Y-107966657D01*
X82354550Y-108045862D01*
X82272490Y-108105483D01*
X82272488Y-108105485D01*
X82272487Y-108105485D01*
X82105485Y-108272487D01*
X82105485Y-108272488D01*
X82105483Y-108272490D01*
X82045862Y-108354550D01*
X81966657Y-108463566D01*
X81859433Y-108674003D01*
X81786446Y-108898631D01*
X81749500Y-109131902D01*
X78250500Y-109131902D01*
X78213553Y-108898631D01*
X78140566Y-108674003D01*
X78033342Y-108463566D01*
X77894517Y-108272490D01*
X77727510Y-108105483D01*
X77536433Y-107966657D01*
X77465424Y-107930476D01*
X77325996Y-107859433D01*
X77101368Y-107786446D01*
X76868097Y-107749500D01*
X76868092Y-107749500D01*
X76631908Y-107749500D01*
X76631903Y-107749500D01*
X76398631Y-107786446D01*
X76174003Y-107859433D01*
X75963566Y-107966657D01*
X75854550Y-108045862D01*
X75772490Y-108105483D01*
X75772488Y-108105485D01*
X75772487Y-108105485D01*
X75605485Y-108272487D01*
X75605485Y-108272488D01*
X75605483Y-108272490D01*
X75545862Y-108354550D01*
X75466657Y-108463566D01*
X75359433Y-108674003D01*
X75286446Y-108898631D01*
X75249500Y-109131902D01*
X64145197Y-109131902D01*
X64150500Y-109098417D01*
X64150500Y-108901583D01*
X64150500Y-108901577D01*
X64119709Y-108707173D01*
X64058882Y-108519970D01*
X63969523Y-108344594D01*
X63917136Y-108272490D01*
X63853828Y-108185354D01*
X63714646Y-108046172D01*
X63555405Y-107930476D01*
X63380029Y-107841117D01*
X63192826Y-107780290D01*
X62998422Y-107749500D01*
X62998417Y-107749500D01*
X62801583Y-107749500D01*
X62801578Y-107749500D01*
X62607173Y-107780290D01*
X62419970Y-107841117D01*
X62244594Y-107930476D01*
X62194796Y-107966657D01*
X62085354Y-108046172D01*
X62085352Y-108046174D01*
X62085351Y-108046174D01*
X61946174Y-108185351D01*
X61946174Y-108185352D01*
X61946172Y-108185354D01*
X61896485Y-108253741D01*
X61830476Y-108344594D01*
X61741117Y-108519970D01*
X61680290Y-108707173D01*
X61649500Y-108901577D01*
X59250500Y-108901577D01*
X59219709Y-108707173D01*
X59158882Y-108519970D01*
X59069523Y-108344594D01*
X59017136Y-108272490D01*
X58953828Y-108185354D01*
X58814646Y-108046172D01*
X58655405Y-107930476D01*
X58480029Y-107841117D01*
X58292826Y-107780290D01*
X58098422Y-107749500D01*
X58098417Y-107749500D01*
X57901583Y-107749500D01*
X57901578Y-107749500D01*
X57707173Y-107780290D01*
X57519970Y-107841117D01*
X57344594Y-107930476D01*
X57294796Y-107966657D01*
X57185354Y-108046172D01*
X57185352Y-108046174D01*
X57185351Y-108046174D01*
X57046174Y-108185351D01*
X57046174Y-108185352D01*
X57046172Y-108185354D01*
X56996485Y-108253741D01*
X56930476Y-108344594D01*
X56841117Y-108519970D01*
X56780290Y-108707173D01*
X56749500Y-108901577D01*
X51500000Y-108901577D01*
X51500000Y-104397682D01*
X55200000Y-104397682D01*
X55200000Y-104602317D01*
X55232009Y-104804417D01*
X55295244Y-104999031D01*
X55388141Y-105181350D01*
X55388147Y-105181359D01*
X55420523Y-105225921D01*
X55420524Y-105225922D01*
X56100000Y-104546446D01*
X56100000Y-104552661D01*
X56127259Y-104654394D01*
X56179920Y-104745606D01*
X56254394Y-104820080D01*
X56345606Y-104872741D01*
X56447339Y-104900000D01*
X56453553Y-104900000D01*
X55774076Y-105579474D01*
X55818650Y-105611859D01*
X56000968Y-105704755D01*
X56195582Y-105767990D01*
X56397683Y-105800000D01*
X56602317Y-105800000D01*
X56804417Y-105767990D01*
X56999031Y-105704755D01*
X57181349Y-105611859D01*
X57225921Y-105579474D01*
X56546447Y-104900000D01*
X56552661Y-104900000D01*
X56654394Y-104872741D01*
X56745606Y-104820080D01*
X56820080Y-104745606D01*
X56872741Y-104654394D01*
X56900000Y-104552661D01*
X56900000Y-104546447D01*
X57579474Y-105225921D01*
X57611859Y-105181349D01*
X57639233Y-105127624D01*
X57687207Y-105076827D01*
X57755028Y-105060031D01*
X57821163Y-105082567D01*
X57860203Y-105127621D01*
X57887713Y-105181611D01*
X58008028Y-105347213D01*
X58152786Y-105491971D01*
X58273226Y-105579474D01*
X58318390Y-105612287D01*
X58434607Y-105671503D01*
X58500776Y-105705218D01*
X58500778Y-105705218D01*
X58500781Y-105705220D01*
X58569383Y-105727510D01*
X58695465Y-105768477D01*
X58796557Y-105784488D01*
X58897648Y-105800500D01*
X58897649Y-105800500D01*
X59102351Y-105800500D01*
X59102352Y-105800500D01*
X59304534Y-105768477D01*
X59499219Y-105705220D01*
X59681610Y-105612287D01*
X59786015Y-105536433D01*
X59847213Y-105491971D01*
X59847215Y-105491968D01*
X59847219Y-105491966D01*
X59991966Y-105347219D01*
X59991968Y-105347215D01*
X59991971Y-105347213D01*
X60044732Y-105274590D01*
X60112287Y-105181610D01*
X60205220Y-104999219D01*
X60268477Y-104804534D01*
X60300500Y-104602352D01*
X60300500Y-104397648D01*
X61749500Y-104397648D01*
X61749500Y-104602351D01*
X61781522Y-104804534D01*
X61844781Y-104999223D01*
X61908691Y-105124653D01*
X61937585Y-105181359D01*
X61937715Y-105181613D01*
X62058028Y-105347213D01*
X62202786Y-105491971D01*
X62323226Y-105579474D01*
X62368390Y-105612287D01*
X62484607Y-105671503D01*
X62550776Y-105705218D01*
X62550778Y-105705218D01*
X62550781Y-105705220D01*
X62619383Y-105727510D01*
X62745465Y-105768477D01*
X62846557Y-105784488D01*
X62947648Y-105800500D01*
X62947649Y-105800500D01*
X63152351Y-105800500D01*
X63152352Y-105800500D01*
X63354534Y-105768477D01*
X63549219Y-105705220D01*
X63731610Y-105612287D01*
X63836015Y-105536433D01*
X63897213Y-105491971D01*
X63897215Y-105491968D01*
X63897219Y-105491966D01*
X64041966Y-105347219D01*
X64041968Y-105347215D01*
X64041971Y-105347213D01*
X64162286Y-105181611D01*
X64162415Y-105181359D01*
X64189795Y-105127621D01*
X64237769Y-105076826D01*
X64305589Y-105060030D01*
X64371725Y-105082567D01*
X64410765Y-105127621D01*
X64438141Y-105181350D01*
X64438147Y-105181359D01*
X64470523Y-105225921D01*
X64470524Y-105225922D01*
X65150000Y-104546446D01*
X65150000Y-104552661D01*
X65177259Y-104654394D01*
X65229920Y-104745606D01*
X65304394Y-104820080D01*
X65395606Y-104872741D01*
X65497339Y-104900000D01*
X65503553Y-104900000D01*
X64824076Y-105579474D01*
X64868650Y-105611859D01*
X65050968Y-105704755D01*
X65245582Y-105767990D01*
X65447683Y-105800000D01*
X65652317Y-105800000D01*
X65854417Y-105767990D01*
X66049031Y-105704755D01*
X66231349Y-105611859D01*
X66275921Y-105579474D01*
X65596447Y-104900000D01*
X65602661Y-104900000D01*
X65704394Y-104872741D01*
X65795606Y-104820080D01*
X65870080Y-104745606D01*
X65922741Y-104654394D01*
X65950000Y-104552661D01*
X65950000Y-104546447D01*
X66629474Y-105225921D01*
X66661859Y-105181349D01*
X66754755Y-104999031D01*
X66817990Y-104804417D01*
X66845314Y-104631902D01*
X75249500Y-104631902D01*
X75249500Y-104868097D01*
X75286446Y-105101368D01*
X75359433Y-105325996D01*
X75419832Y-105444534D01*
X75466657Y-105536433D01*
X75605483Y-105727510D01*
X75772490Y-105894517D01*
X75963567Y-106033343D01*
X76062991Y-106084002D01*
X76174003Y-106140566D01*
X76174005Y-106140566D01*
X76174008Y-106140568D01*
X76294412Y-106179689D01*
X76398631Y-106213553D01*
X76631903Y-106250500D01*
X76631908Y-106250500D01*
X76868097Y-106250500D01*
X77101368Y-106213553D01*
X77325992Y-106140568D01*
X77536433Y-106033343D01*
X77727510Y-105894517D01*
X77894517Y-105727510D01*
X78033343Y-105536433D01*
X78140568Y-105325992D01*
X78213553Y-105101368D01*
X78229732Y-104999219D01*
X78250500Y-104868097D01*
X78250500Y-104631902D01*
X81749500Y-104631902D01*
X81749500Y-104868097D01*
X81786446Y-105101368D01*
X81859433Y-105325996D01*
X81919832Y-105444534D01*
X81966657Y-105536433D01*
X82105483Y-105727510D01*
X82272490Y-105894517D01*
X82463567Y-106033343D01*
X82562991Y-106084002D01*
X82674003Y-106140566D01*
X82674005Y-106140566D01*
X82674008Y-106140568D01*
X82794412Y-106179689D01*
X82898631Y-106213553D01*
X83131903Y-106250500D01*
X83131908Y-106250500D01*
X83368097Y-106250500D01*
X83601368Y-106213553D01*
X83825992Y-106140568D01*
X84036433Y-106033343D01*
X84227510Y-105894517D01*
X84394517Y-105727510D01*
X84533343Y-105536433D01*
X84640568Y-105325992D01*
X84713553Y-105101368D01*
X84729732Y-104999219D01*
X84750500Y-104868097D01*
X84750500Y-104631902D01*
X84713553Y-104398631D01*
X84640566Y-104174003D01*
X84584002Y-104062991D01*
X84533343Y-103963567D01*
X84394517Y-103772490D01*
X84227510Y-103605483D01*
X84036433Y-103466657D01*
X83825996Y-103359433D01*
X83601368Y-103286446D01*
X83368097Y-103249500D01*
X83368092Y-103249500D01*
X83131908Y-103249500D01*
X83131903Y-103249500D01*
X82898631Y-103286446D01*
X82674003Y-103359433D01*
X82463566Y-103466657D01*
X82354550Y-103545862D01*
X82272490Y-103605483D01*
X82272488Y-103605485D01*
X82272487Y-103605485D01*
X82105485Y-103772487D01*
X82105485Y-103772488D01*
X82105483Y-103772490D01*
X82072138Y-103818385D01*
X81966657Y-103963566D01*
X81859433Y-104174003D01*
X81786446Y-104398631D01*
X81749500Y-104631902D01*
X78250500Y-104631902D01*
X78213553Y-104398631D01*
X78140566Y-104174003D01*
X78084002Y-104062991D01*
X78033343Y-103963567D01*
X77894517Y-103772490D01*
X77727510Y-103605483D01*
X77536433Y-103466657D01*
X77325996Y-103359433D01*
X77101368Y-103286446D01*
X76868097Y-103249500D01*
X76868092Y-103249500D01*
X76631908Y-103249500D01*
X76631903Y-103249500D01*
X76398631Y-103286446D01*
X76174003Y-103359433D01*
X75963566Y-103466657D01*
X75854550Y-103545862D01*
X75772490Y-103605483D01*
X75772488Y-103605485D01*
X75772487Y-103605485D01*
X75605485Y-103772487D01*
X75605485Y-103772488D01*
X75605483Y-103772490D01*
X75572138Y-103818385D01*
X75466657Y-103963566D01*
X75359433Y-104174003D01*
X75286446Y-104398631D01*
X75249500Y-104631902D01*
X66845314Y-104631902D01*
X66849157Y-104607638D01*
X66849157Y-104607635D01*
X66850000Y-104602313D01*
X66850000Y-104397682D01*
X66817990Y-104195582D01*
X66754755Y-104000968D01*
X66661859Y-103818650D01*
X66629474Y-103774077D01*
X66629474Y-103774076D01*
X65950000Y-104453551D01*
X65950000Y-104447339D01*
X65922741Y-104345606D01*
X65870080Y-104254394D01*
X65795606Y-104179920D01*
X65704394Y-104127259D01*
X65602661Y-104100000D01*
X65596446Y-104100000D01*
X66275922Y-103420524D01*
X66275921Y-103420523D01*
X66231359Y-103388147D01*
X66231350Y-103388141D01*
X66049031Y-103295244D01*
X65854417Y-103232009D01*
X65652317Y-103200000D01*
X65447683Y-103200000D01*
X65245582Y-103232009D01*
X65050968Y-103295244D01*
X64868644Y-103388143D01*
X64824077Y-103420523D01*
X64824077Y-103420524D01*
X65503554Y-104100000D01*
X65497339Y-104100000D01*
X65395606Y-104127259D01*
X65304394Y-104179920D01*
X65229920Y-104254394D01*
X65177259Y-104345606D01*
X65150000Y-104447339D01*
X65150000Y-104453553D01*
X64470524Y-103774077D01*
X64470523Y-103774077D01*
X64438143Y-103818644D01*
X64410765Y-103872378D01*
X64362790Y-103923174D01*
X64294969Y-103939969D01*
X64228834Y-103917431D01*
X64189795Y-103872378D01*
X64162284Y-103818385D01*
X64041971Y-103652786D01*
X63897213Y-103508028D01*
X63731613Y-103387715D01*
X63731612Y-103387714D01*
X63731610Y-103387713D01*
X63674653Y-103358691D01*
X63549223Y-103294781D01*
X63354534Y-103231522D01*
X63179995Y-103203878D01*
X63152352Y-103199500D01*
X62947648Y-103199500D01*
X62923329Y-103203351D01*
X62745465Y-103231522D01*
X62550776Y-103294781D01*
X62368386Y-103387715D01*
X62202786Y-103508028D01*
X62058028Y-103652786D01*
X61937715Y-103818386D01*
X61844781Y-104000776D01*
X61781522Y-104195465D01*
X61749500Y-104397648D01*
X60300500Y-104397648D01*
X60292257Y-104345606D01*
X60268477Y-104195465D01*
X60237458Y-104100000D01*
X60205220Y-104000781D01*
X60205218Y-104000778D01*
X60205218Y-104000776D01*
X60162750Y-103917429D01*
X60112287Y-103818390D01*
X60080092Y-103774077D01*
X59991971Y-103652786D01*
X59847213Y-103508028D01*
X59681613Y-103387715D01*
X59681612Y-103387714D01*
X59681610Y-103387713D01*
X59624653Y-103358691D01*
X59499223Y-103294781D01*
X59304534Y-103231522D01*
X59129995Y-103203878D01*
X59102352Y-103199500D01*
X58897648Y-103199500D01*
X58873329Y-103203351D01*
X58695465Y-103231522D01*
X58500776Y-103294781D01*
X58318386Y-103387715D01*
X58152786Y-103508028D01*
X58008028Y-103652786D01*
X57887714Y-103818386D01*
X57860203Y-103872379D01*
X57812227Y-103923174D01*
X57744406Y-103939968D01*
X57678272Y-103917429D01*
X57639234Y-103872376D01*
X57611861Y-103818652D01*
X57579474Y-103774077D01*
X57579474Y-103774076D01*
X56900000Y-104453551D01*
X56900000Y-104447339D01*
X56872741Y-104345606D01*
X56820080Y-104254394D01*
X56745606Y-104179920D01*
X56654394Y-104127259D01*
X56552661Y-104100000D01*
X56546446Y-104100000D01*
X57225922Y-103420524D01*
X57225921Y-103420523D01*
X57181359Y-103388147D01*
X57181350Y-103388141D01*
X56999031Y-103295244D01*
X56804417Y-103232009D01*
X56602317Y-103200000D01*
X56397683Y-103200000D01*
X56195582Y-103232009D01*
X56000968Y-103295244D01*
X55818644Y-103388143D01*
X55774077Y-103420523D01*
X55774077Y-103420524D01*
X56453554Y-104100000D01*
X56447339Y-104100000D01*
X56345606Y-104127259D01*
X56254394Y-104179920D01*
X56179920Y-104254394D01*
X56127259Y-104345606D01*
X56100000Y-104447339D01*
X56100000Y-104453553D01*
X55420524Y-103774077D01*
X55420523Y-103774077D01*
X55388143Y-103818644D01*
X55295244Y-104000968D01*
X55232009Y-104195582D01*
X55200000Y-104397682D01*
X51500000Y-104397682D01*
X51500000Y-76902135D01*
X60449500Y-76902135D01*
X60449500Y-78697870D01*
X60449501Y-78697876D01*
X60455908Y-78757483D01*
X60506202Y-78892328D01*
X60506206Y-78892335D01*
X60592452Y-79007544D01*
X60592455Y-79007547D01*
X60707664Y-79093793D01*
X60707671Y-79093797D01*
X60839082Y-79142810D01*
X60895016Y-79184681D01*
X60919433Y-79250145D01*
X60904582Y-79318418D01*
X60883431Y-79346673D01*
X60769889Y-79460215D01*
X60644951Y-79632179D01*
X60548444Y-79821585D01*
X60482753Y-80023760D01*
X60449500Y-80233713D01*
X60449500Y-80446287D01*
X60482754Y-80656243D01*
X60544345Y-80845801D01*
X60548444Y-80858414D01*
X60644951Y-81047820D01*
X60769890Y-81219786D01*
X60920213Y-81370109D01*
X61092182Y-81495050D01*
X61100946Y-81499516D01*
X61151742Y-81547491D01*
X61168536Y-81615312D01*
X61145998Y-81681447D01*
X61100946Y-81720484D01*
X61092182Y-81724949D01*
X60920213Y-81849890D01*
X60769890Y-82000213D01*
X60644951Y-82172179D01*
X60548444Y-82361585D01*
X60482753Y-82563760D01*
X60449500Y-82773713D01*
X60449500Y-82986287D01*
X60482754Y-83196243D01*
X60544345Y-83385801D01*
X60548444Y-83398414D01*
X60644951Y-83587820D01*
X60769890Y-83759786D01*
X60920213Y-83910109D01*
X61092182Y-84035050D01*
X61100946Y-84039516D01*
X61151742Y-84087491D01*
X61168536Y-84155312D01*
X61145998Y-84221447D01*
X61100946Y-84260484D01*
X61092182Y-84264949D01*
X60920213Y-84389890D01*
X60769890Y-84540213D01*
X60644951Y-84712179D01*
X60548444Y-84901585D01*
X60482753Y-85103760D01*
X60449500Y-85313713D01*
X60449500Y-85526287D01*
X60482754Y-85736243D01*
X60544345Y-85925801D01*
X60548444Y-85938414D01*
X60644951Y-86127820D01*
X60769890Y-86299786D01*
X60920213Y-86450109D01*
X61092182Y-86575050D01*
X61100946Y-86579516D01*
X61151742Y-86627491D01*
X61168536Y-86695312D01*
X61145998Y-86761447D01*
X61100946Y-86800484D01*
X61092182Y-86804949D01*
X60920213Y-86929890D01*
X60769890Y-87080213D01*
X60644951Y-87252179D01*
X60548444Y-87441585D01*
X60482753Y-87643760D01*
X60449500Y-87853713D01*
X60449500Y-88066287D01*
X60482754Y-88276243D01*
X60544345Y-88465801D01*
X60548444Y-88478414D01*
X60644951Y-88667820D01*
X60769890Y-88839786D01*
X60920213Y-88990109D01*
X61092182Y-89115050D01*
X61100946Y-89119516D01*
X61151742Y-89167491D01*
X61168536Y-89235312D01*
X61145998Y-89301447D01*
X61100946Y-89340484D01*
X61092182Y-89344949D01*
X60920213Y-89469890D01*
X60769890Y-89620213D01*
X60644951Y-89792179D01*
X60548444Y-89981585D01*
X60482753Y-90183760D01*
X60449500Y-90393713D01*
X60449500Y-90606287D01*
X60482754Y-90816243D01*
X60544345Y-91005801D01*
X60548444Y-91018414D01*
X60644951Y-91207820D01*
X60769890Y-91379786D01*
X60920213Y-91530109D01*
X61092182Y-91655050D01*
X61100946Y-91659516D01*
X61151742Y-91707491D01*
X61168536Y-91775312D01*
X61145998Y-91841447D01*
X61100946Y-91880484D01*
X61092182Y-91884949D01*
X60920213Y-92009890D01*
X60769890Y-92160213D01*
X60644951Y-92332179D01*
X60548444Y-92521585D01*
X60482753Y-92723760D01*
X60449500Y-92933713D01*
X60449500Y-93146286D01*
X60482753Y-93356239D01*
X60482753Y-93356241D01*
X60482754Y-93356243D01*
X60544345Y-93545801D01*
X60548444Y-93558414D01*
X60644951Y-93747820D01*
X60769890Y-93919786D01*
X60920213Y-94070109D01*
X61092182Y-94195050D01*
X61100946Y-94199516D01*
X61151742Y-94247491D01*
X61168536Y-94315312D01*
X61145998Y-94381447D01*
X61100946Y-94420484D01*
X61092182Y-94424949D01*
X60920213Y-94549890D01*
X60769890Y-94700213D01*
X60644951Y-94872179D01*
X60548444Y-95061585D01*
X60482753Y-95263760D01*
X60449500Y-95473713D01*
X60449500Y-95686286D01*
X60482753Y-95896239D01*
X60548444Y-96098414D01*
X60644951Y-96287820D01*
X60769890Y-96459786D01*
X60920213Y-96610109D01*
X61092179Y-96735048D01*
X61092181Y-96735049D01*
X61092184Y-96735051D01*
X61281588Y-96831557D01*
X61483757Y-96897246D01*
X61693713Y-96930500D01*
X61693714Y-96930500D01*
X61906286Y-96930500D01*
X61906287Y-96930500D01*
X62116243Y-96897246D01*
X62318412Y-96831557D01*
X62507816Y-96735051D01*
X62529789Y-96719086D01*
X62679786Y-96610109D01*
X62679788Y-96610106D01*
X62679792Y-96610104D01*
X62830104Y-96459792D01*
X62830106Y-96459788D01*
X62830109Y-96459786D01*
X62955048Y-96287820D01*
X62955047Y-96287820D01*
X62955051Y-96287816D01*
X63051557Y-96098412D01*
X63117246Y-95896243D01*
X63150500Y-95686287D01*
X63150500Y-95473713D01*
X63117246Y-95263757D01*
X63051557Y-95061588D01*
X62955051Y-94872184D01*
X62955049Y-94872181D01*
X62955048Y-94872179D01*
X62830109Y-94700213D01*
X62679786Y-94549890D01*
X62507820Y-94424951D01*
X62507115Y-94424591D01*
X62499054Y-94420485D01*
X62448259Y-94372512D01*
X62431463Y-94304692D01*
X62453999Y-94238556D01*
X62499054Y-94199515D01*
X62507816Y-94195051D01*
X62529789Y-94179086D01*
X62679786Y-94070109D01*
X62679788Y-94070106D01*
X62679792Y-94070104D01*
X62830104Y-93919792D01*
X62830106Y-93919788D01*
X62830109Y-93919786D01*
X62955048Y-93747820D01*
X62955047Y-93747820D01*
X62955051Y-93747816D01*
X63051557Y-93558412D01*
X63117246Y-93356243D01*
X63150500Y-93146287D01*
X63150500Y-92933713D01*
X63117246Y-92723757D01*
X63051557Y-92521588D01*
X62955051Y-92332184D01*
X62955049Y-92332181D01*
X62955048Y-92332179D01*
X62830109Y-92160213D01*
X62679786Y-92009890D01*
X62507820Y-91884951D01*
X62505586Y-91883813D01*
X62499054Y-91880485D01*
X62448259Y-91832512D01*
X62431463Y-91764692D01*
X62453999Y-91698556D01*
X62499054Y-91659515D01*
X62507816Y-91655051D01*
X62529789Y-91639086D01*
X62679786Y-91530109D01*
X62679788Y-91530106D01*
X62679792Y-91530104D01*
X62830104Y-91379792D01*
X62830106Y-91379788D01*
X62830109Y-91379786D01*
X62955048Y-91207820D01*
X62955047Y-91207820D01*
X62955051Y-91207816D01*
X63051557Y-91018412D01*
X63117246Y-90816243D01*
X63150500Y-90606287D01*
X63150500Y-90393713D01*
X63117246Y-90183757D01*
X63051557Y-89981588D01*
X62955051Y-89792184D01*
X62955049Y-89792181D01*
X62955048Y-89792179D01*
X62830109Y-89620213D01*
X62679786Y-89469890D01*
X62507820Y-89344951D01*
X62505586Y-89343813D01*
X62499054Y-89340485D01*
X62448259Y-89292512D01*
X62431463Y-89224692D01*
X62453999Y-89158556D01*
X62499054Y-89119515D01*
X62507816Y-89115051D01*
X62529789Y-89099086D01*
X62679786Y-88990109D01*
X62679788Y-88990106D01*
X62679792Y-88990104D01*
X62830104Y-88839792D01*
X62830106Y-88839788D01*
X62830109Y-88839786D01*
X62955048Y-88667820D01*
X62955047Y-88667820D01*
X62955051Y-88667816D01*
X63051557Y-88478412D01*
X63117246Y-88276243D01*
X63150500Y-88066287D01*
X63150500Y-87853713D01*
X63117246Y-87643757D01*
X63051557Y-87441588D01*
X62955051Y-87252184D01*
X62955049Y-87252181D01*
X62955048Y-87252179D01*
X62830109Y-87080213D01*
X62679786Y-86929890D01*
X62507820Y-86804951D01*
X62505586Y-86803813D01*
X62499054Y-86800485D01*
X62448259Y-86752512D01*
X62431463Y-86684692D01*
X62453999Y-86618556D01*
X62499054Y-86579515D01*
X62507816Y-86575051D01*
X62529789Y-86559086D01*
X62679786Y-86450109D01*
X62679788Y-86450106D01*
X62679792Y-86450104D01*
X62830104Y-86299792D01*
X62830106Y-86299788D01*
X62830109Y-86299786D01*
X62955048Y-86127820D01*
X62955047Y-86127820D01*
X62955051Y-86127816D01*
X63051557Y-85938412D01*
X63117246Y-85736243D01*
X63150500Y-85526287D01*
X63150500Y-85313713D01*
X63117246Y-85103757D01*
X63051557Y-84901588D01*
X62955051Y-84712184D01*
X62955049Y-84712181D01*
X62955048Y-84712179D01*
X62830109Y-84540213D01*
X62679786Y-84389890D01*
X62507820Y-84264951D01*
X62505586Y-84263813D01*
X62499054Y-84260485D01*
X62448259Y-84212512D01*
X62431463Y-84144692D01*
X62453999Y-84078556D01*
X62499054Y-84039515D01*
X62507816Y-84035051D01*
X62529789Y-84019086D01*
X62679786Y-83910109D01*
X62679788Y-83910106D01*
X62679792Y-83910104D01*
X62830104Y-83759792D01*
X62830106Y-83759788D01*
X62830109Y-83759786D01*
X62955048Y-83587820D01*
X62955047Y-83587820D01*
X62955051Y-83587816D01*
X63051557Y-83398412D01*
X63117246Y-83196243D01*
X63150500Y-82986287D01*
X63150500Y-82773713D01*
X63117246Y-82563757D01*
X63051557Y-82361588D01*
X62955051Y-82172184D01*
X62955049Y-82172181D01*
X62955048Y-82172179D01*
X62830109Y-82000213D01*
X62679786Y-81849890D01*
X62507820Y-81724951D01*
X62505586Y-81723813D01*
X62499054Y-81720485D01*
X62448259Y-81672512D01*
X62431463Y-81604692D01*
X62453999Y-81538556D01*
X62499054Y-81499515D01*
X62507816Y-81495051D01*
X62529789Y-81479086D01*
X62679786Y-81370109D01*
X62679788Y-81370106D01*
X62679792Y-81370104D01*
X62830104Y-81219792D01*
X62830106Y-81219788D01*
X62830109Y-81219786D01*
X62955048Y-81047820D01*
X62955047Y-81047820D01*
X62955051Y-81047816D01*
X63051557Y-80858412D01*
X63117246Y-80656243D01*
X63150500Y-80446287D01*
X63150500Y-80233713D01*
X63117246Y-80023757D01*
X63051557Y-79821588D01*
X62955051Y-79632184D01*
X62955049Y-79632181D01*
X62955048Y-79632179D01*
X62830109Y-79460213D01*
X62716569Y-79346673D01*
X62683084Y-79285350D01*
X62688068Y-79215658D01*
X62729940Y-79159725D01*
X62760915Y-79142810D01*
X62892331Y-79093796D01*
X63007546Y-79007546D01*
X63093796Y-78892331D01*
X63144091Y-78757483D01*
X63150500Y-78697873D01*
X63150499Y-76902128D01*
X63144091Y-76842517D01*
X63129990Y-76804711D01*
X63093797Y-76707671D01*
X63093793Y-76707664D01*
X63007547Y-76592455D01*
X63007544Y-76592452D01*
X62892335Y-76506206D01*
X62892328Y-76506202D01*
X62757482Y-76455908D01*
X62757483Y-76455908D01*
X62697883Y-76449501D01*
X62697881Y-76449500D01*
X62697873Y-76449500D01*
X62697864Y-76449500D01*
X60902129Y-76449500D01*
X60902123Y-76449501D01*
X60842516Y-76455908D01*
X60707671Y-76506202D01*
X60707664Y-76506206D01*
X60592455Y-76592452D01*
X60592452Y-76592455D01*
X60506206Y-76707664D01*
X60506202Y-76707671D01*
X60455908Y-76842517D01*
X60450920Y-76888915D01*
X60449501Y-76902123D01*
X60449500Y-76902135D01*
X51500000Y-76902135D01*
X51500000Y-35522135D01*
X60449500Y-35522135D01*
X60449500Y-37317870D01*
X60449501Y-37317876D01*
X60455908Y-37377483D01*
X60506202Y-37512328D01*
X60506206Y-37512335D01*
X60592452Y-37627544D01*
X60592455Y-37627547D01*
X60707664Y-37713793D01*
X60707671Y-37713797D01*
X60839082Y-37762810D01*
X60895016Y-37804681D01*
X60919433Y-37870145D01*
X60904582Y-37938418D01*
X60883431Y-37966673D01*
X60769889Y-38080215D01*
X60644951Y-38252179D01*
X60548444Y-38441585D01*
X60482753Y-38643760D01*
X60449500Y-38853713D01*
X60449500Y-39066286D01*
X60482753Y-39276239D01*
X60548444Y-39478414D01*
X60644951Y-39667820D01*
X60769890Y-39839786D01*
X60920213Y-39990109D01*
X61092182Y-40115050D01*
X61100946Y-40119516D01*
X61151742Y-40167491D01*
X61168536Y-40235312D01*
X61145998Y-40301447D01*
X61100946Y-40340484D01*
X61092182Y-40344949D01*
X60920213Y-40469890D01*
X60769890Y-40620213D01*
X60644951Y-40792179D01*
X60548444Y-40981585D01*
X60482753Y-41183760D01*
X60449500Y-41393713D01*
X60449500Y-41606286D01*
X60482753Y-41816239D01*
X60548444Y-42018414D01*
X60644951Y-42207820D01*
X60769890Y-42379786D01*
X60920213Y-42530109D01*
X61092182Y-42655050D01*
X61100946Y-42659516D01*
X61151742Y-42707491D01*
X61168536Y-42775312D01*
X61145998Y-42841447D01*
X61100946Y-42880484D01*
X61092182Y-42884949D01*
X60920213Y-43009890D01*
X60769890Y-43160213D01*
X60644951Y-43332179D01*
X60548444Y-43521585D01*
X60482753Y-43723760D01*
X60451284Y-43922452D01*
X60449500Y-43933713D01*
X60449500Y-44146287D01*
X60482754Y-44356243D01*
X60539696Y-44531493D01*
X60548444Y-44558414D01*
X60644951Y-44747820D01*
X60769890Y-44919786D01*
X60920213Y-45070109D01*
X61092182Y-45195050D01*
X61100946Y-45199516D01*
X61151742Y-45247491D01*
X61168536Y-45315312D01*
X61145998Y-45381447D01*
X61100946Y-45420484D01*
X61092182Y-45424949D01*
X60920213Y-45549890D01*
X60769890Y-45700213D01*
X60644951Y-45872179D01*
X60548444Y-46061585D01*
X60482753Y-46263760D01*
X60457104Y-46425701D01*
X60449500Y-46473713D01*
X60449500Y-46686287D01*
X60482754Y-46896243D01*
X60539696Y-47071493D01*
X60548444Y-47098414D01*
X60644951Y-47287820D01*
X60769890Y-47459786D01*
X60920213Y-47610109D01*
X61092182Y-47735050D01*
X61100946Y-47739516D01*
X61151742Y-47787491D01*
X61168536Y-47855312D01*
X61145998Y-47921447D01*
X61100946Y-47960484D01*
X61092182Y-47964949D01*
X60920213Y-48089890D01*
X60769890Y-48240213D01*
X60644951Y-48412179D01*
X60548444Y-48601585D01*
X60482753Y-48803760D01*
X60449500Y-49013713D01*
X60449500Y-49226287D01*
X60482754Y-49436243D01*
X60539696Y-49611493D01*
X60548444Y-49638414D01*
X60644951Y-49827820D01*
X60769890Y-49999786D01*
X60920213Y-50150109D01*
X61092182Y-50275050D01*
X61100946Y-50279516D01*
X61151742Y-50327491D01*
X61168536Y-50395312D01*
X61145998Y-50461447D01*
X61100946Y-50500484D01*
X61092182Y-50504949D01*
X60920213Y-50629890D01*
X60769890Y-50780213D01*
X60644951Y-50952179D01*
X60548444Y-51141585D01*
X60482753Y-51343760D01*
X60449500Y-51553713D01*
X60449500Y-51766287D01*
X60482754Y-51976243D01*
X60539696Y-52151493D01*
X60548444Y-52178414D01*
X60644951Y-52367820D01*
X60769890Y-52539786D01*
X60920213Y-52690109D01*
X61092182Y-52815050D01*
X61100946Y-52819516D01*
X61151742Y-52867491D01*
X61168536Y-52935312D01*
X61145998Y-53001447D01*
X61100946Y-53040484D01*
X61092182Y-53044949D01*
X60920213Y-53169890D01*
X60769890Y-53320213D01*
X60644951Y-53492179D01*
X60548444Y-53681585D01*
X60482753Y-53883760D01*
X60449500Y-54093713D01*
X60449500Y-54306287D01*
X60482754Y-54516243D01*
X60539696Y-54691493D01*
X60548444Y-54718414D01*
X60644951Y-54907820D01*
X60769890Y-55079786D01*
X60920213Y-55230109D01*
X61092179Y-55355048D01*
X61092181Y-55355049D01*
X61092184Y-55355051D01*
X61281588Y-55451557D01*
X61483757Y-55517246D01*
X61693713Y-55550500D01*
X61693714Y-55550500D01*
X61906286Y-55550500D01*
X61906287Y-55550500D01*
X62116243Y-55517246D01*
X62318412Y-55451557D01*
X62507816Y-55355051D01*
X62529789Y-55339086D01*
X62679786Y-55230109D01*
X62679788Y-55230106D01*
X62679792Y-55230104D01*
X62830104Y-55079792D01*
X62830106Y-55079788D01*
X62830109Y-55079786D01*
X62955048Y-54907820D01*
X62955047Y-54907820D01*
X62955051Y-54907816D01*
X63051557Y-54718412D01*
X63117246Y-54516243D01*
X63150500Y-54306287D01*
X63150500Y-54093713D01*
X63117246Y-53883757D01*
X63051557Y-53681588D01*
X62955051Y-53492184D01*
X62955049Y-53492181D01*
X62955048Y-53492179D01*
X62830109Y-53320213D01*
X62679786Y-53169890D01*
X62507820Y-53044951D01*
X62507115Y-53044591D01*
X62499054Y-53040485D01*
X62448259Y-52992512D01*
X62431463Y-52924692D01*
X62453999Y-52858556D01*
X62499054Y-52819515D01*
X62507816Y-52815051D01*
X62529789Y-52799086D01*
X62679786Y-52690109D01*
X62679788Y-52690106D01*
X62679792Y-52690104D01*
X62830104Y-52539792D01*
X62830106Y-52539788D01*
X62830109Y-52539786D01*
X62955048Y-52367820D01*
X62955047Y-52367820D01*
X62955051Y-52367816D01*
X63051557Y-52178412D01*
X63117246Y-51976243D01*
X63150500Y-51766287D01*
X63150500Y-51553713D01*
X63117246Y-51343757D01*
X63051557Y-51141588D01*
X62955051Y-50952184D01*
X62955049Y-50952181D01*
X62955048Y-50952179D01*
X62830109Y-50780213D01*
X62679786Y-50629890D01*
X62507820Y-50504951D01*
X62507115Y-50504591D01*
X62499054Y-50500485D01*
X62448259Y-50452512D01*
X62431463Y-50384692D01*
X62453999Y-50318556D01*
X62499054Y-50279515D01*
X62507816Y-50275051D01*
X62529789Y-50259086D01*
X62679786Y-50150109D01*
X62679788Y-50150106D01*
X62679792Y-50150104D01*
X62830104Y-49999792D01*
X62830106Y-49999788D01*
X62830109Y-49999786D01*
X62955048Y-49827820D01*
X62955047Y-49827820D01*
X62955051Y-49827816D01*
X63051557Y-49638412D01*
X63117246Y-49436243D01*
X63150500Y-49226287D01*
X63150500Y-49013713D01*
X63117246Y-48803757D01*
X63051557Y-48601588D01*
X62955051Y-48412184D01*
X62955049Y-48412181D01*
X62955048Y-48412179D01*
X62830109Y-48240213D01*
X62679786Y-48089890D01*
X62507820Y-47964951D01*
X62507115Y-47964591D01*
X62499054Y-47960485D01*
X62448259Y-47912512D01*
X62431463Y-47844692D01*
X62453999Y-47778556D01*
X62499054Y-47739515D01*
X62507816Y-47735051D01*
X62529789Y-47719086D01*
X62679786Y-47610109D01*
X62679788Y-47610106D01*
X62679792Y-47610104D01*
X62830104Y-47459792D01*
X62830106Y-47459788D01*
X62830109Y-47459786D01*
X62955048Y-47287820D01*
X62955047Y-47287820D01*
X62955051Y-47287816D01*
X63051557Y-47098412D01*
X63117246Y-46896243D01*
X63150500Y-46686287D01*
X63150500Y-46473713D01*
X63117246Y-46263757D01*
X63051557Y-46061588D01*
X62955051Y-45872184D01*
X62955049Y-45872181D01*
X62955048Y-45872179D01*
X62830109Y-45700213D01*
X62679786Y-45549890D01*
X62507820Y-45424951D01*
X62507115Y-45424591D01*
X62499054Y-45420485D01*
X62448259Y-45372512D01*
X62431463Y-45304692D01*
X62453999Y-45238556D01*
X62499054Y-45199515D01*
X62507816Y-45195051D01*
X62529789Y-45179086D01*
X62679786Y-45070109D01*
X62679788Y-45070106D01*
X62679792Y-45070104D01*
X62830104Y-44919792D01*
X62830106Y-44919788D01*
X62830109Y-44919786D01*
X62955048Y-44747820D01*
X62955047Y-44747820D01*
X62955051Y-44747816D01*
X63051557Y-44558412D01*
X63117246Y-44356243D01*
X63136903Y-44232135D01*
X70759500Y-44232135D01*
X70759500Y-45767870D01*
X70759501Y-45767876D01*
X70765908Y-45827483D01*
X70816202Y-45962328D01*
X70816206Y-45962335D01*
X70902452Y-46077544D01*
X70902455Y-46077547D01*
X71017664Y-46163793D01*
X71017671Y-46163797D01*
X71152517Y-46214091D01*
X71152516Y-46214091D01*
X71159444Y-46214835D01*
X71212127Y-46220500D01*
X71364787Y-46220499D01*
X71431824Y-46240183D01*
X71477579Y-46292987D01*
X71487523Y-46362145D01*
X71458498Y-46425701D01*
X71421081Y-46454983D01*
X71340321Y-46496133D01*
X71262608Y-46552595D01*
X71184898Y-46609055D01*
X71184896Y-46609057D01*
X71184895Y-46609057D01*
X71049057Y-46744895D01*
X71049057Y-46744896D01*
X71049055Y-46744898D01*
X71000560Y-46811645D01*
X70936135Y-46900318D01*
X70848916Y-47071493D01*
X70789553Y-47254197D01*
X70759500Y-47443945D01*
X70759500Y-47636054D01*
X70789553Y-47825802D01*
X70848916Y-48008506D01*
X70848918Y-48008509D01*
X70936135Y-48179681D01*
X71049055Y-48335102D01*
X71184898Y-48470945D01*
X71340319Y-48583865D01*
X71511491Y-48671082D01*
X71511493Y-48671083D01*
X71576081Y-48692069D01*
X71633756Y-48731506D01*
X71660955Y-48795865D01*
X71649041Y-48864711D01*
X71601797Y-48916187D01*
X71576081Y-48927931D01*
X71511493Y-48948916D01*
X71340318Y-49036135D01*
X71251645Y-49100560D01*
X71184898Y-49149055D01*
X71184896Y-49149057D01*
X71184895Y-49149057D01*
X71049057Y-49284895D01*
X71049057Y-49284896D01*
X71049055Y-49284898D01*
X71000560Y-49351645D01*
X70936135Y-49440318D01*
X70848916Y-49611493D01*
X70789553Y-49794197D01*
X70759500Y-49983945D01*
X70759500Y-50176054D01*
X70789553Y-50365802D01*
X70848916Y-50548506D01*
X70848918Y-50548509D01*
X70936135Y-50719681D01*
X71049055Y-50875102D01*
X71184898Y-51010945D01*
X71340319Y-51123865D01*
X71511491Y-51211082D01*
X71511493Y-51211083D01*
X71576081Y-51232069D01*
X71633756Y-51271506D01*
X71660955Y-51335865D01*
X71649041Y-51404711D01*
X71601797Y-51456187D01*
X71576081Y-51467931D01*
X71511493Y-51488916D01*
X71340318Y-51576135D01*
X71251645Y-51640560D01*
X71184898Y-51689055D01*
X71184896Y-51689057D01*
X71184895Y-51689057D01*
X71049057Y-51824895D01*
X71049057Y-51824896D01*
X71049055Y-51824898D01*
X71000560Y-51891645D01*
X70936135Y-51980318D01*
X70848916Y-52151493D01*
X70789553Y-52334197D01*
X70759500Y-52523945D01*
X70759500Y-52716054D01*
X70789553Y-52905802D01*
X70848916Y-53088506D01*
X70848918Y-53088509D01*
X70936135Y-53259681D01*
X71049055Y-53415102D01*
X71184898Y-53550945D01*
X71340319Y-53663865D01*
X71511491Y-53751082D01*
X71511493Y-53751083D01*
X71576081Y-53772069D01*
X71633756Y-53811506D01*
X71660955Y-53875865D01*
X71649041Y-53944711D01*
X71601797Y-53996187D01*
X71576081Y-54007931D01*
X71511493Y-54028916D01*
X71340318Y-54116135D01*
X71251645Y-54180560D01*
X71184898Y-54229055D01*
X71184896Y-54229057D01*
X71184895Y-54229057D01*
X71049057Y-54364895D01*
X71049057Y-54364896D01*
X71049055Y-54364898D01*
X71000560Y-54431645D01*
X70936135Y-54520318D01*
X70848916Y-54691493D01*
X70789553Y-54874197D01*
X70759500Y-55063945D01*
X70759500Y-55256054D01*
X70789553Y-55445802D01*
X70848916Y-55628506D01*
X70848918Y-55628509D01*
X70936135Y-55799681D01*
X71049055Y-55955102D01*
X71184898Y-56090945D01*
X71340319Y-56203865D01*
X71511491Y-56291082D01*
X71511493Y-56291083D01*
X71576081Y-56312069D01*
X71633756Y-56351506D01*
X71660955Y-56415865D01*
X71649041Y-56484711D01*
X71601797Y-56536187D01*
X71576081Y-56547931D01*
X71511493Y-56568916D01*
X71340318Y-56656135D01*
X71251645Y-56720560D01*
X71184898Y-56769055D01*
X71184896Y-56769057D01*
X71184895Y-56769057D01*
X71049057Y-56904895D01*
X71049057Y-56904896D01*
X71049055Y-56904898D01*
X71000560Y-56971645D01*
X70936135Y-57060318D01*
X70848916Y-57231493D01*
X70789553Y-57414197D01*
X70759500Y-57603945D01*
X70759500Y-57796054D01*
X70789553Y-57985802D01*
X70848916Y-58168506D01*
X70848918Y-58168509D01*
X70936135Y-58339681D01*
X71049055Y-58495102D01*
X71184898Y-58630945D01*
X71340319Y-58743865D01*
X71511491Y-58831082D01*
X71511493Y-58831083D01*
X71576081Y-58852069D01*
X71633756Y-58891506D01*
X71660955Y-58955865D01*
X71649041Y-59024711D01*
X71601797Y-59076187D01*
X71576081Y-59087931D01*
X71511493Y-59108916D01*
X71340318Y-59196135D01*
X71251645Y-59260560D01*
X71184898Y-59309055D01*
X71184896Y-59309057D01*
X71184895Y-59309057D01*
X71049057Y-59444895D01*
X71049057Y-59444896D01*
X71049055Y-59444898D01*
X71000560Y-59511645D01*
X70936135Y-59600318D01*
X70848916Y-59771493D01*
X70789553Y-59954197D01*
X70759500Y-60143945D01*
X70759500Y-60336054D01*
X70789553Y-60525802D01*
X70848916Y-60708506D01*
X70848918Y-60708509D01*
X70936135Y-60879681D01*
X71049055Y-61035102D01*
X71184898Y-61170945D01*
X71340319Y-61283865D01*
X71511491Y-61371082D01*
X71511493Y-61371083D01*
X71576081Y-61392069D01*
X71633756Y-61431506D01*
X71660955Y-61495865D01*
X71649041Y-61564711D01*
X71601797Y-61616187D01*
X71576081Y-61627931D01*
X71511493Y-61648916D01*
X71340318Y-61736135D01*
X71251645Y-61800560D01*
X71184898Y-61849055D01*
X71184896Y-61849057D01*
X71184895Y-61849057D01*
X71049057Y-61984895D01*
X71049057Y-61984896D01*
X71049055Y-61984898D01*
X71000560Y-62051645D01*
X70936135Y-62140318D01*
X70848916Y-62311493D01*
X70789553Y-62494197D01*
X70789553Y-62494199D01*
X70759500Y-62683945D01*
X70759500Y-62876055D01*
X70762078Y-62892331D01*
X70789553Y-63065802D01*
X70848916Y-63248506D01*
X70848918Y-63248509D01*
X70936135Y-63419681D01*
X71049055Y-63575102D01*
X71184898Y-63710945D01*
X71340319Y-63823865D01*
X71511491Y-63911082D01*
X71511493Y-63911083D01*
X71576081Y-63932069D01*
X71633756Y-63971506D01*
X71660955Y-64035865D01*
X71649041Y-64104711D01*
X71601797Y-64156187D01*
X71576081Y-64167931D01*
X71511493Y-64188916D01*
X71340318Y-64276135D01*
X71251645Y-64340560D01*
X71184898Y-64389055D01*
X71184896Y-64389057D01*
X71184895Y-64389057D01*
X71049057Y-64524895D01*
X71049057Y-64524896D01*
X71049055Y-64524898D01*
X71000560Y-64591645D01*
X70936135Y-64680318D01*
X70848916Y-64851493D01*
X70789553Y-65034197D01*
X70759500Y-65223945D01*
X70759500Y-65416054D01*
X70789553Y-65605802D01*
X70848916Y-65788506D01*
X70848918Y-65788509D01*
X70936135Y-65959681D01*
X71049055Y-66115102D01*
X71184898Y-66250945D01*
X71340319Y-66363865D01*
X71511491Y-66451082D01*
X71511493Y-66451083D01*
X71576081Y-66472069D01*
X71633756Y-66511506D01*
X71660955Y-66575865D01*
X71649041Y-66644711D01*
X71601797Y-66696187D01*
X71576081Y-66707931D01*
X71511493Y-66728916D01*
X71340318Y-66816135D01*
X71251645Y-66880560D01*
X71184898Y-66929055D01*
X71184896Y-66929057D01*
X71184895Y-66929057D01*
X71049057Y-67064895D01*
X71049057Y-67064896D01*
X71049055Y-67064898D01*
X71048814Y-67065230D01*
X70936135Y-67220318D01*
X70848916Y-67391493D01*
X70789553Y-67574197D01*
X70759500Y-67763945D01*
X70759500Y-67956054D01*
X70789553Y-68145802D01*
X70848916Y-68328506D01*
X70910566Y-68449500D01*
X70936135Y-68499681D01*
X71049055Y-68655102D01*
X71184898Y-68790945D01*
X71340319Y-68903865D01*
X71510576Y-68990616D01*
X71511493Y-68991083D01*
X71576081Y-69012069D01*
X71633756Y-69051506D01*
X71660955Y-69115865D01*
X71649041Y-69184711D01*
X71601797Y-69236187D01*
X71576081Y-69247931D01*
X71511493Y-69268916D01*
X71340318Y-69356135D01*
X71251645Y-69420560D01*
X71184898Y-69469055D01*
X71184896Y-69469057D01*
X71184895Y-69469057D01*
X71049057Y-69604895D01*
X71049057Y-69604896D01*
X71049055Y-69604898D01*
X71000560Y-69671645D01*
X70936135Y-69760318D01*
X70848916Y-69931493D01*
X70789553Y-70114197D01*
X70759500Y-70303945D01*
X70759500Y-70496054D01*
X70789553Y-70685802D01*
X70848916Y-70868506D01*
X70848918Y-70868509D01*
X70936135Y-71039681D01*
X71049055Y-71195102D01*
X71184898Y-71330945D01*
X71340319Y-71443865D01*
X71511491Y-71531082D01*
X71511493Y-71531083D01*
X71576081Y-71552069D01*
X71633756Y-71591506D01*
X71660955Y-71655865D01*
X71649041Y-71724711D01*
X71601797Y-71776187D01*
X71576081Y-71787931D01*
X71511493Y-71808916D01*
X71340318Y-71896135D01*
X71251645Y-71960560D01*
X71184898Y-72009055D01*
X71184896Y-72009057D01*
X71184895Y-72009057D01*
X71049057Y-72144895D01*
X71049057Y-72144896D01*
X71049055Y-72144898D01*
X71000560Y-72211645D01*
X70936135Y-72300318D01*
X70848916Y-72471493D01*
X70789553Y-72654197D01*
X70759500Y-72843945D01*
X70759500Y-73036054D01*
X70789553Y-73225802D01*
X70848916Y-73408506D01*
X70848918Y-73408509D01*
X70936135Y-73579681D01*
X71049055Y-73735102D01*
X71184898Y-73870945D01*
X71340319Y-73983865D01*
X71511491Y-74071082D01*
X71511493Y-74071083D01*
X71576081Y-74092069D01*
X71633756Y-74131506D01*
X71660955Y-74195865D01*
X71649041Y-74264711D01*
X71601797Y-74316187D01*
X71576081Y-74327931D01*
X71511493Y-74348916D01*
X71340318Y-74436135D01*
X71251645Y-74500560D01*
X71184898Y-74549055D01*
X71184896Y-74549057D01*
X71184895Y-74549057D01*
X71049057Y-74684895D01*
X71049057Y-74684896D01*
X71049055Y-74684898D01*
X71000560Y-74751645D01*
X70936135Y-74840318D01*
X70848916Y-75011493D01*
X70789553Y-75194197D01*
X70759500Y-75383945D01*
X70759500Y-75576054D01*
X70789553Y-75765802D01*
X70848916Y-75948506D01*
X70848918Y-75948509D01*
X70936135Y-76119681D01*
X71049055Y-76275102D01*
X71184898Y-76410945D01*
X71340319Y-76523865D01*
X71474928Y-76592452D01*
X71511493Y-76611083D01*
X71576081Y-76632069D01*
X71633756Y-76671506D01*
X71660955Y-76735865D01*
X71649041Y-76804711D01*
X71601797Y-76856187D01*
X71576081Y-76867931D01*
X71511493Y-76888916D01*
X71340318Y-76976135D01*
X71308677Y-76999124D01*
X71184898Y-77089055D01*
X71184896Y-77089057D01*
X71184895Y-77089057D01*
X71049057Y-77224895D01*
X71049057Y-77224896D01*
X71049055Y-77224898D01*
X71000560Y-77291645D01*
X70936135Y-77380318D01*
X70848916Y-77551493D01*
X70789553Y-77734197D01*
X70759500Y-77923945D01*
X70759500Y-78116054D01*
X70789553Y-78305802D01*
X70848916Y-78488506D01*
X70848918Y-78488509D01*
X70936135Y-78659681D01*
X71049055Y-78815102D01*
X71184898Y-78950945D01*
X71340319Y-79063865D01*
X71510347Y-79150499D01*
X71511493Y-79151083D01*
X71576081Y-79172069D01*
X71633756Y-79211506D01*
X71660955Y-79275865D01*
X71649041Y-79344711D01*
X71601797Y-79396187D01*
X71576081Y-79407931D01*
X71511493Y-79428916D01*
X71340318Y-79516135D01*
X71251645Y-79580560D01*
X71184898Y-79629055D01*
X71184896Y-79629057D01*
X71184895Y-79629057D01*
X71049057Y-79764895D01*
X71049057Y-79764896D01*
X71049055Y-79764898D01*
X71007867Y-79821588D01*
X70936135Y-79920318D01*
X70848916Y-80091493D01*
X70789553Y-80274197D01*
X70759500Y-80463945D01*
X70759500Y-80656054D01*
X70789553Y-80845802D01*
X70848916Y-81028506D01*
X70936135Y-81199681D01*
X71049055Y-81355102D01*
X71184898Y-81490945D01*
X71340319Y-81603865D01*
X71388556Y-81628443D01*
X71511493Y-81691083D01*
X71576081Y-81712069D01*
X71633756Y-81751506D01*
X71660955Y-81815865D01*
X71649041Y-81884711D01*
X71601797Y-81936187D01*
X71576081Y-81947931D01*
X71511493Y-81968916D01*
X71340318Y-82056135D01*
X71251645Y-82120560D01*
X71184898Y-82169055D01*
X71184896Y-82169057D01*
X71184895Y-82169057D01*
X71049057Y-82304895D01*
X71049057Y-82304896D01*
X71049055Y-82304898D01*
X71007867Y-82361588D01*
X70936135Y-82460318D01*
X70848916Y-82631493D01*
X70789553Y-82814197D01*
X70759500Y-83003945D01*
X70759500Y-83196054D01*
X70789553Y-83385802D01*
X70848916Y-83568506D01*
X70936135Y-83739681D01*
X71049055Y-83895102D01*
X71184898Y-84030945D01*
X71340319Y-84143865D01*
X71388556Y-84168443D01*
X71511493Y-84231083D01*
X71576081Y-84252069D01*
X71633756Y-84291506D01*
X71660955Y-84355865D01*
X71649041Y-84424711D01*
X71601797Y-84476187D01*
X71576081Y-84487931D01*
X71511493Y-84508916D01*
X71340318Y-84596135D01*
X71251645Y-84660560D01*
X71184898Y-84709055D01*
X71184896Y-84709057D01*
X71184895Y-84709057D01*
X71049057Y-84844895D01*
X71049057Y-84844896D01*
X71049055Y-84844898D01*
X71007867Y-84901588D01*
X70936135Y-85000318D01*
X70848916Y-85171493D01*
X70789553Y-85354197D01*
X70759500Y-85543945D01*
X70759500Y-85736054D01*
X70789553Y-85925802D01*
X70848916Y-86108506D01*
X70936135Y-86279681D01*
X71049055Y-86435102D01*
X71184898Y-86570945D01*
X71340319Y-86683865D01*
X71388556Y-86708443D01*
X71511493Y-86771083D01*
X71576081Y-86792069D01*
X71633756Y-86831506D01*
X71660955Y-86895865D01*
X71649041Y-86964711D01*
X71601797Y-87016187D01*
X71576081Y-87027931D01*
X71511493Y-87048916D01*
X71340318Y-87136135D01*
X71251645Y-87200560D01*
X71184898Y-87249055D01*
X71184896Y-87249057D01*
X71184895Y-87249057D01*
X71049057Y-87384895D01*
X71049057Y-87384896D01*
X71049055Y-87384898D01*
X71007867Y-87441588D01*
X70936135Y-87540318D01*
X70848916Y-87711493D01*
X70789553Y-87894197D01*
X70759500Y-88083945D01*
X70759500Y-88276054D01*
X70789553Y-88465802D01*
X70848916Y-88648506D01*
X70936135Y-88819681D01*
X71049055Y-88975102D01*
X71184898Y-89110945D01*
X71340319Y-89223865D01*
X71388556Y-89248443D01*
X71511493Y-89311083D01*
X71576081Y-89332069D01*
X71633756Y-89371506D01*
X71660955Y-89435865D01*
X71649041Y-89504711D01*
X71601797Y-89556187D01*
X71576081Y-89567931D01*
X71511493Y-89588916D01*
X71340318Y-89676135D01*
X71251645Y-89740560D01*
X71184898Y-89789055D01*
X71184896Y-89789057D01*
X71184895Y-89789057D01*
X71049057Y-89924895D01*
X71049057Y-89924896D01*
X71049055Y-89924898D01*
X71007867Y-89981588D01*
X70936135Y-90080318D01*
X70848916Y-90251493D01*
X70789553Y-90434197D01*
X70759500Y-90623945D01*
X70759500Y-90816054D01*
X70789553Y-91005802D01*
X70848916Y-91188506D01*
X70936135Y-91359681D01*
X71049055Y-91515102D01*
X71184898Y-91650945D01*
X71340319Y-91763865D01*
X71511491Y-91851082D01*
X71511495Y-91851084D01*
X71576890Y-91872332D01*
X71634566Y-91911769D01*
X71661765Y-91976127D01*
X71649851Y-92044974D01*
X71602607Y-92096450D01*
X71576893Y-92108194D01*
X71511677Y-92129384D01*
X71340577Y-92216565D01*
X71185230Y-92329430D01*
X71185225Y-92329434D01*
X71049434Y-92465225D01*
X71049430Y-92465230D01*
X70936565Y-92620577D01*
X70849383Y-92791680D01*
X70790040Y-92974318D01*
X70784389Y-93010000D01*
X71826988Y-93010000D01*
X71794075Y-93067007D01*
X71760000Y-93194174D01*
X71760000Y-93325826D01*
X71794075Y-93452993D01*
X71826988Y-93510000D01*
X70784389Y-93510000D01*
X70790040Y-93545681D01*
X70849383Y-93728319D01*
X70936565Y-93899422D01*
X71049430Y-94054769D01*
X71049434Y-94054774D01*
X71185225Y-94190565D01*
X71185230Y-94190569D01*
X71340577Y-94303434D01*
X71511678Y-94390616D01*
X71694315Y-94449959D01*
X71883985Y-94480000D01*
X72010000Y-94480000D01*
X72010000Y-93693012D01*
X72067007Y-93725925D01*
X72194174Y-93760000D01*
X72325826Y-93760000D01*
X72452993Y-93725925D01*
X72510000Y-93693012D01*
X72510000Y-94480000D01*
X72636015Y-94480000D01*
X72825684Y-94449959D01*
X73008321Y-94390616D01*
X73179422Y-94303434D01*
X73334769Y-94190569D01*
X73334774Y-94190565D01*
X73470565Y-94054774D01*
X73470569Y-94054769D01*
X73583434Y-93899422D01*
X73670616Y-93728319D01*
X73729959Y-93545681D01*
X73735611Y-93510000D01*
X72693012Y-93510000D01*
X72725925Y-93452993D01*
X72760000Y-93325826D01*
X72760000Y-93194174D01*
X72725925Y-93067007D01*
X72693012Y-93010000D01*
X73735611Y-93010000D01*
X73729959Y-92974318D01*
X73670616Y-92791680D01*
X73583434Y-92620577D01*
X73470569Y-92465230D01*
X73470565Y-92465225D01*
X73334774Y-92329434D01*
X73334769Y-92329430D01*
X73179422Y-92216565D01*
X73008321Y-92129383D01*
X72943107Y-92108194D01*
X72885432Y-92068756D01*
X72858234Y-92004397D01*
X72870149Y-91935551D01*
X72917394Y-91884075D01*
X72943109Y-91872332D01*
X73008504Y-91851084D01*
X73008506Y-91851082D01*
X73008509Y-91851082D01*
X73179681Y-91763865D01*
X73335102Y-91650945D01*
X73470945Y-91515102D01*
X73583865Y-91359681D01*
X73671082Y-91188509D01*
X73730447Y-91005801D01*
X73760500Y-90816055D01*
X73760500Y-90623945D01*
X73730447Y-90434199D01*
X73671082Y-90251491D01*
X73583865Y-90080319D01*
X73470945Y-89924898D01*
X73335102Y-89789055D01*
X73179681Y-89676135D01*
X73069919Y-89620208D01*
X73008504Y-89588915D01*
X72943919Y-89567931D01*
X72886243Y-89528494D01*
X72859044Y-89464136D01*
X72870958Y-89395289D01*
X72918202Y-89343813D01*
X72943919Y-89332069D01*
X73008504Y-89311084D01*
X73008506Y-89311082D01*
X73008509Y-89311082D01*
X73179681Y-89223865D01*
X73335102Y-89110945D01*
X73470945Y-88975102D01*
X73583865Y-88819681D01*
X73671082Y-88648509D01*
X73730447Y-88465801D01*
X73760500Y-88276055D01*
X73760500Y-88083945D01*
X73730447Y-87894199D01*
X73671082Y-87711491D01*
X73583865Y-87540319D01*
X73470945Y-87384898D01*
X73335102Y-87249055D01*
X73179681Y-87136135D01*
X73069919Y-87080208D01*
X73008504Y-87048915D01*
X72943919Y-87027931D01*
X72886243Y-86988494D01*
X72859044Y-86924136D01*
X72870958Y-86855289D01*
X72918202Y-86803813D01*
X72943919Y-86792069D01*
X73008504Y-86771084D01*
X73008506Y-86771082D01*
X73008509Y-86771082D01*
X73179681Y-86683865D01*
X73335102Y-86570945D01*
X73470945Y-86435102D01*
X73583865Y-86279681D01*
X73671082Y-86108509D01*
X73730447Y-85925801D01*
X73760500Y-85736055D01*
X73760500Y-85543945D01*
X73730447Y-85354199D01*
X73671082Y-85171491D01*
X73583865Y-85000319D01*
X73470945Y-84844898D01*
X73335102Y-84709055D01*
X73179681Y-84596135D01*
X73069919Y-84540208D01*
X73008504Y-84508915D01*
X72943919Y-84487931D01*
X72886243Y-84448494D01*
X72859044Y-84384136D01*
X72870958Y-84315289D01*
X72918202Y-84263813D01*
X72943919Y-84252069D01*
X73008504Y-84231084D01*
X73008506Y-84231082D01*
X73008509Y-84231082D01*
X73179681Y-84143865D01*
X73335102Y-84030945D01*
X73470945Y-83895102D01*
X73583865Y-83739681D01*
X73671082Y-83568509D01*
X73730447Y-83385801D01*
X73760500Y-83196055D01*
X73760500Y-83003945D01*
X73730447Y-82814199D01*
X73671082Y-82631491D01*
X73583865Y-82460319D01*
X73470945Y-82304898D01*
X73335102Y-82169055D01*
X73179681Y-82056135D01*
X73069919Y-82000208D01*
X73008504Y-81968915D01*
X72943919Y-81947931D01*
X72886243Y-81908494D01*
X72859044Y-81844136D01*
X72870958Y-81775289D01*
X72918202Y-81723813D01*
X72943919Y-81712069D01*
X73008504Y-81691084D01*
X73008506Y-81691082D01*
X73008509Y-81691082D01*
X73179681Y-81603865D01*
X73335102Y-81490945D01*
X73470945Y-81355102D01*
X73583865Y-81199681D01*
X73671082Y-81028509D01*
X73730447Y-80845801D01*
X73760500Y-80656055D01*
X73760500Y-80463945D01*
X73730447Y-80274199D01*
X73671082Y-80091491D01*
X73583865Y-79920319D01*
X73470945Y-79764898D01*
X73335102Y-79629055D01*
X73179681Y-79516135D01*
X73008504Y-79428915D01*
X72943919Y-79407931D01*
X72886243Y-79368494D01*
X72859044Y-79304136D01*
X72870958Y-79235289D01*
X72918202Y-79183813D01*
X72943919Y-79172069D01*
X73008504Y-79151084D01*
X73008506Y-79151082D01*
X73008509Y-79151082D01*
X73179681Y-79063865D01*
X73335102Y-78950945D01*
X73470945Y-78815102D01*
X73583865Y-78659681D01*
X73671082Y-78488509D01*
X73730447Y-78305801D01*
X73760500Y-78116055D01*
X73760500Y-77923945D01*
X73730447Y-77734199D01*
X73671082Y-77551491D01*
X73583865Y-77380319D01*
X73470945Y-77224898D01*
X73335102Y-77089055D01*
X73179681Y-76976135D01*
X73034449Y-76902135D01*
X73008504Y-76888915D01*
X72943919Y-76867931D01*
X72886243Y-76828494D01*
X72859044Y-76764136D01*
X72870958Y-76695289D01*
X72918202Y-76643813D01*
X72943919Y-76632069D01*
X73008504Y-76611084D01*
X73008506Y-76611082D01*
X73008509Y-76611082D01*
X73179681Y-76523865D01*
X73335102Y-76410945D01*
X73470945Y-76275102D01*
X73583865Y-76119681D01*
X73671082Y-75948509D01*
X73730447Y-75765801D01*
X73760500Y-75576055D01*
X73760500Y-75383945D01*
X73730447Y-75194199D01*
X73671082Y-75011491D01*
X73583865Y-74840319D01*
X73470945Y-74684898D01*
X73335102Y-74549055D01*
X73179681Y-74436135D01*
X73008504Y-74348915D01*
X72943919Y-74327931D01*
X72886243Y-74288494D01*
X72859044Y-74224136D01*
X72870958Y-74155289D01*
X72918202Y-74103813D01*
X72943919Y-74092069D01*
X73008504Y-74071084D01*
X73008506Y-74071082D01*
X73008509Y-74071082D01*
X73179681Y-73983865D01*
X73335102Y-73870945D01*
X73470945Y-73735102D01*
X73583865Y-73579681D01*
X73671082Y-73408509D01*
X73730447Y-73225801D01*
X73760500Y-73036055D01*
X73760500Y-72843945D01*
X73730447Y-72654199D01*
X73671082Y-72471491D01*
X73583865Y-72300319D01*
X73470945Y-72144898D01*
X73335102Y-72009055D01*
X73179681Y-71896135D01*
X73008504Y-71808915D01*
X72943919Y-71787931D01*
X72886243Y-71748494D01*
X72859044Y-71684136D01*
X72870958Y-71615289D01*
X72918202Y-71563813D01*
X72943919Y-71552069D01*
X73008504Y-71531084D01*
X73008506Y-71531082D01*
X73008509Y-71531082D01*
X73179681Y-71443865D01*
X73335102Y-71330945D01*
X73470945Y-71195102D01*
X73583865Y-71039681D01*
X73671082Y-70868509D01*
X73730447Y-70685801D01*
X73760500Y-70496055D01*
X73760500Y-70303945D01*
X73730447Y-70114199D01*
X73671082Y-69931491D01*
X73583865Y-69760319D01*
X73470945Y-69604898D01*
X73335102Y-69469055D01*
X73179681Y-69356135D01*
X73008504Y-69268915D01*
X72943919Y-69247931D01*
X72886243Y-69208494D01*
X72859044Y-69144136D01*
X72870958Y-69075289D01*
X72918202Y-69023813D01*
X72943919Y-69012069D01*
X73008504Y-68991084D01*
X73008506Y-68991082D01*
X73008509Y-68991082D01*
X73179681Y-68903865D01*
X73335102Y-68790945D01*
X73470945Y-68655102D01*
X73583865Y-68499681D01*
X73671082Y-68328509D01*
X73730447Y-68145801D01*
X73760500Y-67956055D01*
X73760500Y-67763945D01*
X73730447Y-67574199D01*
X73671922Y-67394075D01*
X73671083Y-67391493D01*
X73583864Y-67220318D01*
X73470945Y-67064898D01*
X73335102Y-66929055D01*
X73179681Y-66816135D01*
X73009422Y-66729383D01*
X73008504Y-66728915D01*
X72943919Y-66707931D01*
X72886243Y-66668494D01*
X72859044Y-66604136D01*
X72870958Y-66535289D01*
X72918202Y-66483813D01*
X72943919Y-66472069D01*
X73008504Y-66451084D01*
X73008506Y-66451082D01*
X73008509Y-66451082D01*
X73179681Y-66363865D01*
X73335102Y-66250945D01*
X73470945Y-66115102D01*
X73583865Y-65959681D01*
X73671082Y-65788509D01*
X73730447Y-65605801D01*
X73760500Y-65416055D01*
X73760500Y-65223945D01*
X73730447Y-65034199D01*
X73671082Y-64851491D01*
X73583865Y-64680319D01*
X73470945Y-64524898D01*
X73335102Y-64389055D01*
X73179681Y-64276135D01*
X73008504Y-64188915D01*
X72943919Y-64167931D01*
X72886243Y-64128494D01*
X72859044Y-64064136D01*
X72870958Y-63995289D01*
X72918202Y-63943813D01*
X72943919Y-63932069D01*
X73008504Y-63911084D01*
X73008506Y-63911082D01*
X73008509Y-63911082D01*
X73179681Y-63823865D01*
X73335102Y-63710945D01*
X73470945Y-63575102D01*
X73583865Y-63419681D01*
X73671082Y-63248509D01*
X73730447Y-63065801D01*
X73760500Y-62876055D01*
X73760500Y-62683945D01*
X73730447Y-62494199D01*
X73671082Y-62311491D01*
X73583865Y-62140319D01*
X73470945Y-61984898D01*
X73335102Y-61849055D01*
X73179681Y-61736135D01*
X73008504Y-61648915D01*
X72943919Y-61627931D01*
X72886243Y-61588494D01*
X72859044Y-61524136D01*
X72870958Y-61455289D01*
X72918202Y-61403813D01*
X72943919Y-61392069D01*
X73008504Y-61371084D01*
X73008506Y-61371082D01*
X73008509Y-61371082D01*
X73179681Y-61283865D01*
X73335102Y-61170945D01*
X73470945Y-61035102D01*
X73583865Y-60879681D01*
X73671082Y-60708509D01*
X73730447Y-60525801D01*
X73760500Y-60336055D01*
X73760500Y-60143945D01*
X73730447Y-59954199D01*
X73671082Y-59771491D01*
X73583865Y-59600319D01*
X73470945Y-59444898D01*
X73335102Y-59309055D01*
X73179681Y-59196135D01*
X73008504Y-59108915D01*
X72943919Y-59087931D01*
X72886243Y-59048494D01*
X72859044Y-58984136D01*
X72870958Y-58915289D01*
X72918202Y-58863813D01*
X72943919Y-58852069D01*
X73008504Y-58831084D01*
X73008506Y-58831082D01*
X73008509Y-58831082D01*
X73179681Y-58743865D01*
X73335102Y-58630945D01*
X73470945Y-58495102D01*
X73583865Y-58339681D01*
X73671082Y-58168509D01*
X73730447Y-57985801D01*
X73760500Y-57796055D01*
X73760500Y-57603945D01*
X73730447Y-57414199D01*
X73671082Y-57231491D01*
X73583865Y-57060319D01*
X73470945Y-56904898D01*
X73335102Y-56769055D01*
X73179681Y-56656135D01*
X73008504Y-56568915D01*
X72943919Y-56547931D01*
X72886243Y-56508494D01*
X72859044Y-56444136D01*
X72870958Y-56375289D01*
X72918202Y-56323813D01*
X72943919Y-56312069D01*
X73008504Y-56291084D01*
X73008506Y-56291082D01*
X73008509Y-56291082D01*
X73179681Y-56203865D01*
X73335102Y-56090945D01*
X73470945Y-55955102D01*
X73583865Y-55799681D01*
X73671082Y-55628509D01*
X73730447Y-55445801D01*
X73760500Y-55256055D01*
X73760500Y-55063945D01*
X73730447Y-54874199D01*
X73671082Y-54691491D01*
X73583865Y-54520319D01*
X73470945Y-54364898D01*
X73335102Y-54229055D01*
X73179681Y-54116135D01*
X73135676Y-54093713D01*
X73008504Y-54028915D01*
X72943919Y-54007931D01*
X72886243Y-53968494D01*
X72859044Y-53904136D01*
X72870958Y-53835289D01*
X72918202Y-53783813D01*
X72943919Y-53772069D01*
X73008504Y-53751084D01*
X73008506Y-53751082D01*
X73008509Y-53751082D01*
X73179681Y-53663865D01*
X73335102Y-53550945D01*
X73470945Y-53415102D01*
X73583865Y-53259681D01*
X73671082Y-53088509D01*
X73730447Y-52905801D01*
X73760500Y-52716055D01*
X73760500Y-52523945D01*
X73730447Y-52334199D01*
X73671082Y-52151491D01*
X73583865Y-51980319D01*
X73470945Y-51824898D01*
X73335102Y-51689055D01*
X73179681Y-51576135D01*
X73135676Y-51553713D01*
X73008504Y-51488915D01*
X72943919Y-51467931D01*
X72886243Y-51428494D01*
X72859044Y-51364136D01*
X72870958Y-51295289D01*
X72918202Y-51243813D01*
X72943919Y-51232069D01*
X73008504Y-51211084D01*
X73008506Y-51211082D01*
X73008509Y-51211082D01*
X73179681Y-51123865D01*
X73335102Y-51010945D01*
X73470945Y-50875102D01*
X73583865Y-50719681D01*
X73671082Y-50548509D01*
X73730447Y-50365801D01*
X73760500Y-50176055D01*
X73760500Y-49983945D01*
X73730447Y-49794199D01*
X73671082Y-49611491D01*
X73583865Y-49440319D01*
X73470945Y-49284898D01*
X73335102Y-49149055D01*
X73179681Y-49036135D01*
X73135676Y-49013713D01*
X73008504Y-48948915D01*
X72943919Y-48927931D01*
X72886243Y-48888494D01*
X72859044Y-48824136D01*
X72870958Y-48755289D01*
X72918202Y-48703813D01*
X72943919Y-48692069D01*
X73008504Y-48671084D01*
X73008506Y-48671082D01*
X73008509Y-48671082D01*
X73179681Y-48583865D01*
X73335102Y-48470945D01*
X73470945Y-48335102D01*
X73583865Y-48179681D01*
X73671082Y-48008509D01*
X73730447Y-47825801D01*
X73760500Y-47636055D01*
X73760500Y-47443945D01*
X73730447Y-47254199D01*
X73671082Y-47071491D01*
X73583865Y-46900319D01*
X73470945Y-46744898D01*
X73335102Y-46609055D01*
X73179681Y-46496135D01*
X73098917Y-46454983D01*
X73048122Y-46407009D01*
X73031327Y-46339188D01*
X73053865Y-46273053D01*
X73108580Y-46229602D01*
X73155212Y-46220499D01*
X73307872Y-46220499D01*
X73367483Y-46214091D01*
X73502331Y-46163796D01*
X73617546Y-46077546D01*
X73703796Y-45962331D01*
X73754091Y-45827483D01*
X73760500Y-45767873D01*
X73760499Y-44903945D01*
X85999500Y-44903945D01*
X85999500Y-45096054D01*
X86029553Y-45285802D01*
X86088916Y-45468506D01*
X86088918Y-45468509D01*
X86176135Y-45639681D01*
X86289055Y-45795102D01*
X86424898Y-45930945D01*
X86580319Y-46043865D01*
X86751491Y-46131082D01*
X86751493Y-46131083D01*
X86816081Y-46152069D01*
X86873756Y-46191506D01*
X86900955Y-46255865D01*
X86889041Y-46324711D01*
X86841797Y-46376187D01*
X86816081Y-46387931D01*
X86751493Y-46408916D01*
X86580318Y-46496135D01*
X86491645Y-46560560D01*
X86424898Y-46609055D01*
X86424896Y-46609057D01*
X86424895Y-46609057D01*
X86289057Y-46744895D01*
X86289057Y-46744896D01*
X86289055Y-46744898D01*
X86240560Y-46811645D01*
X86176135Y-46900318D01*
X86088916Y-47071493D01*
X86029553Y-47254197D01*
X85999500Y-47443945D01*
X85999500Y-47636054D01*
X86029553Y-47825802D01*
X86088916Y-48008506D01*
X86088918Y-48008509D01*
X86176135Y-48179681D01*
X86289055Y-48335102D01*
X86424898Y-48470945D01*
X86580319Y-48583865D01*
X86751491Y-48671082D01*
X86751493Y-48671083D01*
X86816081Y-48692069D01*
X86873756Y-48731506D01*
X86900955Y-48795865D01*
X86889041Y-48864711D01*
X86841797Y-48916187D01*
X86816081Y-48927931D01*
X86751493Y-48948916D01*
X86580318Y-49036135D01*
X86491645Y-49100560D01*
X86424898Y-49149055D01*
X86424896Y-49149057D01*
X86424895Y-49149057D01*
X86289057Y-49284895D01*
X86289057Y-49284896D01*
X86289055Y-49284898D01*
X86240560Y-49351645D01*
X86176135Y-49440318D01*
X86088916Y-49611493D01*
X86029553Y-49794197D01*
X85999500Y-49983945D01*
X85999500Y-50176054D01*
X86029553Y-50365802D01*
X86088916Y-50548506D01*
X86088918Y-50548509D01*
X86176135Y-50719681D01*
X86289055Y-50875102D01*
X86424898Y-51010945D01*
X86580319Y-51123865D01*
X86751491Y-51211082D01*
X86751493Y-51211083D01*
X86816081Y-51232069D01*
X86873756Y-51271506D01*
X86900955Y-51335865D01*
X86889041Y-51404711D01*
X86841797Y-51456187D01*
X86816081Y-51467931D01*
X86751493Y-51488916D01*
X86580318Y-51576135D01*
X86491645Y-51640560D01*
X86424898Y-51689055D01*
X86424896Y-51689057D01*
X86424895Y-51689057D01*
X86289057Y-51824895D01*
X86289057Y-51824896D01*
X86289055Y-51824898D01*
X86240560Y-51891645D01*
X86176135Y-51980318D01*
X86088916Y-52151493D01*
X86029553Y-52334197D01*
X85999500Y-52523945D01*
X85999500Y-52716054D01*
X86029553Y-52905802D01*
X86088916Y-53088506D01*
X86088918Y-53088509D01*
X86176135Y-53259681D01*
X86289055Y-53415102D01*
X86424898Y-53550945D01*
X86580319Y-53663865D01*
X86751491Y-53751082D01*
X86751493Y-53751083D01*
X86816081Y-53772069D01*
X86873756Y-53811506D01*
X86900955Y-53875865D01*
X86889041Y-53944711D01*
X86841797Y-53996187D01*
X86816081Y-54007931D01*
X86751493Y-54028916D01*
X86580318Y-54116135D01*
X86491645Y-54180560D01*
X86424898Y-54229055D01*
X86424896Y-54229057D01*
X86424895Y-54229057D01*
X86289057Y-54364895D01*
X86289057Y-54364896D01*
X86289055Y-54364898D01*
X86240560Y-54431645D01*
X86176135Y-54520318D01*
X86088916Y-54691493D01*
X86029553Y-54874197D01*
X85999500Y-55063945D01*
X85999500Y-55256054D01*
X86029553Y-55445802D01*
X86088916Y-55628506D01*
X86088918Y-55628509D01*
X86176135Y-55799681D01*
X86289055Y-55955102D01*
X86424898Y-56090945D01*
X86580319Y-56203865D01*
X86751491Y-56291082D01*
X86751493Y-56291083D01*
X86816081Y-56312069D01*
X86873756Y-56351506D01*
X86900955Y-56415865D01*
X86889041Y-56484711D01*
X86841797Y-56536187D01*
X86816081Y-56547931D01*
X86751493Y-56568916D01*
X86580318Y-56656135D01*
X86491645Y-56720560D01*
X86424898Y-56769055D01*
X86424896Y-56769057D01*
X86424895Y-56769057D01*
X86289057Y-56904895D01*
X86289057Y-56904896D01*
X86289055Y-56904898D01*
X86240560Y-56971645D01*
X86176135Y-57060318D01*
X86088916Y-57231493D01*
X86029553Y-57414197D01*
X85999500Y-57603945D01*
X85999500Y-57796054D01*
X86029553Y-57985802D01*
X86088916Y-58168506D01*
X86088918Y-58168509D01*
X86176135Y-58339681D01*
X86289055Y-58495102D01*
X86424898Y-58630945D01*
X86580319Y-58743865D01*
X86751491Y-58831082D01*
X86751493Y-58831083D01*
X86816081Y-58852069D01*
X86873756Y-58891506D01*
X86900955Y-58955865D01*
X86889041Y-59024711D01*
X86841797Y-59076187D01*
X86816081Y-59087931D01*
X86751493Y-59108916D01*
X86580318Y-59196135D01*
X86491645Y-59260560D01*
X86424898Y-59309055D01*
X86424896Y-59309057D01*
X86424895Y-59309057D01*
X86289057Y-59444895D01*
X86289057Y-59444896D01*
X86289055Y-59444898D01*
X86240560Y-59511645D01*
X86176135Y-59600318D01*
X86088916Y-59771493D01*
X86029553Y-59954197D01*
X85999500Y-60143945D01*
X85999500Y-60336054D01*
X86029553Y-60525802D01*
X86088916Y-60708506D01*
X86088918Y-60708509D01*
X86176135Y-60879681D01*
X86289055Y-61035102D01*
X86424898Y-61170945D01*
X86580319Y-61283865D01*
X86751491Y-61371082D01*
X86751493Y-61371083D01*
X86816081Y-61392069D01*
X86873756Y-61431506D01*
X86900955Y-61495865D01*
X86889041Y-61564711D01*
X86841797Y-61616187D01*
X86816081Y-61627931D01*
X86751493Y-61648916D01*
X86580318Y-61736135D01*
X86491645Y-61800560D01*
X86424898Y-61849055D01*
X86424896Y-61849057D01*
X86424895Y-61849057D01*
X86289057Y-61984895D01*
X86289057Y-61984896D01*
X86289055Y-61984898D01*
X86240560Y-62051645D01*
X86176135Y-62140318D01*
X86088916Y-62311493D01*
X86029553Y-62494197D01*
X86029553Y-62494199D01*
X85999500Y-62683945D01*
X85999500Y-62876055D01*
X86002078Y-62892331D01*
X86029553Y-63065802D01*
X86088916Y-63248506D01*
X86088918Y-63248509D01*
X86176135Y-63419681D01*
X86289055Y-63575102D01*
X86424898Y-63710945D01*
X86580319Y-63823865D01*
X86751491Y-63911082D01*
X86751493Y-63911083D01*
X86816081Y-63932069D01*
X86873756Y-63971506D01*
X86900955Y-64035865D01*
X86889041Y-64104711D01*
X86841797Y-64156187D01*
X86816081Y-64167931D01*
X86751493Y-64188916D01*
X86580318Y-64276135D01*
X86491645Y-64340560D01*
X86424898Y-64389055D01*
X86424896Y-64389057D01*
X86424895Y-64389057D01*
X86289057Y-64524895D01*
X86289057Y-64524896D01*
X86289055Y-64524898D01*
X86240560Y-64591645D01*
X86176135Y-64680318D01*
X86088916Y-64851493D01*
X86029553Y-65034197D01*
X85999500Y-65223945D01*
X85999500Y-65416054D01*
X86029553Y-65605802D01*
X86088916Y-65788506D01*
X86088918Y-65788509D01*
X86176135Y-65959681D01*
X86289055Y-66115102D01*
X86424898Y-66250945D01*
X86580319Y-66363865D01*
X86751491Y-66451082D01*
X86751495Y-66451084D01*
X86816890Y-66472332D01*
X86874566Y-66511769D01*
X86901765Y-66576127D01*
X86889851Y-66644974D01*
X86842607Y-66696450D01*
X86816893Y-66708194D01*
X86751677Y-66729384D01*
X86580577Y-66816565D01*
X86425230Y-66929430D01*
X86425225Y-66929434D01*
X86289434Y-67065225D01*
X86289430Y-67065230D01*
X86176565Y-67220577D01*
X86089383Y-67391680D01*
X86030040Y-67574318D01*
X86024389Y-67610000D01*
X87066988Y-67610000D01*
X87034075Y-67667007D01*
X87000000Y-67794174D01*
X87000000Y-67925826D01*
X87034075Y-68052993D01*
X87066988Y-68110000D01*
X86024389Y-68110000D01*
X86030040Y-68145681D01*
X86089383Y-68328319D01*
X86176565Y-68499422D01*
X86289430Y-68654769D01*
X86289434Y-68654774D01*
X86425225Y-68790565D01*
X86425230Y-68790569D01*
X86580577Y-68903434D01*
X86751680Y-68990616D01*
X86816891Y-69011805D01*
X86874567Y-69051242D01*
X86901765Y-69115601D01*
X86889850Y-69184447D01*
X86842606Y-69235923D01*
X86816892Y-69247667D01*
X86751492Y-69268917D01*
X86580318Y-69356135D01*
X86491645Y-69420560D01*
X86424898Y-69469055D01*
X86424896Y-69469057D01*
X86424895Y-69469057D01*
X86289057Y-69604895D01*
X86289057Y-69604896D01*
X86289055Y-69604898D01*
X86240560Y-69671645D01*
X86176135Y-69760318D01*
X86088916Y-69931493D01*
X86029553Y-70114197D01*
X85999500Y-70303945D01*
X85999500Y-70496054D01*
X86029553Y-70685802D01*
X86088916Y-70868506D01*
X86088918Y-70868509D01*
X86176135Y-71039681D01*
X86289055Y-71195102D01*
X86424898Y-71330945D01*
X86580319Y-71443865D01*
X86751491Y-71531082D01*
X86751493Y-71531083D01*
X86816081Y-71552069D01*
X86873756Y-71591506D01*
X86900955Y-71655865D01*
X86889041Y-71724711D01*
X86841797Y-71776187D01*
X86816081Y-71787931D01*
X86751493Y-71808916D01*
X86580318Y-71896135D01*
X86491645Y-71960560D01*
X86424898Y-72009055D01*
X86424896Y-72009057D01*
X86424895Y-72009057D01*
X86289057Y-72144895D01*
X86289057Y-72144896D01*
X86289055Y-72144898D01*
X86240560Y-72211645D01*
X86176135Y-72300318D01*
X86088916Y-72471493D01*
X86029553Y-72654197D01*
X85999500Y-72843945D01*
X85999500Y-73036054D01*
X86029553Y-73225802D01*
X86088916Y-73408506D01*
X86088918Y-73408509D01*
X86176135Y-73579681D01*
X86289055Y-73735102D01*
X86424898Y-73870945D01*
X86580319Y-73983865D01*
X86751491Y-74071082D01*
X86751493Y-74071083D01*
X86816081Y-74092069D01*
X86873756Y-74131506D01*
X86900955Y-74195865D01*
X86889041Y-74264711D01*
X86841797Y-74316187D01*
X86816081Y-74327931D01*
X86751493Y-74348916D01*
X86580318Y-74436135D01*
X86491645Y-74500560D01*
X86424898Y-74549055D01*
X86424896Y-74549057D01*
X86424895Y-74549057D01*
X86289057Y-74684895D01*
X86289057Y-74684896D01*
X86289055Y-74684898D01*
X86240560Y-74751645D01*
X86176135Y-74840318D01*
X86088916Y-75011493D01*
X86029553Y-75194197D01*
X85999500Y-75383945D01*
X85999500Y-75576054D01*
X86029553Y-75765802D01*
X86088916Y-75948506D01*
X86088918Y-75948509D01*
X86176135Y-76119681D01*
X86289055Y-76275102D01*
X86424898Y-76410945D01*
X86580319Y-76523865D01*
X86714928Y-76592452D01*
X86751493Y-76611083D01*
X86816081Y-76632069D01*
X86873756Y-76671506D01*
X86900955Y-76735865D01*
X86889041Y-76804711D01*
X86841797Y-76856187D01*
X86816081Y-76867931D01*
X86751493Y-76888916D01*
X86580318Y-76976135D01*
X86548677Y-76999124D01*
X86424898Y-77089055D01*
X86424896Y-77089057D01*
X86424895Y-77089057D01*
X86289057Y-77224895D01*
X86289057Y-77224896D01*
X86289055Y-77224898D01*
X86240560Y-77291645D01*
X86176135Y-77380318D01*
X86088916Y-77551493D01*
X86029553Y-77734197D01*
X85999500Y-77923945D01*
X85999500Y-78116054D01*
X86029553Y-78305802D01*
X86088916Y-78488506D01*
X86088918Y-78488509D01*
X86176135Y-78659681D01*
X86289055Y-78815102D01*
X86424898Y-78950945D01*
X86580319Y-79063865D01*
X86750347Y-79150499D01*
X86751493Y-79151083D01*
X86816081Y-79172069D01*
X86873756Y-79211506D01*
X86900955Y-79275865D01*
X86889041Y-79344711D01*
X86841797Y-79396187D01*
X86816081Y-79407931D01*
X86751493Y-79428916D01*
X86580318Y-79516135D01*
X86491645Y-79580560D01*
X86424898Y-79629055D01*
X86424896Y-79629057D01*
X86424895Y-79629057D01*
X86289057Y-79764895D01*
X86289057Y-79764896D01*
X86289055Y-79764898D01*
X86247867Y-79821588D01*
X86176135Y-79920318D01*
X86088916Y-80091493D01*
X86029553Y-80274197D01*
X85999500Y-80463945D01*
X85999500Y-80656054D01*
X86029553Y-80845802D01*
X86088916Y-81028506D01*
X86176135Y-81199681D01*
X86289055Y-81355102D01*
X86424898Y-81490945D01*
X86580319Y-81603865D01*
X86628556Y-81628443D01*
X86751493Y-81691083D01*
X86816081Y-81712069D01*
X86873756Y-81751506D01*
X86900955Y-81815865D01*
X86889041Y-81884711D01*
X86841797Y-81936187D01*
X86816081Y-81947931D01*
X86751493Y-81968916D01*
X86580318Y-82056135D01*
X86491645Y-82120560D01*
X86424898Y-82169055D01*
X86424896Y-82169057D01*
X86424895Y-82169057D01*
X86289057Y-82304895D01*
X86289057Y-82304896D01*
X86289055Y-82304898D01*
X86247867Y-82361588D01*
X86176135Y-82460318D01*
X86088916Y-82631493D01*
X86029553Y-82814197D01*
X85999500Y-83003945D01*
X85999500Y-83196054D01*
X86029553Y-83385802D01*
X86088916Y-83568506D01*
X86176135Y-83739681D01*
X86289055Y-83895102D01*
X86424898Y-84030945D01*
X86580319Y-84143865D01*
X86628556Y-84168443D01*
X86751493Y-84231083D01*
X86816081Y-84252069D01*
X86873756Y-84291506D01*
X86900955Y-84355865D01*
X86889041Y-84424711D01*
X86841797Y-84476187D01*
X86816081Y-84487931D01*
X86751493Y-84508916D01*
X86580318Y-84596135D01*
X86491645Y-84660560D01*
X86424898Y-84709055D01*
X86424896Y-84709057D01*
X86424895Y-84709057D01*
X86289057Y-84844895D01*
X86289057Y-84844896D01*
X86289055Y-84844898D01*
X86247867Y-84901588D01*
X86176135Y-85000318D01*
X86088916Y-85171493D01*
X86029553Y-85354197D01*
X85999500Y-85543945D01*
X85999500Y-85736054D01*
X86029553Y-85925802D01*
X86088916Y-86108506D01*
X86176135Y-86279681D01*
X86289055Y-86435102D01*
X86424898Y-86570945D01*
X86580319Y-86683865D01*
X86628556Y-86708443D01*
X86751493Y-86771083D01*
X86816081Y-86792069D01*
X86873756Y-86831506D01*
X86900955Y-86895865D01*
X86889041Y-86964711D01*
X86841797Y-87016187D01*
X86816081Y-87027931D01*
X86751493Y-87048916D01*
X86580318Y-87136135D01*
X86491645Y-87200560D01*
X86424898Y-87249055D01*
X86424896Y-87249057D01*
X86424895Y-87249057D01*
X86289057Y-87384895D01*
X86289057Y-87384896D01*
X86289055Y-87384898D01*
X86247867Y-87441588D01*
X86176135Y-87540318D01*
X86088916Y-87711493D01*
X86029553Y-87894197D01*
X85999500Y-88083945D01*
X85999500Y-88276054D01*
X86029553Y-88465802D01*
X86088916Y-88648506D01*
X86176135Y-88819681D01*
X86289055Y-88975102D01*
X86424898Y-89110945D01*
X86580319Y-89223865D01*
X86628556Y-89248443D01*
X86751493Y-89311083D01*
X86816081Y-89332069D01*
X86873756Y-89371506D01*
X86900955Y-89435865D01*
X86889041Y-89504711D01*
X86841797Y-89556187D01*
X86816081Y-89567931D01*
X86751493Y-89588916D01*
X86580318Y-89676135D01*
X86491645Y-89740560D01*
X86424898Y-89789055D01*
X86424896Y-89789057D01*
X86424895Y-89789057D01*
X86289057Y-89924895D01*
X86289057Y-89924896D01*
X86289055Y-89924898D01*
X86247867Y-89981588D01*
X86176135Y-90080318D01*
X86088916Y-90251493D01*
X86029553Y-90434197D01*
X85999500Y-90623945D01*
X85999500Y-90816054D01*
X86029553Y-91005802D01*
X86088916Y-91188506D01*
X86176135Y-91359681D01*
X86289055Y-91515102D01*
X86424898Y-91650945D01*
X86580319Y-91763865D01*
X86628556Y-91788443D01*
X86751493Y-91851083D01*
X86816081Y-91872069D01*
X86873756Y-91911506D01*
X86900955Y-91975865D01*
X86889041Y-92044711D01*
X86841797Y-92096187D01*
X86816081Y-92107931D01*
X86751493Y-92128916D01*
X86580318Y-92216135D01*
X86491645Y-92280560D01*
X86424898Y-92329055D01*
X86424896Y-92329057D01*
X86424895Y-92329057D01*
X86289057Y-92464895D01*
X86289057Y-92464896D01*
X86289055Y-92464898D01*
X86247867Y-92521588D01*
X86176135Y-92620318D01*
X86088916Y-92791493D01*
X86029553Y-92974197D01*
X85999500Y-93163945D01*
X85999500Y-93356054D01*
X86029553Y-93545802D01*
X86088916Y-93728506D01*
X86176003Y-93899422D01*
X86176135Y-93899681D01*
X86289055Y-94055102D01*
X86424898Y-94190945D01*
X86580319Y-94303865D01*
X86628556Y-94328443D01*
X86751493Y-94391083D01*
X86841982Y-94420484D01*
X86934199Y-94450447D01*
X87123945Y-94480500D01*
X87123946Y-94480500D01*
X87876054Y-94480500D01*
X87876055Y-94480500D01*
X88065801Y-94450447D01*
X88248509Y-94391082D01*
X88419681Y-94303865D01*
X88575102Y-94190945D01*
X88710945Y-94055102D01*
X88823865Y-93899681D01*
X88911082Y-93728509D01*
X88970447Y-93545801D01*
X89000500Y-93356055D01*
X89000500Y-93163945D01*
X88970447Y-92974199D01*
X88911922Y-92794075D01*
X88911083Y-92791493D01*
X88876571Y-92723760D01*
X88823865Y-92620319D01*
X88710945Y-92464898D01*
X88575102Y-92329055D01*
X88419681Y-92216135D01*
X88249422Y-92129383D01*
X88248504Y-92128915D01*
X88183919Y-92107931D01*
X88126243Y-92068494D01*
X88099044Y-92004136D01*
X88110958Y-91935289D01*
X88158202Y-91883813D01*
X88183919Y-91872069D01*
X88248504Y-91851084D01*
X88248506Y-91851082D01*
X88248509Y-91851082D01*
X88419681Y-91763865D01*
X88575102Y-91650945D01*
X88710945Y-91515102D01*
X88823865Y-91359681D01*
X88911082Y-91188509D01*
X88970447Y-91005801D01*
X89000500Y-90816055D01*
X89000500Y-90623945D01*
X88970447Y-90434199D01*
X88911082Y-90251491D01*
X88823865Y-90080319D01*
X88710945Y-89924898D01*
X88575102Y-89789055D01*
X88419681Y-89676135D01*
X88309919Y-89620208D01*
X88248504Y-89588915D01*
X88183919Y-89567931D01*
X88126243Y-89528494D01*
X88099044Y-89464136D01*
X88110958Y-89395289D01*
X88158202Y-89343813D01*
X88183919Y-89332069D01*
X88248504Y-89311084D01*
X88248506Y-89311082D01*
X88248509Y-89311082D01*
X88419681Y-89223865D01*
X88575102Y-89110945D01*
X88710945Y-88975102D01*
X88823865Y-88819681D01*
X88911082Y-88648509D01*
X88970447Y-88465801D01*
X89000500Y-88276055D01*
X89000500Y-88083945D01*
X88970447Y-87894199D01*
X88911082Y-87711491D01*
X88823865Y-87540319D01*
X88710945Y-87384898D01*
X88575102Y-87249055D01*
X88419681Y-87136135D01*
X88309919Y-87080208D01*
X88248504Y-87048915D01*
X88183919Y-87027931D01*
X88126243Y-86988494D01*
X88099044Y-86924136D01*
X88110958Y-86855289D01*
X88158202Y-86803813D01*
X88183919Y-86792069D01*
X88248504Y-86771084D01*
X88248506Y-86771082D01*
X88248509Y-86771082D01*
X88419681Y-86683865D01*
X88575102Y-86570945D01*
X88710945Y-86435102D01*
X88823865Y-86279681D01*
X88911082Y-86108509D01*
X88970447Y-85925801D01*
X89000500Y-85736055D01*
X89000500Y-85543945D01*
X88970447Y-85354199D01*
X88911082Y-85171491D01*
X88823865Y-85000319D01*
X88710945Y-84844898D01*
X88575102Y-84709055D01*
X88419681Y-84596135D01*
X88309919Y-84540208D01*
X88248504Y-84508915D01*
X88183919Y-84487931D01*
X88126243Y-84448494D01*
X88099044Y-84384136D01*
X88110958Y-84315289D01*
X88158202Y-84263813D01*
X88183919Y-84252069D01*
X88248504Y-84231084D01*
X88248506Y-84231082D01*
X88248509Y-84231082D01*
X88419681Y-84143865D01*
X88575102Y-84030945D01*
X88710945Y-83895102D01*
X88823865Y-83739681D01*
X88911082Y-83568509D01*
X88970447Y-83385801D01*
X89000500Y-83196055D01*
X89000500Y-83003945D01*
X88970447Y-82814199D01*
X88911082Y-82631491D01*
X88823865Y-82460319D01*
X88710945Y-82304898D01*
X88575102Y-82169055D01*
X88419681Y-82056135D01*
X88309919Y-82000208D01*
X88248504Y-81968915D01*
X88183919Y-81947931D01*
X88126243Y-81908494D01*
X88099044Y-81844136D01*
X88110958Y-81775289D01*
X88158202Y-81723813D01*
X88183919Y-81712069D01*
X88248504Y-81691084D01*
X88248506Y-81691082D01*
X88248509Y-81691082D01*
X88419681Y-81603865D01*
X88575102Y-81490945D01*
X88710945Y-81355102D01*
X88823865Y-81199681D01*
X88911082Y-81028509D01*
X88970447Y-80845801D01*
X89000500Y-80656055D01*
X89000500Y-80463945D01*
X88970447Y-80274199D01*
X88911082Y-80091491D01*
X88823865Y-79920319D01*
X88710945Y-79764898D01*
X88575102Y-79629055D01*
X88419681Y-79516135D01*
X88248504Y-79428915D01*
X88183919Y-79407931D01*
X88126243Y-79368494D01*
X88099044Y-79304136D01*
X88110958Y-79235289D01*
X88158202Y-79183813D01*
X88183919Y-79172069D01*
X88248504Y-79151084D01*
X88248506Y-79151082D01*
X88248509Y-79151082D01*
X88419681Y-79063865D01*
X88575102Y-78950945D01*
X88710945Y-78815102D01*
X88823865Y-78659681D01*
X88911082Y-78488509D01*
X88970447Y-78305801D01*
X89000500Y-78116055D01*
X89000500Y-77923945D01*
X88970447Y-77734199D01*
X88911082Y-77551491D01*
X88823865Y-77380319D01*
X88710945Y-77224898D01*
X88575102Y-77089055D01*
X88419681Y-76976135D01*
X88274449Y-76902135D01*
X96849500Y-76902135D01*
X96849500Y-78697870D01*
X96849501Y-78697876D01*
X96855908Y-78757483D01*
X96906202Y-78892328D01*
X96906206Y-78892335D01*
X96992452Y-79007544D01*
X96992455Y-79007547D01*
X97107664Y-79093793D01*
X97107671Y-79093797D01*
X97239082Y-79142810D01*
X97295016Y-79184681D01*
X97319433Y-79250145D01*
X97304582Y-79318418D01*
X97283431Y-79346673D01*
X97169889Y-79460215D01*
X97044951Y-79632179D01*
X96948444Y-79821585D01*
X96882753Y-80023760D01*
X96849500Y-80233713D01*
X96849500Y-80446287D01*
X96882754Y-80656243D01*
X96944345Y-80845801D01*
X96948444Y-80858414D01*
X97044951Y-81047820D01*
X97169890Y-81219786D01*
X97320213Y-81370109D01*
X97492182Y-81495050D01*
X97500946Y-81499516D01*
X97551742Y-81547491D01*
X97568536Y-81615312D01*
X97545998Y-81681447D01*
X97500946Y-81720484D01*
X97492182Y-81724949D01*
X97320213Y-81849890D01*
X97169890Y-82000213D01*
X97044951Y-82172179D01*
X96948444Y-82361585D01*
X96882753Y-82563760D01*
X96849500Y-82773713D01*
X96849500Y-82986287D01*
X96882754Y-83196243D01*
X96944345Y-83385801D01*
X96948444Y-83398414D01*
X97044951Y-83587820D01*
X97169890Y-83759786D01*
X97320213Y-83910109D01*
X97492182Y-84035050D01*
X97500946Y-84039516D01*
X97551742Y-84087491D01*
X97568536Y-84155312D01*
X97545998Y-84221447D01*
X97500946Y-84260484D01*
X97492182Y-84264949D01*
X97320213Y-84389890D01*
X97169890Y-84540213D01*
X97044951Y-84712179D01*
X96948444Y-84901585D01*
X96882753Y-85103760D01*
X96849500Y-85313713D01*
X96849500Y-85526287D01*
X96882754Y-85736243D01*
X96944345Y-85925801D01*
X96948444Y-85938414D01*
X97044951Y-86127820D01*
X97169890Y-86299786D01*
X97320213Y-86450109D01*
X97492182Y-86575050D01*
X97500946Y-86579516D01*
X97551742Y-86627491D01*
X97568536Y-86695312D01*
X97545998Y-86761447D01*
X97500946Y-86800484D01*
X97492182Y-86804949D01*
X97320213Y-86929890D01*
X97169890Y-87080213D01*
X97044951Y-87252179D01*
X96948444Y-87441585D01*
X96882753Y-87643760D01*
X96849500Y-87853713D01*
X96849500Y-88066287D01*
X96882754Y-88276243D01*
X96944345Y-88465801D01*
X96948444Y-88478414D01*
X97044951Y-88667820D01*
X97169890Y-88839786D01*
X97320213Y-88990109D01*
X97492182Y-89115050D01*
X97500946Y-89119516D01*
X97551742Y-89167491D01*
X97568536Y-89235312D01*
X97545998Y-89301447D01*
X97500946Y-89340484D01*
X97492182Y-89344949D01*
X97320213Y-89469890D01*
X97169890Y-89620213D01*
X97044951Y-89792179D01*
X96948444Y-89981585D01*
X96882753Y-90183760D01*
X96849500Y-90393713D01*
X96849500Y-90606287D01*
X96882754Y-90816243D01*
X96944345Y-91005801D01*
X96948444Y-91018414D01*
X97044951Y-91207820D01*
X97169890Y-91379786D01*
X97320213Y-91530109D01*
X97492182Y-91655050D01*
X97500946Y-91659516D01*
X97551742Y-91707491D01*
X97568536Y-91775312D01*
X97545998Y-91841447D01*
X97500946Y-91880484D01*
X97492182Y-91884949D01*
X97320213Y-92009890D01*
X97169890Y-92160213D01*
X97044951Y-92332179D01*
X96948444Y-92521585D01*
X96882753Y-92723760D01*
X96849500Y-92933713D01*
X96849500Y-93146286D01*
X96882753Y-93356239D01*
X96882753Y-93356241D01*
X96882754Y-93356243D01*
X96944345Y-93545801D01*
X96948444Y-93558414D01*
X97044951Y-93747820D01*
X97169890Y-93919786D01*
X97320213Y-94070109D01*
X97492182Y-94195050D01*
X97500946Y-94199516D01*
X97551742Y-94247491D01*
X97568536Y-94315312D01*
X97545998Y-94381447D01*
X97500946Y-94420484D01*
X97492182Y-94424949D01*
X97320213Y-94549890D01*
X97169890Y-94700213D01*
X97044951Y-94872179D01*
X96948444Y-95061585D01*
X96882753Y-95263760D01*
X96849500Y-95473713D01*
X96849500Y-95686286D01*
X96882753Y-95896239D01*
X96948444Y-96098414D01*
X97044951Y-96287820D01*
X97169890Y-96459786D01*
X97320213Y-96610109D01*
X97492179Y-96735048D01*
X97492181Y-96735049D01*
X97492184Y-96735051D01*
X97681588Y-96831557D01*
X97883757Y-96897246D01*
X98093713Y-96930500D01*
X98093714Y-96930500D01*
X98306286Y-96930500D01*
X98306287Y-96930500D01*
X98516243Y-96897246D01*
X98718412Y-96831557D01*
X98907816Y-96735051D01*
X98929789Y-96719086D01*
X99079786Y-96610109D01*
X99079788Y-96610106D01*
X99079792Y-96610104D01*
X99230104Y-96459792D01*
X99230106Y-96459788D01*
X99230109Y-96459786D01*
X99355048Y-96287820D01*
X99355047Y-96287820D01*
X99355051Y-96287816D01*
X99451557Y-96098412D01*
X99517246Y-95896243D01*
X99550500Y-95686287D01*
X99550500Y-95473713D01*
X99517246Y-95263757D01*
X99451557Y-95061588D01*
X99355051Y-94872184D01*
X99355049Y-94872181D01*
X99355048Y-94872179D01*
X99230109Y-94700213D01*
X99079786Y-94549890D01*
X98907820Y-94424951D01*
X98907115Y-94424591D01*
X98899054Y-94420485D01*
X98848259Y-94372512D01*
X98831463Y-94304692D01*
X98853999Y-94238556D01*
X98899054Y-94199515D01*
X98907816Y-94195051D01*
X98929789Y-94179086D01*
X99079786Y-94070109D01*
X99079788Y-94070106D01*
X99079792Y-94070104D01*
X99230104Y-93919792D01*
X99230106Y-93919788D01*
X99230109Y-93919786D01*
X99355048Y-93747820D01*
X99355047Y-93747820D01*
X99355051Y-93747816D01*
X99451557Y-93558412D01*
X99517246Y-93356243D01*
X99550500Y-93146287D01*
X99550500Y-92933713D01*
X99517246Y-92723757D01*
X99451557Y-92521588D01*
X99355051Y-92332184D01*
X99355049Y-92332181D01*
X99355048Y-92332179D01*
X99230109Y-92160213D01*
X99079786Y-92009890D01*
X98907820Y-91884951D01*
X98905586Y-91883813D01*
X98899054Y-91880485D01*
X98848259Y-91832512D01*
X98831463Y-91764692D01*
X98853999Y-91698556D01*
X98899054Y-91659515D01*
X98907816Y-91655051D01*
X98929789Y-91639086D01*
X99079786Y-91530109D01*
X99079788Y-91530106D01*
X99079792Y-91530104D01*
X99230104Y-91379792D01*
X99230106Y-91379788D01*
X99230109Y-91379786D01*
X99355048Y-91207820D01*
X99355047Y-91207820D01*
X99355051Y-91207816D01*
X99451557Y-91018412D01*
X99517246Y-90816243D01*
X99550500Y-90606287D01*
X99550500Y-90393713D01*
X99517246Y-90183757D01*
X99451557Y-89981588D01*
X99355051Y-89792184D01*
X99355049Y-89792181D01*
X99355048Y-89792179D01*
X99230109Y-89620213D01*
X99079786Y-89469890D01*
X98907820Y-89344951D01*
X98905586Y-89343813D01*
X98899054Y-89340485D01*
X98848259Y-89292512D01*
X98831463Y-89224692D01*
X98853999Y-89158556D01*
X98899054Y-89119515D01*
X98907816Y-89115051D01*
X98929789Y-89099086D01*
X99079786Y-88990109D01*
X99079788Y-88990106D01*
X99079792Y-88990104D01*
X99230104Y-88839792D01*
X99230106Y-88839788D01*
X99230109Y-88839786D01*
X99355048Y-88667820D01*
X99355047Y-88667820D01*
X99355051Y-88667816D01*
X99451557Y-88478412D01*
X99517246Y-88276243D01*
X99550500Y-88066287D01*
X99550500Y-87853713D01*
X99517246Y-87643757D01*
X99451557Y-87441588D01*
X99355051Y-87252184D01*
X99355049Y-87252181D01*
X99355048Y-87252179D01*
X99230109Y-87080213D01*
X99079786Y-86929890D01*
X98907820Y-86804951D01*
X98905586Y-86803813D01*
X98899054Y-86800485D01*
X98848259Y-86752512D01*
X98831463Y-86684692D01*
X98853999Y-86618556D01*
X98899054Y-86579515D01*
X98907816Y-86575051D01*
X98929789Y-86559086D01*
X99079786Y-86450109D01*
X99079788Y-86450106D01*
X99079792Y-86450104D01*
X99230104Y-86299792D01*
X99230106Y-86299788D01*
X99230109Y-86299786D01*
X99355048Y-86127820D01*
X99355047Y-86127820D01*
X99355051Y-86127816D01*
X99451557Y-85938412D01*
X99517246Y-85736243D01*
X99550500Y-85526287D01*
X99550500Y-85313713D01*
X99517246Y-85103757D01*
X99451557Y-84901588D01*
X99355051Y-84712184D01*
X99355049Y-84712181D01*
X99355048Y-84712179D01*
X99230109Y-84540213D01*
X99079786Y-84389890D01*
X98907820Y-84264951D01*
X98905586Y-84263813D01*
X98899054Y-84260485D01*
X98848259Y-84212512D01*
X98831463Y-84144692D01*
X98853999Y-84078556D01*
X98899054Y-84039515D01*
X98907816Y-84035051D01*
X98929789Y-84019086D01*
X99079786Y-83910109D01*
X99079788Y-83910106D01*
X99079792Y-83910104D01*
X99230104Y-83759792D01*
X99230106Y-83759788D01*
X99230109Y-83759786D01*
X99355048Y-83587820D01*
X99355047Y-83587820D01*
X99355051Y-83587816D01*
X99451557Y-83398412D01*
X99517246Y-83196243D01*
X99550500Y-82986287D01*
X99550500Y-82773713D01*
X99517246Y-82563757D01*
X99451557Y-82361588D01*
X99355051Y-82172184D01*
X99355049Y-82172181D01*
X99355048Y-82172179D01*
X99230109Y-82000213D01*
X99079786Y-81849890D01*
X98907820Y-81724951D01*
X98905586Y-81723813D01*
X98899054Y-81720485D01*
X98848259Y-81672512D01*
X98831463Y-81604692D01*
X98853999Y-81538556D01*
X98899054Y-81499515D01*
X98907816Y-81495051D01*
X98929789Y-81479086D01*
X99079786Y-81370109D01*
X99079788Y-81370106D01*
X99079792Y-81370104D01*
X99230104Y-81219792D01*
X99230106Y-81219788D01*
X99230109Y-81219786D01*
X99355048Y-81047820D01*
X99355047Y-81047820D01*
X99355051Y-81047816D01*
X99451557Y-80858412D01*
X99517246Y-80656243D01*
X99550500Y-80446287D01*
X99550500Y-80233713D01*
X99517246Y-80023757D01*
X99451557Y-79821588D01*
X99355051Y-79632184D01*
X99355049Y-79632181D01*
X99355048Y-79632179D01*
X99230109Y-79460213D01*
X99116569Y-79346673D01*
X99083084Y-79285350D01*
X99088068Y-79215658D01*
X99129940Y-79159725D01*
X99160915Y-79142810D01*
X99292331Y-79093796D01*
X99407546Y-79007546D01*
X99493796Y-78892331D01*
X99544091Y-78757483D01*
X99550500Y-78697873D01*
X99550499Y-76902128D01*
X99544091Y-76842517D01*
X99529990Y-76804711D01*
X99493797Y-76707671D01*
X99493793Y-76707664D01*
X99407547Y-76592455D01*
X99407544Y-76592452D01*
X99292335Y-76506206D01*
X99292328Y-76506202D01*
X99157482Y-76455908D01*
X99157483Y-76455908D01*
X99097883Y-76449501D01*
X99097881Y-76449500D01*
X99097873Y-76449500D01*
X99097864Y-76449500D01*
X97302129Y-76449500D01*
X97302123Y-76449501D01*
X97242516Y-76455908D01*
X97107671Y-76506202D01*
X97107664Y-76506206D01*
X96992455Y-76592452D01*
X96992452Y-76592455D01*
X96906206Y-76707664D01*
X96906202Y-76707671D01*
X96855908Y-76842517D01*
X96850920Y-76888915D01*
X96849501Y-76902123D01*
X96849500Y-76902135D01*
X88274449Y-76902135D01*
X88248504Y-76888915D01*
X88183919Y-76867931D01*
X88126243Y-76828494D01*
X88099044Y-76764136D01*
X88110958Y-76695289D01*
X88158202Y-76643813D01*
X88183919Y-76632069D01*
X88248504Y-76611084D01*
X88248506Y-76611082D01*
X88248509Y-76611082D01*
X88419681Y-76523865D01*
X88575102Y-76410945D01*
X88710945Y-76275102D01*
X88823865Y-76119681D01*
X88911082Y-75948509D01*
X88970447Y-75765801D01*
X89000500Y-75576055D01*
X89000500Y-75383945D01*
X88970447Y-75194199D01*
X88911082Y-75011491D01*
X88823865Y-74840319D01*
X88710945Y-74684898D01*
X88575102Y-74549055D01*
X88419681Y-74436135D01*
X88248504Y-74348915D01*
X88183919Y-74327931D01*
X88126243Y-74288494D01*
X88099044Y-74224136D01*
X88110958Y-74155289D01*
X88158202Y-74103813D01*
X88183919Y-74092069D01*
X88248504Y-74071084D01*
X88248506Y-74071082D01*
X88248509Y-74071082D01*
X88419681Y-73983865D01*
X88575102Y-73870945D01*
X88710945Y-73735102D01*
X88823865Y-73579681D01*
X88911082Y-73408509D01*
X88970447Y-73225801D01*
X89000500Y-73036055D01*
X89000500Y-72843945D01*
X88970447Y-72654199D01*
X88911082Y-72471491D01*
X88823865Y-72300319D01*
X88710945Y-72144898D01*
X88575102Y-72009055D01*
X88419681Y-71896135D01*
X88248504Y-71808915D01*
X88183919Y-71787931D01*
X88126243Y-71748494D01*
X88099044Y-71684136D01*
X88110958Y-71615289D01*
X88158202Y-71563813D01*
X88183919Y-71552069D01*
X88248504Y-71531084D01*
X88248506Y-71531082D01*
X88248509Y-71531082D01*
X88419681Y-71443865D01*
X88575102Y-71330945D01*
X88710945Y-71195102D01*
X88823865Y-71039681D01*
X88911082Y-70868509D01*
X88970447Y-70685801D01*
X89000500Y-70496055D01*
X89000500Y-70303945D01*
X88970447Y-70114199D01*
X88911082Y-69931491D01*
X88823865Y-69760319D01*
X88710945Y-69604898D01*
X88575102Y-69469055D01*
X88419681Y-69356135D01*
X88248509Y-69268918D01*
X88248508Y-69268917D01*
X88248505Y-69268916D01*
X88183108Y-69247667D01*
X88125432Y-69208229D01*
X88098234Y-69143871D01*
X88110149Y-69075024D01*
X88157393Y-69023549D01*
X88183108Y-69011805D01*
X88248319Y-68990616D01*
X88419422Y-68903434D01*
X88421210Y-68902135D01*
X96849500Y-68902135D01*
X96849500Y-70697870D01*
X96849501Y-70697876D01*
X96855908Y-70757483D01*
X96906202Y-70892328D01*
X96906206Y-70892335D01*
X96992452Y-71007544D01*
X96992455Y-71007547D01*
X97107664Y-71093793D01*
X97107671Y-71093797D01*
X97242517Y-71144091D01*
X97242516Y-71144091D01*
X97249444Y-71144835D01*
X97302127Y-71150500D01*
X99097872Y-71150499D01*
X99157483Y-71144091D01*
X99292331Y-71093796D01*
X99407546Y-71007546D01*
X99493796Y-70892331D01*
X99544091Y-70757483D01*
X99550500Y-70697873D01*
X99550499Y-68902128D01*
X99544091Y-68842517D01*
X99527669Y-68798488D01*
X99493797Y-68707671D01*
X99493793Y-68707664D01*
X99407547Y-68592455D01*
X99407544Y-68592452D01*
X99292335Y-68506206D01*
X99292328Y-68506202D01*
X99157482Y-68455908D01*
X99157483Y-68455908D01*
X99097883Y-68449501D01*
X99097881Y-68449500D01*
X99097873Y-68449500D01*
X99097864Y-68449500D01*
X97302129Y-68449500D01*
X97302123Y-68449501D01*
X97242516Y-68455908D01*
X97107671Y-68506202D01*
X97107664Y-68506206D01*
X96992455Y-68592452D01*
X96992452Y-68592455D01*
X96906206Y-68707664D01*
X96906202Y-68707671D01*
X96855908Y-68842517D01*
X96849501Y-68902116D01*
X96849501Y-68902123D01*
X96849500Y-68902135D01*
X88421210Y-68902135D01*
X88563871Y-68798488D01*
X88574769Y-68790569D01*
X88574774Y-68790565D01*
X88710565Y-68654774D01*
X88710569Y-68654769D01*
X88823434Y-68499422D01*
X88910616Y-68328319D01*
X88969959Y-68145681D01*
X88975611Y-68110000D01*
X87933012Y-68110000D01*
X87965925Y-68052993D01*
X88000000Y-67925826D01*
X88000000Y-67794174D01*
X87965925Y-67667007D01*
X87933012Y-67610000D01*
X88975611Y-67610000D01*
X88969959Y-67574318D01*
X88910616Y-67391680D01*
X88823434Y-67220577D01*
X88710569Y-67065230D01*
X88710565Y-67065225D01*
X88574774Y-66929434D01*
X88574769Y-66929430D01*
X88419422Y-66816565D01*
X88248321Y-66729383D01*
X88183107Y-66708194D01*
X88125432Y-66668756D01*
X88098234Y-66604397D01*
X88110149Y-66535551D01*
X88157394Y-66484075D01*
X88183109Y-66472332D01*
X88248504Y-66451084D01*
X88248506Y-66451082D01*
X88248509Y-66451082D01*
X88419681Y-66363865D01*
X88575102Y-66250945D01*
X88710945Y-66115102D01*
X88823865Y-65959681D01*
X88911082Y-65788509D01*
X88970447Y-65605801D01*
X89000500Y-65416055D01*
X89000500Y-65223945D01*
X88970447Y-65034199D01*
X88911082Y-64851491D01*
X88823865Y-64680319D01*
X88710945Y-64524898D01*
X88575102Y-64389055D01*
X88419681Y-64276135D01*
X88248504Y-64188915D01*
X88183919Y-64167931D01*
X88126243Y-64128494D01*
X88099044Y-64064136D01*
X88110958Y-63995289D01*
X88158202Y-63943813D01*
X88183919Y-63932069D01*
X88248504Y-63911084D01*
X88248506Y-63911082D01*
X88248509Y-63911082D01*
X88419681Y-63823865D01*
X88575102Y-63710945D01*
X88710945Y-63575102D01*
X88823865Y-63419681D01*
X88911082Y-63248509D01*
X88970447Y-63065801D01*
X89000500Y-62876055D01*
X89000500Y-62683945D01*
X88970447Y-62494199D01*
X88911082Y-62311491D01*
X88823865Y-62140319D01*
X88710945Y-61984898D01*
X88575102Y-61849055D01*
X88419681Y-61736135D01*
X88248504Y-61648915D01*
X88183919Y-61627931D01*
X88126243Y-61588494D01*
X88099044Y-61524136D01*
X88110958Y-61455289D01*
X88158202Y-61403813D01*
X88183919Y-61392069D01*
X88248504Y-61371084D01*
X88248506Y-61371082D01*
X88248509Y-61371082D01*
X88419681Y-61283865D01*
X88575102Y-61170945D01*
X88710945Y-61035102D01*
X88807551Y-60902135D01*
X96849500Y-60902135D01*
X96849500Y-62697870D01*
X96849501Y-62697876D01*
X96855908Y-62757483D01*
X96906202Y-62892328D01*
X96906206Y-62892335D01*
X96992452Y-63007544D01*
X96992455Y-63007547D01*
X97107664Y-63093793D01*
X97107671Y-63093797D01*
X97242517Y-63144091D01*
X97242516Y-63144091D01*
X97249444Y-63144835D01*
X97302127Y-63150500D01*
X99097872Y-63150499D01*
X99157483Y-63144091D01*
X99292331Y-63093796D01*
X99407546Y-63007546D01*
X99493796Y-62892331D01*
X99544091Y-62757483D01*
X99550500Y-62697873D01*
X99550499Y-60902128D01*
X99544091Y-60842517D01*
X99494109Y-60708509D01*
X99493797Y-60707671D01*
X99493793Y-60707664D01*
X99407547Y-60592455D01*
X99407544Y-60592452D01*
X99292335Y-60506206D01*
X99292328Y-60506202D01*
X99157482Y-60455908D01*
X99157483Y-60455908D01*
X99097883Y-60449501D01*
X99097881Y-60449500D01*
X99097873Y-60449500D01*
X99097864Y-60449500D01*
X97302129Y-60449500D01*
X97302123Y-60449501D01*
X97242516Y-60455908D01*
X97107671Y-60506202D01*
X97107664Y-60506206D01*
X96992455Y-60592452D01*
X96992452Y-60592455D01*
X96906206Y-60707664D01*
X96906202Y-60707671D01*
X96855908Y-60842517D01*
X96851913Y-60879681D01*
X96849501Y-60902123D01*
X96849500Y-60902135D01*
X88807551Y-60902135D01*
X88823865Y-60879681D01*
X88911082Y-60708509D01*
X88970447Y-60525801D01*
X89000500Y-60336055D01*
X89000500Y-60143945D01*
X88970447Y-59954199D01*
X88911082Y-59771491D01*
X88823865Y-59600319D01*
X88710945Y-59444898D01*
X88575102Y-59309055D01*
X88419681Y-59196135D01*
X88248504Y-59108915D01*
X88183919Y-59087931D01*
X88126243Y-59048494D01*
X88099044Y-58984136D01*
X88110958Y-58915289D01*
X88158202Y-58863813D01*
X88183919Y-58852069D01*
X88248504Y-58831084D01*
X88248506Y-58831082D01*
X88248509Y-58831082D01*
X88419681Y-58743865D01*
X88575102Y-58630945D01*
X88710945Y-58495102D01*
X88823865Y-58339681D01*
X88911082Y-58168509D01*
X88970447Y-57985801D01*
X89000500Y-57796055D01*
X89000500Y-57603945D01*
X88970447Y-57414199D01*
X88911082Y-57231491D01*
X88823865Y-57060319D01*
X88710945Y-56904898D01*
X88575102Y-56769055D01*
X88419681Y-56656135D01*
X88248504Y-56568915D01*
X88183919Y-56547931D01*
X88126243Y-56508494D01*
X88099044Y-56444136D01*
X88110958Y-56375289D01*
X88158202Y-56323813D01*
X88183919Y-56312069D01*
X88248504Y-56291084D01*
X88248506Y-56291082D01*
X88248509Y-56291082D01*
X88419681Y-56203865D01*
X88575102Y-56090945D01*
X88710945Y-55955102D01*
X88823865Y-55799681D01*
X88911082Y-55628509D01*
X88970447Y-55445801D01*
X89000500Y-55256055D01*
X89000500Y-55063945D01*
X88970447Y-54874199D01*
X88911082Y-54691491D01*
X88823865Y-54520319D01*
X88710945Y-54364898D01*
X88575102Y-54229055D01*
X88419681Y-54116135D01*
X88375676Y-54093713D01*
X88248504Y-54028915D01*
X88183919Y-54007931D01*
X88126243Y-53968494D01*
X88099044Y-53904136D01*
X88110958Y-53835289D01*
X88158202Y-53783813D01*
X88183919Y-53772069D01*
X88248504Y-53751084D01*
X88248506Y-53751082D01*
X88248509Y-53751082D01*
X88419681Y-53663865D01*
X88575102Y-53550945D01*
X88710945Y-53415102D01*
X88823865Y-53259681D01*
X88911082Y-53088509D01*
X88970447Y-52905801D01*
X89000500Y-52716055D01*
X89000500Y-52523945D01*
X88970447Y-52334199D01*
X88911082Y-52151491D01*
X88823865Y-51980319D01*
X88710945Y-51824898D01*
X88575102Y-51689055D01*
X88419681Y-51576135D01*
X88375676Y-51553713D01*
X88248504Y-51488915D01*
X88183919Y-51467931D01*
X88126243Y-51428494D01*
X88099044Y-51364136D01*
X88110958Y-51295289D01*
X88158202Y-51243813D01*
X88183919Y-51232069D01*
X88248504Y-51211084D01*
X88248506Y-51211082D01*
X88248509Y-51211082D01*
X88419681Y-51123865D01*
X88575102Y-51010945D01*
X88710945Y-50875102D01*
X88823865Y-50719681D01*
X88911082Y-50548509D01*
X88970447Y-50365801D01*
X89000500Y-50176055D01*
X89000500Y-49983945D01*
X88970447Y-49794199D01*
X88911082Y-49611491D01*
X88823865Y-49440319D01*
X88710945Y-49284898D01*
X88575102Y-49149055D01*
X88419681Y-49036135D01*
X88375676Y-49013713D01*
X88248504Y-48948915D01*
X88183919Y-48927931D01*
X88126243Y-48888494D01*
X88099044Y-48824136D01*
X88110958Y-48755289D01*
X88158202Y-48703813D01*
X88183919Y-48692069D01*
X88248504Y-48671084D01*
X88248506Y-48671082D01*
X88248509Y-48671082D01*
X88419681Y-48583865D01*
X88575102Y-48470945D01*
X88710945Y-48335102D01*
X88823865Y-48179681D01*
X88911082Y-48008509D01*
X88970447Y-47825801D01*
X89000500Y-47636055D01*
X89000500Y-47443945D01*
X88970447Y-47254199D01*
X88911082Y-47071491D01*
X88823865Y-46900319D01*
X88710945Y-46744898D01*
X88575102Y-46609055D01*
X88419681Y-46496135D01*
X88375676Y-46473713D01*
X88248504Y-46408915D01*
X88183919Y-46387931D01*
X88126243Y-46348494D01*
X88099044Y-46284136D01*
X88110958Y-46215289D01*
X88158202Y-46163813D01*
X88183919Y-46152069D01*
X88248504Y-46131084D01*
X88248506Y-46131082D01*
X88248509Y-46131082D01*
X88419681Y-46043865D01*
X88575102Y-45930945D01*
X88710945Y-45795102D01*
X88823865Y-45639681D01*
X88911082Y-45468509D01*
X88970447Y-45285801D01*
X89000500Y-45096055D01*
X89000500Y-44903945D01*
X88970447Y-44714199D01*
X88911082Y-44531491D01*
X88823865Y-44360319D01*
X88710945Y-44204898D01*
X88575102Y-44069055D01*
X88419681Y-43956135D01*
X88353575Y-43922452D01*
X88248506Y-43868916D01*
X88065802Y-43809553D01*
X87970928Y-43794526D01*
X87876055Y-43779500D01*
X87123945Y-43779500D01*
X87060696Y-43789517D01*
X86934197Y-43809553D01*
X86751493Y-43868916D01*
X86580318Y-43956135D01*
X86491645Y-44020560D01*
X86424898Y-44069055D01*
X86424896Y-44069057D01*
X86424895Y-44069057D01*
X86289057Y-44204895D01*
X86289057Y-44204896D01*
X86289055Y-44204898D01*
X86269271Y-44232129D01*
X86176135Y-44360318D01*
X86088916Y-44531493D01*
X86029553Y-44714197D01*
X85999500Y-44903945D01*
X73760499Y-44903945D01*
X73760499Y-44232128D01*
X73754091Y-44172517D01*
X73744307Y-44146286D01*
X73703797Y-44037671D01*
X73703793Y-44037664D01*
X73617547Y-43922455D01*
X73617544Y-43922452D01*
X73502335Y-43836206D01*
X73502328Y-43836202D01*
X73367482Y-43785908D01*
X73367483Y-43785908D01*
X73307883Y-43779501D01*
X73307881Y-43779500D01*
X73307873Y-43779500D01*
X73307864Y-43779500D01*
X71212129Y-43779500D01*
X71212123Y-43779501D01*
X71152516Y-43785908D01*
X71017671Y-43836202D01*
X71017664Y-43836206D01*
X70902455Y-43922452D01*
X70902452Y-43922455D01*
X70816206Y-44037664D01*
X70816202Y-44037671D01*
X70765908Y-44172517D01*
X70759501Y-44232116D01*
X70759501Y-44232123D01*
X70759500Y-44232135D01*
X63136903Y-44232135D01*
X63150500Y-44146287D01*
X63150500Y-43933713D01*
X63117246Y-43723757D01*
X63051557Y-43521588D01*
X62955051Y-43332184D01*
X62955049Y-43332181D01*
X62955048Y-43332179D01*
X62830109Y-43160213D01*
X62679786Y-43009890D01*
X62507820Y-42884951D01*
X62507115Y-42884591D01*
X62499054Y-42880485D01*
X62448259Y-42832512D01*
X62431463Y-42764692D01*
X62453999Y-42698556D01*
X62499054Y-42659515D01*
X62507816Y-42655051D01*
X62529789Y-42639086D01*
X62679786Y-42530109D01*
X62679788Y-42530106D01*
X62679792Y-42530104D01*
X62830104Y-42379792D01*
X62830106Y-42379788D01*
X62830109Y-42379786D01*
X62955048Y-42207820D01*
X62955047Y-42207820D01*
X62955051Y-42207816D01*
X63051557Y-42018412D01*
X63117246Y-41816243D01*
X63150500Y-41606287D01*
X63150500Y-41393713D01*
X63117246Y-41183757D01*
X63051557Y-40981588D01*
X62955051Y-40792184D01*
X62955049Y-40792181D01*
X62955048Y-40792179D01*
X62830109Y-40620213D01*
X62679786Y-40469890D01*
X62507820Y-40344951D01*
X62507115Y-40344591D01*
X62499054Y-40340485D01*
X62448259Y-40292512D01*
X62431463Y-40224692D01*
X62453999Y-40158556D01*
X62499054Y-40119515D01*
X62507816Y-40115051D01*
X62529789Y-40099086D01*
X62679786Y-39990109D01*
X62679788Y-39990106D01*
X62679792Y-39990104D01*
X62830104Y-39839792D01*
X62830106Y-39839788D01*
X62830109Y-39839786D01*
X62955048Y-39667820D01*
X62955047Y-39667820D01*
X62955051Y-39667816D01*
X63051557Y-39478412D01*
X63117246Y-39276243D01*
X63150500Y-39066287D01*
X63150500Y-38853713D01*
X63117246Y-38643757D01*
X63051557Y-38441588D01*
X62955051Y-38252184D01*
X62955049Y-38252181D01*
X62955048Y-38252179D01*
X62830109Y-38080213D01*
X62716569Y-37966673D01*
X62683084Y-37905350D01*
X62688068Y-37835658D01*
X62729940Y-37779725D01*
X62760915Y-37762810D01*
X62892331Y-37713796D01*
X63007546Y-37627546D01*
X63093796Y-37512331D01*
X63144091Y-37377483D01*
X63150500Y-37317873D01*
X63150499Y-35522135D01*
X96849500Y-35522135D01*
X96849500Y-37317870D01*
X96849501Y-37317876D01*
X96855908Y-37377483D01*
X96906202Y-37512328D01*
X96906206Y-37512335D01*
X96992452Y-37627544D01*
X96992455Y-37627547D01*
X97107664Y-37713793D01*
X97107671Y-37713797D01*
X97239082Y-37762810D01*
X97295016Y-37804681D01*
X97319433Y-37870145D01*
X97304582Y-37938418D01*
X97283431Y-37966673D01*
X97169889Y-38080215D01*
X97044951Y-38252179D01*
X96948444Y-38441585D01*
X96882753Y-38643760D01*
X96849500Y-38853713D01*
X96849500Y-39066286D01*
X96882753Y-39276239D01*
X96948444Y-39478414D01*
X97044951Y-39667820D01*
X97169890Y-39839786D01*
X97320213Y-39990109D01*
X97492182Y-40115050D01*
X97500946Y-40119516D01*
X97551742Y-40167491D01*
X97568536Y-40235312D01*
X97545998Y-40301447D01*
X97500946Y-40340484D01*
X97492182Y-40344949D01*
X97320213Y-40469890D01*
X97169890Y-40620213D01*
X97044951Y-40792179D01*
X96948444Y-40981585D01*
X96882753Y-41183760D01*
X96849500Y-41393713D01*
X96849500Y-41606286D01*
X96882753Y-41816239D01*
X96948444Y-42018414D01*
X97044951Y-42207820D01*
X97169890Y-42379786D01*
X97320213Y-42530109D01*
X97492182Y-42655050D01*
X97500946Y-42659516D01*
X97551742Y-42707491D01*
X97568536Y-42775312D01*
X97545998Y-42841447D01*
X97500946Y-42880484D01*
X97492182Y-42884949D01*
X97320213Y-43009890D01*
X97169890Y-43160213D01*
X97044951Y-43332179D01*
X96948444Y-43521585D01*
X96882753Y-43723760D01*
X96851284Y-43922452D01*
X96849500Y-43933713D01*
X96849500Y-44146287D01*
X96882754Y-44356243D01*
X96939696Y-44531493D01*
X96948444Y-44558414D01*
X97044951Y-44747820D01*
X97169890Y-44919786D01*
X97320213Y-45070109D01*
X97492182Y-45195050D01*
X97500946Y-45199516D01*
X97551742Y-45247491D01*
X97568536Y-45315312D01*
X97545998Y-45381447D01*
X97500946Y-45420484D01*
X97492182Y-45424949D01*
X97320213Y-45549890D01*
X97169890Y-45700213D01*
X97044951Y-45872179D01*
X96948444Y-46061585D01*
X96882753Y-46263760D01*
X96857104Y-46425701D01*
X96849500Y-46473713D01*
X96849500Y-46686287D01*
X96882754Y-46896243D01*
X96939696Y-47071493D01*
X96948444Y-47098414D01*
X97044951Y-47287820D01*
X97169890Y-47459786D01*
X97320213Y-47610109D01*
X97492182Y-47735050D01*
X97500946Y-47739516D01*
X97551742Y-47787491D01*
X97568536Y-47855312D01*
X97545998Y-47921447D01*
X97500946Y-47960484D01*
X97492182Y-47964949D01*
X97320213Y-48089890D01*
X97169890Y-48240213D01*
X97044951Y-48412179D01*
X96948444Y-48601585D01*
X96882753Y-48803760D01*
X96849500Y-49013713D01*
X96849500Y-49226287D01*
X96882754Y-49436243D01*
X96939696Y-49611493D01*
X96948444Y-49638414D01*
X97044951Y-49827820D01*
X97169890Y-49999786D01*
X97320213Y-50150109D01*
X97492182Y-50275050D01*
X97500946Y-50279516D01*
X97551742Y-50327491D01*
X97568536Y-50395312D01*
X97545998Y-50461447D01*
X97500946Y-50500484D01*
X97492182Y-50504949D01*
X97320213Y-50629890D01*
X97169890Y-50780213D01*
X97044951Y-50952179D01*
X96948444Y-51141585D01*
X96882753Y-51343760D01*
X96849500Y-51553713D01*
X96849500Y-51766287D01*
X96882754Y-51976243D01*
X96939696Y-52151493D01*
X96948444Y-52178414D01*
X97044951Y-52367820D01*
X97169890Y-52539786D01*
X97320213Y-52690109D01*
X97492182Y-52815050D01*
X97500946Y-52819516D01*
X97551742Y-52867491D01*
X97568536Y-52935312D01*
X97545998Y-53001447D01*
X97500946Y-53040484D01*
X97492182Y-53044949D01*
X97320213Y-53169890D01*
X97169890Y-53320213D01*
X97044951Y-53492179D01*
X96948444Y-53681585D01*
X96882753Y-53883760D01*
X96849500Y-54093713D01*
X96849500Y-54306287D01*
X96882754Y-54516243D01*
X96939696Y-54691493D01*
X96948444Y-54718414D01*
X97044951Y-54907820D01*
X97169890Y-55079786D01*
X97320213Y-55230109D01*
X97492179Y-55355048D01*
X97492181Y-55355049D01*
X97492184Y-55355051D01*
X97681588Y-55451557D01*
X97883757Y-55517246D01*
X98093713Y-55550500D01*
X98093714Y-55550500D01*
X98306286Y-55550500D01*
X98306287Y-55550500D01*
X98516243Y-55517246D01*
X98718412Y-55451557D01*
X98907816Y-55355051D01*
X98929789Y-55339086D01*
X99079786Y-55230109D01*
X99079788Y-55230106D01*
X99079792Y-55230104D01*
X99230104Y-55079792D01*
X99230106Y-55079788D01*
X99230109Y-55079786D01*
X99355048Y-54907820D01*
X99355047Y-54907820D01*
X99355051Y-54907816D01*
X99451557Y-54718412D01*
X99517246Y-54516243D01*
X99550500Y-54306287D01*
X99550500Y-54093713D01*
X99517246Y-53883757D01*
X99451557Y-53681588D01*
X99355051Y-53492184D01*
X99355049Y-53492181D01*
X99355048Y-53492179D01*
X99230109Y-53320213D01*
X99079786Y-53169890D01*
X98907820Y-53044951D01*
X98907115Y-53044591D01*
X98899054Y-53040485D01*
X98848259Y-52992512D01*
X98831463Y-52924692D01*
X98853999Y-52858556D01*
X98899054Y-52819515D01*
X98907816Y-52815051D01*
X98929789Y-52799086D01*
X99079786Y-52690109D01*
X99079788Y-52690106D01*
X99079792Y-52690104D01*
X99230104Y-52539792D01*
X99230106Y-52539788D01*
X99230109Y-52539786D01*
X99355048Y-52367820D01*
X99355047Y-52367820D01*
X99355051Y-52367816D01*
X99451557Y-52178412D01*
X99517246Y-51976243D01*
X99550500Y-51766287D01*
X99550500Y-51553713D01*
X99517246Y-51343757D01*
X99451557Y-51141588D01*
X99355051Y-50952184D01*
X99355049Y-50952181D01*
X99355048Y-50952179D01*
X99230109Y-50780213D01*
X99079786Y-50629890D01*
X98907820Y-50504951D01*
X98907115Y-50504591D01*
X98899054Y-50500485D01*
X98848259Y-50452512D01*
X98831463Y-50384692D01*
X98853999Y-50318556D01*
X98899054Y-50279515D01*
X98907816Y-50275051D01*
X98929789Y-50259086D01*
X99079786Y-50150109D01*
X99079788Y-50150106D01*
X99079792Y-50150104D01*
X99230104Y-49999792D01*
X99230106Y-49999788D01*
X99230109Y-49999786D01*
X99355048Y-49827820D01*
X99355047Y-49827820D01*
X99355051Y-49827816D01*
X99451557Y-49638412D01*
X99517246Y-49436243D01*
X99550500Y-49226287D01*
X99550500Y-49013713D01*
X99517246Y-48803757D01*
X99451557Y-48601588D01*
X99355051Y-48412184D01*
X99355049Y-48412181D01*
X99355048Y-48412179D01*
X99230109Y-48240213D01*
X99079786Y-48089890D01*
X98907820Y-47964951D01*
X98907115Y-47964591D01*
X98899054Y-47960485D01*
X98848259Y-47912512D01*
X98831463Y-47844692D01*
X98853999Y-47778556D01*
X98899054Y-47739515D01*
X98907816Y-47735051D01*
X98929789Y-47719086D01*
X99079786Y-47610109D01*
X99079788Y-47610106D01*
X99079792Y-47610104D01*
X99230104Y-47459792D01*
X99230106Y-47459788D01*
X99230109Y-47459786D01*
X99355048Y-47287820D01*
X99355047Y-47287820D01*
X99355051Y-47287816D01*
X99451557Y-47098412D01*
X99517246Y-46896243D01*
X99550500Y-46686287D01*
X99550500Y-46473713D01*
X99517246Y-46263757D01*
X99451557Y-46061588D01*
X99355051Y-45872184D01*
X99355049Y-45872181D01*
X99355048Y-45872179D01*
X99230109Y-45700213D01*
X99079786Y-45549890D01*
X98907820Y-45424951D01*
X98907115Y-45424591D01*
X98899054Y-45420485D01*
X98848259Y-45372512D01*
X98831463Y-45304692D01*
X98853999Y-45238556D01*
X98899054Y-45199515D01*
X98907816Y-45195051D01*
X98929789Y-45179086D01*
X99079786Y-45070109D01*
X99079788Y-45070106D01*
X99079792Y-45070104D01*
X99230104Y-44919792D01*
X99230106Y-44919788D01*
X99230109Y-44919786D01*
X99355048Y-44747820D01*
X99355047Y-44747820D01*
X99355051Y-44747816D01*
X99451557Y-44558412D01*
X99517246Y-44356243D01*
X99550500Y-44146287D01*
X99550500Y-43933713D01*
X99517246Y-43723757D01*
X99451557Y-43521588D01*
X99355051Y-43332184D01*
X99355049Y-43332181D01*
X99355048Y-43332179D01*
X99230109Y-43160213D01*
X99079786Y-43009890D01*
X98907820Y-42884951D01*
X98907115Y-42884591D01*
X98899054Y-42880485D01*
X98848259Y-42832512D01*
X98831463Y-42764692D01*
X98853999Y-42698556D01*
X98899054Y-42659515D01*
X98907816Y-42655051D01*
X98929789Y-42639086D01*
X99079786Y-42530109D01*
X99079788Y-42530106D01*
X99079792Y-42530104D01*
X99230104Y-42379792D01*
X99230106Y-42379788D01*
X99230109Y-42379786D01*
X99355048Y-42207820D01*
X99355047Y-42207820D01*
X99355051Y-42207816D01*
X99451557Y-42018412D01*
X99517246Y-41816243D01*
X99550500Y-41606287D01*
X99550500Y-41393713D01*
X99517246Y-41183757D01*
X99451557Y-40981588D01*
X99355051Y-40792184D01*
X99355049Y-40792181D01*
X99355048Y-40792179D01*
X99230109Y-40620213D01*
X99079786Y-40469890D01*
X98907820Y-40344951D01*
X98907115Y-40344591D01*
X98899054Y-40340485D01*
X98848259Y-40292512D01*
X98831463Y-40224692D01*
X98853999Y-40158556D01*
X98899054Y-40119515D01*
X98907816Y-40115051D01*
X98929789Y-40099086D01*
X99079786Y-39990109D01*
X99079788Y-39990106D01*
X99079792Y-39990104D01*
X99230104Y-39839792D01*
X99230106Y-39839788D01*
X99230109Y-39839786D01*
X99355048Y-39667820D01*
X99355047Y-39667820D01*
X99355051Y-39667816D01*
X99451557Y-39478412D01*
X99517246Y-39276243D01*
X99550500Y-39066287D01*
X99550500Y-38853713D01*
X99517246Y-38643757D01*
X99451557Y-38441588D01*
X99355051Y-38252184D01*
X99355049Y-38252181D01*
X99355048Y-38252179D01*
X99230109Y-38080213D01*
X99116569Y-37966673D01*
X99083084Y-37905350D01*
X99088068Y-37835658D01*
X99129940Y-37779725D01*
X99160915Y-37762810D01*
X99292331Y-37713796D01*
X99407546Y-37627546D01*
X99493796Y-37512331D01*
X99544091Y-37377483D01*
X99550500Y-37317873D01*
X99550499Y-35522128D01*
X99544091Y-35462517D01*
X99493796Y-35327669D01*
X99493795Y-35327668D01*
X99493793Y-35327664D01*
X99407547Y-35212455D01*
X99407544Y-35212452D01*
X99292335Y-35126206D01*
X99292328Y-35126202D01*
X99157482Y-35075908D01*
X99157483Y-35075908D01*
X99097883Y-35069501D01*
X99097881Y-35069500D01*
X99097873Y-35069500D01*
X99097864Y-35069500D01*
X97302129Y-35069500D01*
X97302123Y-35069501D01*
X97242516Y-35075908D01*
X97107671Y-35126202D01*
X97107664Y-35126206D01*
X96992455Y-35212452D01*
X96992452Y-35212455D01*
X96906206Y-35327664D01*
X96906202Y-35327671D01*
X96855908Y-35462517D01*
X96849501Y-35522116D01*
X96849501Y-35522123D01*
X96849500Y-35522135D01*
X63150499Y-35522135D01*
X63150499Y-35522128D01*
X63144091Y-35462517D01*
X63093796Y-35327669D01*
X63093795Y-35327668D01*
X63093793Y-35327664D01*
X63007547Y-35212455D01*
X63007544Y-35212452D01*
X62892335Y-35126206D01*
X62892328Y-35126202D01*
X62757482Y-35075908D01*
X62757483Y-35075908D01*
X62697883Y-35069501D01*
X62697881Y-35069500D01*
X62697873Y-35069500D01*
X62697864Y-35069500D01*
X60902129Y-35069500D01*
X60902123Y-35069501D01*
X60842516Y-35075908D01*
X60707671Y-35126202D01*
X60707664Y-35126206D01*
X60592455Y-35212452D01*
X60592452Y-35212455D01*
X60506206Y-35327664D01*
X60506202Y-35327671D01*
X60455908Y-35462517D01*
X60449501Y-35522116D01*
X60449501Y-35522123D01*
X60449500Y-35522135D01*
X51500000Y-35522135D01*
X51500000Y-29897648D01*
X88699500Y-29897648D01*
X88699500Y-30102351D01*
X88731522Y-30304534D01*
X88794781Y-30499223D01*
X88858691Y-30624653D01*
X88887585Y-30681359D01*
X88887715Y-30681613D01*
X89008028Y-30847213D01*
X89152786Y-30991971D01*
X89273226Y-31079474D01*
X89318390Y-31112287D01*
X89434607Y-31171503D01*
X89500776Y-31205218D01*
X89500778Y-31205218D01*
X89500781Y-31205220D01*
X89605137Y-31239127D01*
X89695465Y-31268477D01*
X89796557Y-31284488D01*
X89897648Y-31300500D01*
X89897649Y-31300500D01*
X90102351Y-31300500D01*
X90102352Y-31300500D01*
X90304534Y-31268477D01*
X90499219Y-31205220D01*
X90681610Y-31112287D01*
X90774590Y-31044732D01*
X90847213Y-30991971D01*
X90847215Y-30991968D01*
X90847219Y-30991966D01*
X90991966Y-30847219D01*
X90991968Y-30847215D01*
X90991971Y-30847213D01*
X91044732Y-30774590D01*
X91112287Y-30681610D01*
X91205220Y-30499219D01*
X91268477Y-30304534D01*
X91300500Y-30102352D01*
X91300500Y-29897682D01*
X93700000Y-29897682D01*
X93700000Y-30102317D01*
X93732009Y-30304417D01*
X93795244Y-30499031D01*
X93888141Y-30681350D01*
X93888147Y-30681359D01*
X93920523Y-30725921D01*
X93920524Y-30725922D01*
X94600000Y-30046446D01*
X94600000Y-30052661D01*
X94627259Y-30154394D01*
X94679920Y-30245606D01*
X94754394Y-30320080D01*
X94845606Y-30372741D01*
X94947339Y-30400000D01*
X94953553Y-30400000D01*
X94274076Y-31079474D01*
X94318650Y-31111859D01*
X94500968Y-31204755D01*
X94695582Y-31267990D01*
X94897683Y-31300000D01*
X95102317Y-31300000D01*
X95304417Y-31267990D01*
X95499031Y-31204755D01*
X95681349Y-31111859D01*
X95725921Y-31079474D01*
X95046447Y-30400000D01*
X95052661Y-30400000D01*
X95154394Y-30372741D01*
X95245606Y-30320080D01*
X95320080Y-30245606D01*
X95372741Y-30154394D01*
X95400000Y-30052661D01*
X95400000Y-30046448D01*
X96079474Y-30725922D01*
X96079474Y-30725921D01*
X96111859Y-30681349D01*
X96204755Y-30499031D01*
X96267990Y-30304417D01*
X96300000Y-30102317D01*
X96300000Y-29897682D01*
X96267990Y-29695582D01*
X96204755Y-29500968D01*
X96111859Y-29318650D01*
X96079474Y-29274077D01*
X96079474Y-29274076D01*
X95400000Y-29953551D01*
X95400000Y-29947339D01*
X95372741Y-29845606D01*
X95320080Y-29754394D01*
X95245606Y-29679920D01*
X95154394Y-29627259D01*
X95052661Y-29600000D01*
X95046446Y-29600000D01*
X95725922Y-28920524D01*
X95725921Y-28920523D01*
X95681359Y-28888147D01*
X95681350Y-28888141D01*
X95499031Y-28795244D01*
X95304417Y-28732009D01*
X95102317Y-28700000D01*
X94897683Y-28700000D01*
X94695582Y-28732009D01*
X94500968Y-28795244D01*
X94318644Y-28888143D01*
X94274077Y-28920523D01*
X94274077Y-28920524D01*
X94953554Y-29600000D01*
X94947339Y-29600000D01*
X94845606Y-29627259D01*
X94754394Y-29679920D01*
X94679920Y-29754394D01*
X94627259Y-29845606D01*
X94600000Y-29947339D01*
X94600000Y-29953553D01*
X93920524Y-29274077D01*
X93920523Y-29274077D01*
X93888143Y-29318644D01*
X93795244Y-29500968D01*
X93732009Y-29695582D01*
X93700000Y-29897682D01*
X91300500Y-29897682D01*
X91300500Y-29897648D01*
X91292257Y-29845606D01*
X91268477Y-29695465D01*
X91237458Y-29600000D01*
X91205220Y-29500781D01*
X91205218Y-29500778D01*
X91205218Y-29500776D01*
X91112419Y-29318650D01*
X91112287Y-29318390D01*
X91080092Y-29274077D01*
X90991971Y-29152786D01*
X90847213Y-29008028D01*
X90681613Y-28887715D01*
X90681612Y-28887714D01*
X90681610Y-28887713D01*
X90624653Y-28858691D01*
X90499223Y-28794781D01*
X90304534Y-28731522D01*
X90129995Y-28703878D01*
X90102352Y-28699500D01*
X89897648Y-28699500D01*
X89873329Y-28703351D01*
X89695465Y-28731522D01*
X89500776Y-28794781D01*
X89318386Y-28887715D01*
X89152786Y-29008028D01*
X89008028Y-29152786D01*
X88887715Y-29318386D01*
X88794781Y-29500776D01*
X88731522Y-29695465D01*
X88699500Y-29897648D01*
X51500000Y-29897648D01*
X51500000Y-25124000D01*
X107494500Y-25124000D01*
X107494500Y-123376000D01*
X107494501Y-123376009D01*
X107506052Y-123483450D01*
X107506054Y-123483462D01*
X107517260Y-123534972D01*
X107551383Y-123637497D01*
X107551386Y-123637503D01*
X107629171Y-123758537D01*
X107629179Y-123758548D01*
X107674923Y-123811340D01*
X107674926Y-123811343D01*
X107674930Y-123811347D01*
X107783664Y-123905567D01*
X107783667Y-123905568D01*
X107783668Y-123905569D01*
X107877925Y-123948616D01*
X107914541Y-123965338D01*
X107981580Y-123985023D01*
X107981584Y-123985024D01*
X108124000Y-124005500D01*
X108124003Y-124005500D01*
X109875990Y-124005500D01*
X109876000Y-124005500D01*
X109983456Y-123993947D01*
X110034967Y-123982741D01*
X110069197Y-123971347D01*
X110137497Y-123948616D01*
X110137501Y-123948613D01*
X110137504Y-123948613D01*
X110258543Y-123870825D01*
X110311347Y-123825070D01*
X110405567Y-123716336D01*
X110465338Y-123585459D01*
X110485023Y-123518420D01*
X110485024Y-123518416D01*
X110505500Y-123376000D01*
X110505500Y-25124000D01*
X110493947Y-25016544D01*
X110482741Y-24965033D01*
X110482637Y-24964722D01*
X110448616Y-24862502D01*
X110448613Y-24862496D01*
X110370828Y-24741462D01*
X110370825Y-24741457D01*
X110370820Y-24741451D01*
X110325076Y-24688659D01*
X110325072Y-24688656D01*
X110325070Y-24688653D01*
X110216336Y-24594433D01*
X110216333Y-24594431D01*
X110216331Y-24594430D01*
X110085465Y-24534664D01*
X110085460Y-24534662D01*
X110085459Y-24534662D01*
X110018420Y-24514977D01*
X110018422Y-24514977D01*
X110018417Y-24514976D01*
X109956347Y-24506052D01*
X109876000Y-24494500D01*
X108124000Y-24494500D01*
X108123991Y-24494500D01*
X108123990Y-24494501D01*
X108016549Y-24506052D01*
X108016537Y-24506054D01*
X107965027Y-24517260D01*
X107862502Y-24551383D01*
X107862496Y-24551386D01*
X107741462Y-24629171D01*
X107741451Y-24629179D01*
X107688659Y-24674923D01*
X107594433Y-24783664D01*
X107594430Y-24783668D01*
X107534664Y-24914534D01*
X107514976Y-24981582D01*
X107509949Y-25016549D01*
X107494500Y-25124000D01*
X51500000Y-25124000D01*
X51500000Y-17624000D01*
X51519685Y-17556961D01*
X51572489Y-17511206D01*
X51624000Y-17500000D01*
X111876000Y-17500000D01*
X111943039Y-17519685D01*
G37*
%TD.AperFunction*%
%TD*%
M02*
