%TF.GenerationSoftware,KiCad,Pcbnew,9.0.1*%
%TF.CreationDate,2025-10-13T20:06:21-07:00*%
%TF.ProjectId,schematic,73636865-6d61-4746-9963-2e6b69636164,rev?*%
%TF.SameCoordinates,Original*%
%TF.FileFunction,Soldermask,Top*%
%TF.FilePolarity,Negative*%
%FSLAX46Y46*%
G04 Gerber Fmt 4.6, Leading zero omitted, Abs format (unit mm)*
G04 Created by KiCad (PCBNEW 9.0.1) date 2025-10-13 20:06:21*
%MOMM*%
%LPD*%
G01*
G04 APERTURE LIST*
G04 Aperture macros list*
%AMRoundRect*
0 Rectangle with rounded corners*
0 $1 Rounding radius*
0 $2 $3 $4 $5 $6 $7 $8 $9 X,Y pos of 4 corners*
0 Add a 4 corners polygon primitive as box body*
4,1,4,$2,$3,$4,$5,$6,$7,$8,$9,$2,$3,0*
0 Add four circle primitives for the rounded corners*
1,1,$1+$1,$2,$3*
1,1,$1+$1,$4,$5*
1,1,$1+$1,$6,$7*
1,1,$1+$1,$8,$9*
0 Add four rect primitives between the rounded corners*
20,1,$1+$1,$2,$3,$4,$5,0*
20,1,$1+$1,$4,$5,$6,$7,0*
20,1,$1+$1,$6,$7,$8,$9,0*
20,1,$1+$1,$8,$9,$2,$3,0*%
G04 Aperture macros list end*
%ADD10RoundRect,0.250000X-0.512000X-0.512000X0.512000X-0.512000X0.512000X0.512000X-0.512000X0.512000X0*%
%ADD11C,1.524000*%
%ADD12C,3.500000*%
%ADD13C,1.600000*%
%ADD14R,1.700000X1.700000*%
%ADD15C,1.700000*%
%ADD16C,2.000000*%
%ADD17O,1.600000X1.600000*%
%ADD18C,1.500000*%
%ADD19R,1.200000X1.200000*%
%ADD20C,1.200000*%
%ADD21R,2.000000X1.440000*%
%ADD22O,2.000000X1.440000*%
G04 APERTURE END LIST*
D10*
%TO.C,J7*%
X94000000Y-120567500D03*
D11*
X96500000Y-120567500D03*
X98500000Y-120567500D03*
X101000000Y-120567500D03*
D12*
X90930000Y-123277500D03*
X104070000Y-123277500D03*
%TD*%
D13*
%TO.C,C2*%
X63050000Y-104500000D03*
X65550000Y-104500000D03*
%TD*%
D14*
%TO.C,J6*%
X98200000Y-69800000D03*
%TD*%
%TO.C,J3*%
X98200000Y-77800000D03*
D15*
X98200000Y-80340000D03*
X98200000Y-82880000D03*
X98200000Y-85420000D03*
X98200000Y-87960000D03*
X98200000Y-90500000D03*
X98200000Y-93040000D03*
X98200000Y-95580000D03*
%TD*%
D14*
%TO.C,J2*%
X98200000Y-36420000D03*
D15*
X98200000Y-38960000D03*
X98200000Y-41500000D03*
X98200000Y-44040000D03*
X98200000Y-46580000D03*
X98200000Y-49120000D03*
X98200000Y-51660000D03*
X98200000Y-54200000D03*
%TD*%
D14*
%TO.C,J4*%
X61800000Y-77800000D03*
D15*
X61800000Y-80340000D03*
X61800000Y-82880000D03*
X61800000Y-85420000D03*
X61800000Y-87960000D03*
X61800000Y-90500000D03*
X61800000Y-93040000D03*
X61800000Y-95580000D03*
%TD*%
D13*
%TO.C,C4*%
X90000000Y-30000000D03*
X95000000Y-30000000D03*
%TD*%
D14*
%TO.C,J5*%
X98200000Y-61800000D03*
%TD*%
D16*
%TO.C,SW1*%
X76750000Y-104750000D03*
X83250000Y-104750000D03*
X76750000Y-109250000D03*
X83250000Y-109250000D03*
%TD*%
D13*
%TO.C,C1*%
X56500000Y-104500000D03*
X59000000Y-104500000D03*
%TD*%
D14*
%TO.C,J1*%
X61800000Y-36420000D03*
D15*
X61800000Y-38960000D03*
X61800000Y-41500000D03*
X61800000Y-44040000D03*
X61800000Y-46580000D03*
X61800000Y-49120000D03*
X61800000Y-51660000D03*
X61800000Y-54200000D03*
%TD*%
D13*
%TO.C,R1*%
X76000000Y-127350000D03*
D17*
X76000000Y-114650000D03*
%TD*%
D18*
%TO.C,Y1*%
X58000000Y-109000000D03*
X62900000Y-109000000D03*
%TD*%
D19*
%TO.C,C3*%
X90000000Y-112000000D03*
D20*
X92000000Y-112000000D03*
%TD*%
D21*
%TO.C,U1*%
X72260000Y-45000000D03*
D22*
X72260000Y-47540000D03*
X72260000Y-50080000D03*
X72260000Y-52620000D03*
X72260000Y-55160000D03*
X72260000Y-57700000D03*
X72260000Y-60240000D03*
X72260000Y-62780000D03*
X72260000Y-65320000D03*
X72260000Y-67860000D03*
X72260000Y-70400000D03*
X72260000Y-72940000D03*
X72260000Y-75480000D03*
X72260000Y-78020000D03*
X72260000Y-80560000D03*
X72260000Y-83100000D03*
X72260000Y-85640000D03*
X72260000Y-88180000D03*
X72260000Y-90720000D03*
X72260000Y-93260000D03*
X87500000Y-93260000D03*
X87500000Y-90720000D03*
X87500000Y-88180000D03*
X87500000Y-85640000D03*
X87500000Y-83100000D03*
X87500000Y-80560000D03*
X87500000Y-78020000D03*
X87500000Y-75480000D03*
X87500000Y-72940000D03*
X87500000Y-70400000D03*
X87500000Y-67860000D03*
X87500000Y-65320000D03*
X87500000Y-62780000D03*
X87500000Y-60240000D03*
X87500000Y-57700000D03*
X87500000Y-55160000D03*
X87500000Y-52620000D03*
X87500000Y-50080000D03*
X87500000Y-47540000D03*
X87500000Y-45000000D03*
%TD*%
M02*
