%TF.GenerationSoftware,KiCad,Pcbnew,9.0.5*%
%TF.CreationDate,2025-10-17T15:18:07-07:00*%
%TF.ProjectId,schematic,73636865-6d61-4746-9963-2e6b69636164,rev?*%
%TF.SameCoordinates,Original*%
%TF.FileFunction,Soldermask,Bot*%
%TF.FilePolarity,Negative*%
%FSLAX46Y46*%
G04 Gerber Fmt 4.6, Leading zero omitted, Abs format (unit mm)*
G04 Created by KiCad (PCBNEW 9.0.5) date 2025-10-17 15:18:07*
%MOMM*%
%LPD*%
G01*
G04 APERTURE LIST*
G04 Aperture macros list*
%AMRoundRect*
0 Rectangle with rounded corners*
0 $1 Rounding radius*
0 $2 $3 $4 $5 $6 $7 $8 $9 X,Y pos of 4 corners*
0 Add a 4 corners polygon primitive as box body*
4,1,4,$2,$3,$4,$5,$6,$7,$8,$9,$2,$3,0*
0 Add four circle primitives for the rounded corners*
1,1,$1+$1,$2,$3*
1,1,$1+$1,$4,$5*
1,1,$1+$1,$6,$7*
1,1,$1+$1,$8,$9*
0 Add four rect primitives between the rounded corners*
20,1,$1+$1,$2,$3,$4,$5,0*
20,1,$1+$1,$4,$5,$6,$7,0*
20,1,$1+$1,$6,$7,$8,$9,0*
20,1,$1+$1,$8,$9,$2,$3,0*%
G04 Aperture macros list end*
%ADD10O,2.000000X1.440000*%
%ADD11R,2.000000X1.440000*%
%ADD12RoundRect,0.250000X0.512000X0.512000X-0.512000X0.512000X-0.512000X-0.512000X0.512000X-0.512000X0*%
%ADD13C,1.524000*%
%ADD14C,3.500000*%
%ADD15C,1.600000*%
%ADD16R,1.700000X1.700000*%
%ADD17C,1.700000*%
%ADD18C,2.000000*%
%ADD19C,1.500000*%
%ADD20RoundRect,0.250000X-0.350000X-0.350000X0.350000X-0.350000X0.350000X0.350000X-0.350000X0.350000X0*%
%ADD21C,1.200000*%
%ADD22C,2.100000*%
G04 APERTURE END LIST*
D10*
%TO.C,U1*%
X85500000Y-63220000D03*
X85500000Y-65760000D03*
X85500000Y-68300000D03*
X85500000Y-70840000D03*
X85500000Y-73380000D03*
X85500000Y-75920000D03*
X85500000Y-78460000D03*
X85500000Y-81000000D03*
X85500000Y-83540000D03*
X85500000Y-86080000D03*
X85500000Y-88620000D03*
X85500000Y-91160000D03*
X85500000Y-93700000D03*
X85500000Y-96240000D03*
X85500000Y-98780000D03*
X85500000Y-101320000D03*
X85500000Y-103860000D03*
X85500000Y-106400000D03*
X85500000Y-108940000D03*
X85500000Y-111480000D03*
X70260000Y-111480000D03*
X70260000Y-108940000D03*
X70260000Y-106400000D03*
X70260000Y-103860000D03*
X70260000Y-101320000D03*
X70260000Y-98780000D03*
X70260000Y-96240000D03*
X70260000Y-93700000D03*
X70260000Y-91160000D03*
X70260000Y-88620000D03*
X70260000Y-86080000D03*
X70260000Y-83540000D03*
X70260000Y-81000000D03*
X70260000Y-78460000D03*
X70260000Y-75920000D03*
X70260000Y-73380000D03*
X70260000Y-70840000D03*
X70260000Y-68300000D03*
X70260000Y-65760000D03*
D11*
X70260000Y-63220000D03*
%TD*%
D12*
%TO.C,J7*%
X100464775Y-46447653D03*
D13*
X97964775Y-46447653D03*
X95964775Y-46447653D03*
X93464775Y-46447653D03*
D14*
X103534775Y-43737653D03*
X90394775Y-43737653D03*
%TD*%
D15*
%TO.C,C2*%
X73000000Y-130500000D03*
X73000000Y-133000000D03*
%TD*%
D16*
%TO.C,J6*%
X102500000Y-90720000D03*
%TD*%
%TO.C,J3*%
X98500000Y-93720000D03*
D17*
X98500000Y-96260000D03*
X98500000Y-98800000D03*
X98500000Y-101340000D03*
X98500000Y-103880000D03*
X98500000Y-106420000D03*
X98500000Y-108960000D03*
X98500000Y-111500000D03*
%TD*%
D16*
%TO.C,J2*%
X98500000Y-65680000D03*
D17*
X98500000Y-68220000D03*
X98500000Y-70760000D03*
X98500000Y-73300000D03*
X98500000Y-75840000D03*
X98500000Y-78380000D03*
X98500000Y-80920000D03*
X98500000Y-83460000D03*
%TD*%
D16*
%TO.C,J4*%
X56500000Y-86220000D03*
D17*
X56500000Y-88760000D03*
X56500000Y-91300000D03*
X56500000Y-93840000D03*
X56500000Y-96380000D03*
X56500000Y-98920000D03*
X56500000Y-101460000D03*
X56500000Y-104000000D03*
%TD*%
D15*
%TO.C,C4*%
X94000000Y-59000000D03*
X94000000Y-64000000D03*
%TD*%
D16*
%TO.C,J5*%
X102500000Y-84720000D03*
%TD*%
D18*
%TO.C,SW1*%
X75000000Y-43500000D03*
X81500000Y-43500000D03*
X75000000Y-48000000D03*
X81500000Y-48000000D03*
%TD*%
D15*
%TO.C,C1*%
X72990863Y-123094076D03*
X72990863Y-125594076D03*
%TD*%
D16*
%TO.C,J1*%
X56500000Y-63220000D03*
D17*
X56500000Y-65760000D03*
X56500000Y-68300000D03*
X56500000Y-70840000D03*
X56500000Y-73380000D03*
X56500000Y-75920000D03*
X56500000Y-78460000D03*
X56500000Y-81000000D03*
%TD*%
D15*
%TO.C,R1*%
X84350000Y-37500000D03*
X71650000Y-37500000D03*
%TD*%
D19*
%TO.C,Y1*%
X68500000Y-125600000D03*
X68500000Y-130500000D03*
%TD*%
D20*
%TO.C,C3*%
X92000000Y-53500000D03*
D21*
X94000000Y-53500000D03*
%TD*%
D22*
%TO.C,REF\u002A\u002A*%
X102500000Y-54000000D03*
%TD*%
%TO.C,REF\u002A\u002A*%
X59000000Y-44000000D03*
%TD*%
%TO.C,REF\u002A\u002A*%
X58000000Y-114000000D03*
%TD*%
%TO.C,REF\u002A\u002A*%
X102500000Y-127500000D03*
%TD*%
M02*
